<svg width="714" height="532" viewBox="0 0 714 532" fill="none" xmlns="http://www.w3.org/2000/svg">
<g clip-path="url(#clip0_27_554)">
<path opacity="0.1" d="M121.976 77.4005C118.152 81.392 116.68 87.0162 115.033 92.2986C101.775 134.865 69.1034 169.106 31.8966 193.571C16.1403 203.933 -3.04232 217.826 0.404823 236.395C2.26098 246.373 10.4043 253.714 16.4543 261.837C22.7528 270.428 26.9979 280.348 28.8632 290.836C30.7286 301.324 30.1645 312.1 27.2144 322.336C20.334 345.51 1.10263 367.128 7.05488 390.56C10.7253 405.005 23.1881 415.248 35.1693 424.055C53.8611 437.811 73.1483 450.694 93.031 462.706C106.359 470.758 120.538 478.595 136.071 479.614C149.748 480.514 163.146 476.041 176.132 471.617C187.479 467.758 199.111 463.732 208.273 455.993C214.253 450.941 219.019 444.423 225.662 440.285C241.265 430.572 261.306 436.727 279.198 440.865C321.753 450.597 366.266 447.086 406.77 430.802C468.393 405.863 515.362 353.493 575.638 325.392C601.554 313.306 629.745 305.805 653.743 290.244C666.963 281.661 678.582 270.833 688.075 258.25C706.218 234.141 716.029 203.41 713.196 173.334C710.362 143.259 694.487 114.265 669.555 97.2739C642.864 79.1311 609.153 75.7049 578.785 64.7843C547.426 53.5148 519.528 34.1298 488.468 22.0439C437.689 2.31007 379.172 3.45447 329.174 25.177C295.373 39.8727 261.111 74.2255 223.464 76.8144C196.641 78.6496 142.917 55.5035 121.976 77.4005Z" fill="#725095"/>
<path opacity="0.1" d="M535.731 531.09C629.48 531.09 705.478 519.637 705.478 505.508C705.478 491.38 629.48 479.927 535.731 479.927C441.982 479.927 365.984 491.38 365.984 505.508C365.984 519.637 441.982 531.09 535.731 531.09Z" fill="#725095"/>
<path d="M51.4279 355.432C51.4279 355.432 70.4151 392.695 54.9169 413.092C39.4187 433.489 56.3125 489.027 56.3125 489.027" stroke="#FC6681" stroke-width="1.3956" stroke-miterlimit="10"/>
<path d="M57.0591 343.828C57.0591 351.015 51.7837 356.835 51.7837 356.835C51.7837 356.835 46.5083 351.008 46.5083 343.828C46.5083 336.648 51.7837 330.821 51.7837 330.821C51.7837 330.821 57.0591 336.641 57.0591 343.828Z" fill="#FC6681"/>
<path d="M61.2739 355.432C61.2739 355.432 42.2867 392.695 57.7849 413.092C73.2831 433.489 56.3893 489.027 56.3893 489.027" stroke="#FFD037" stroke-width="1.3956" stroke-miterlimit="10"/>
<path d="M55.6495 343.828C55.6495 351.015 60.9249 356.835 60.9249 356.835C60.9249 356.835 66.2003 351.008 66.2003 343.828C66.2003 336.648 60.9249 330.821 60.9249 330.821C60.9249 330.821 55.6495 336.641 55.6495 343.828Z" fill="#FFD037"/>
<path d="M69.0125 355.432C69.0125 355.432 87.9997 392.695 72.5015 413.092C57.0033 433.489 73.8971 489.027 73.8971 489.027" stroke="#FC6681" stroke-width="1.3956" stroke-miterlimit="10"/>
<path d="M74.6369 343.828C74.6369 351.015 69.3616 356.835 69.3616 356.835C69.3616 356.835 64.0862 351.008 64.0862 343.828C64.0862 336.648 69.3476 330.821 69.3476 330.821C69.3476 330.821 74.6369 336.641 74.6369 343.828Z" fill="#FC6681"/>
<path d="M71.6781 373.701C66.6958 378.878 58.8595 379.416 58.8595 379.416C58.8595 379.416 59.0967 371.566 64.0791 366.388C69.0614 361.21 76.8977 360.673 76.8977 360.673C76.8977 360.673 76.6604 368.509 71.6781 373.701Z" fill="#FC6681"/>
<path d="M72.1386 399.393C67.1563 404.571 59.3199 405.108 59.3199 405.108C59.3199 405.108 59.5572 397.258 64.5395 392.08C69.5218 386.903 77.3581 386.365 77.3581 386.365C77.3581 386.365 77.1558 394.216 72.1386 399.393Z" fill="#FC6681"/>
<path d="M45.1616 413.538C49.8718 418.96 49.7043 426.796 49.7043 426.796C49.7043 426.796 41.9029 425.854 37.1927 420.432C32.4826 415.01 32.65 407.174 32.65 407.174C32.65 407.174 40.4514 408.116 45.1616 413.538Z" fill="#FC6681"/>
<path d="M49.5302 358.712C55.5173 362.682 57.4572 370.295 57.4572 370.295C57.4572 370.295 49.6907 371.475 43.7035 367.504C37.7164 363.534 35.7765 355.921 35.7765 355.921C35.7765 355.921 43.5291 354.741 49.5302 358.712Z" fill="#FC6681"/>
<path d="M78.8515 355.432C78.8515 355.432 59.8644 392.695 75.3625 413.092C90.8607 433.489 73.9669 489.027 73.9669 489.027" stroke="#FFD037" stroke-width="1.3956" stroke-miterlimit="10"/>
<path d="M73.2274 343.828C73.2274 351.015 78.5028 356.835 78.5028 356.835C78.5028 356.835 83.7782 351.008 83.7782 343.828C83.7782 336.648 78.5028 330.821 78.5028 330.821C78.5028 330.821 73.2274 336.641 73.2274 343.828Z" fill="#FFD037"/>
<path d="M74.7484 374.238C69.7033 379.353 69.3754 387.203 69.3754 387.203C69.3754 387.203 77.2187 386.756 82.2638 381.621C87.3089 376.485 87.6369 368.655 87.6369 368.655C87.6369 368.655 79.8145 369.123 74.7484 374.238Z" fill="#FFD037"/>
<path d="M84.6364 409.832C79.5913 414.947 79.2633 422.798 79.2633 422.798C79.2633 422.798 87.1066 422.351 92.1517 417.215C97.1968 412.079 97.5248 404.25 97.5248 404.25C97.5248 404.25 89.6745 404.718 84.6364 409.832Z" fill="#FFD037"/>
<path d="M70.087 402.011C70.087 402.011 81.517 384.001 97.5525 383.61" stroke="#FFD037" stroke-width="1.3956" stroke-miterlimit="10"/>
<path d="M61.1901 391.146C61.1901 391.146 49.7601 373.135 33.7246 372.745" stroke="#FC6681" stroke-width="1.3956" stroke-miterlimit="10"/>
<path d="M59.7041 416.845C59.7041 416.845 71.1341 398.835 87.1696 398.444" stroke="#FFD037" stroke-width="1.3956" stroke-miterlimit="10"/>
<path d="M97.0295 386.442C98.6674 386.442 99.9952 385.115 99.9952 383.477C99.9952 381.839 98.6674 380.511 97.0295 380.511C95.3916 380.511 94.0638 381.839 94.0638 383.477C94.0638 385.115 95.3916 386.442 97.0295 386.442Z" fill="#FFD037"/>
<path d="M33.9967 375.808C35.6346 375.808 36.9623 374.48 36.9623 372.843C36.9623 371.205 35.6346 369.877 33.9967 369.877C32.3588 369.877 31.031 371.205 31.031 372.843C31.031 374.48 32.3588 375.808 33.9967 375.808Z" fill="#FC6681"/>
<path d="M68.1055 422.777C68.1055 422.777 56.6825 404.76 40.64 404.404" stroke="#FC6681" stroke-width="1.3956" stroke-miterlimit="10"/>
<path d="M40.919 407.454C42.5569 407.454 43.8847 406.126 43.8847 404.488C43.8847 402.85 42.5569 401.522 40.919 401.522C39.2811 401.522 37.9534 402.85 37.9534 404.488C37.9534 406.126 39.2811 407.454 40.919 407.454Z" fill="#FC6681"/>
<path d="M87.3927 401.522C89.0305 401.522 90.3583 400.194 90.3583 398.556C90.3583 396.918 89.0305 395.591 87.3927 395.591C85.7548 395.591 84.427 396.918 84.427 398.556C84.427 400.194 85.7548 401.522 87.3927 401.522Z" fill="#FFD037"/>
<path d="M131.277 467.388C131.277 467.388 103.735 461.882 96.3871 454.534C89.0392 447.186 55.9983 434.34 52.3279 443.516C48.6574 452.692 2.78395 483.905 33.9687 489.417C65.1535 494.93 107.405 496.758 116.588 493.088C125.772 489.417 131.277 467.388 131.277 467.388Z" fill="#A8A8A8"/>
<path opacity="0.2" d="M33.9689 486.005C65.1816 491.51 107.406 493.346 116.589 489.675C123.567 486.884 128.451 473.444 130.356 467.192L131.277 467.38C131.277 467.38 125.772 489.41 116.624 493.08C107.475 496.751 65.2165 494.916 34.0038 489.41C24.9952 487.819 22.4203 484.086 23.3902 479.362C24.1299 482.453 27.263 484.825 33.9689 486.005Z" fill="black"/>
<path d="M642.452 379.695C642.452 379.695 649.723 389.206 639.096 403.56C628.468 417.914 619.704 430.034 623.249 438.987C623.249 438.987 639.298 412.324 652.333 411.947C665.368 411.571 656.813 395.73 642.452 379.695Z" fill="#FC6681"/>
<path opacity="0.1" d="M642.452 379.695C643.086 380.613 643.587 381.616 643.939 382.675C656.674 397.635 663.477 411.598 651.217 411.982C639.815 412.31 626.138 432.7 622.858 437.85C622.966 438.247 623.097 438.639 623.249 439.022C623.249 439.022 639.298 412.359 652.333 411.982C665.368 411.605 656.813 395.73 642.452 379.695Z" fill="black"/>
<path d="M655.969 391.843C655.969 395.193 655.592 397.9 655.131 397.9C654.671 397.9 654.294 395.186 654.294 391.843C654.294 388.501 654.761 390.071 655.229 390.071C655.697 390.071 655.969 388.466 655.969 391.843Z" fill="#FFD037"/>
<path d="M660.609 395.807C657.671 397.412 655.11 398.375 654.887 397.971C654.664 397.566 656.869 395.933 659.772 394.335C662.674 392.737 661.551 393.902 661.774 394.335C661.998 394.768 663.547 394.21 660.609 395.807Z" fill="#FFD037"/>
<path d="M604.045 379.695C604.045 379.695 596.774 389.206 607.402 403.56C618.029 417.914 626.794 430.034 623.249 438.987C623.249 438.987 607.199 412.324 594.164 411.947C581.129 411.571 589.684 395.73 604.045 379.695Z" fill="#FC6681"/>
<path opacity="0.1" d="M604.045 379.695C603.411 380.613 602.911 381.616 602.559 382.675C589.824 397.635 583.02 411.598 595.281 411.982C606.683 412.31 620.36 432.7 623.64 437.85C623.531 438.247 623.401 438.639 623.249 439.022C623.249 439.022 607.199 412.359 594.164 411.982C581.129 411.605 589.684 395.73 604.045 379.695Z" fill="black"/>
<path d="M590.522 391.843C590.522 395.193 590.899 397.9 591.359 397.9C591.82 397.9 592.196 395.186 592.196 391.843C592.196 388.501 591.729 390.071 591.261 390.071C590.794 390.071 590.522 388.466 590.522 391.843Z" fill="#FFD037"/>
<path d="M585.888 395.807C588.826 397.412 591.387 398.375 591.61 397.971C591.833 397.566 589.628 395.933 586.726 394.335C583.823 392.737 584.946 393.902 584.723 394.335C584.5 394.768 582.93 394.21 585.888 395.807Z" fill="#FFD037"/>
<path d="M592.839 437.745C592.839 437.745 613.172 437.117 619.299 432.756C625.426 428.395 650.575 423.182 652.096 430.181C653.617 437.18 682.653 464.98 659.695 465.169C636.737 465.357 606.362 461.596 600.242 457.87C594.122 454.143 592.839 437.745 592.839 437.745Z" fill="#A8A8A8"/>
<path opacity="0.2" d="M660.107 462.726C637.156 462.914 606.774 459.153 600.654 455.427C595.999 452.587 594.143 442.413 593.522 437.717H592.824C592.824 437.717 594.115 454.115 600.228 457.841C606.341 461.567 636.723 465.329 659.681 465.14C666.31 465.084 668.599 462.733 668.473 459.237C667.559 461.372 665.033 462.691 660.107 462.726Z" fill="black"/>
<path d="M287.215 66.7941C285.241 63.5703 282.289 60.6186 282.749 56.9621C288.164 57.5831 293.3 56.2643 298.261 53.9755C303.223 51.6867 307.828 48.6931 312.469 45.7693C314.297 44.618 316.118 43.4875 317.933 42.4408C320.807 40.787 323.661 38.9518 326.585 37.3399C330.772 35.0371 335.05 33.1531 339.746 32.7902C340.59 32.7274 341.448 32.7135 342.307 32.7274C348.098 32.846 354.1 34.3952 359.194 31.7993L359.508 31.6319C362.389 30.0479 364.497 27.3474 366.974 25.1702C368.755 23.6296 370.694 22.2823 372.759 21.1509C376.513 19.0575 380.588 17.3828 384.44 15.408C385.423 14.8957 386.357 14.2954 387.231 13.6146L387.887 13.0913L388.034 12.9657L388.508 12.5609L388.808 12.2958L389.115 12.0167L389.353 11.7934L389.736 11.4305L389.778 11.3886L390.392 10.7816L390.636 10.5373L391.062 10.1047L391.313 9.84649L392.597 8.52765C393.1 8.01825 393.616 7.51584 394.146 7.02737L394.649 6.58078L394.795 6.45518L395.2 6.11326L395.396 5.95276L395.793 5.64573L395.989 5.49221L396.589 5.05957C396.775 4.93248 396.971 4.82048 397.175 4.72463L395.919 1.54265L399.673 -0.00646973L451.443 125.633L447.689 127.182L418.067 55.3083L417.858 55.5176C410.996 62.2853 402.593 67.2852 393.372 70.0877H393.316C388.159 71.6438 382.388 72.7463 378.048 75.6701C376.509 76.6705 375.172 77.9511 374.106 79.4452C373.087 80.8967 372.375 82.5505 371.279 83.9461C371.077 84.2043 370.854 84.4555 370.631 84.6927C369.361 85.9484 367.957 87.06 366.444 88.0073L365.746 88.4608C361.25 91.6265 356.566 94.5161 351.72 97.1136C348.924 98.5697 346.008 99.7837 343.005 100.742C340.82 101.44 338.567 101.949 336.382 102.64C334.91 103.084 333.481 103.658 332.112 104.357C328.414 106.29 325.573 109.318 322.887 112.549C320.535 115.382 318.302 118.376 315.72 120.957C314.109 122.569 311.645 124.084 309.684 123.142C309.549 123.074 309.419 122.997 309.294 122.911C309.35 122.807 309.405 122.702 309.454 122.59C310.996 119.36 309.098 115.368 306.544 112.772C306.279 112.507 306.007 112.242 305.728 111.984C305.449 111.726 304.953 111.286 304.549 110.937C302.365 109.06 300.041 107.315 298.527 104.894C297.373 102.859 296.589 100.636 296.21 98.3278C295.512 95.0411 295.052 91.6568 293.265 88.8586C292.086 87.0094 290.348 85.4324 289.078 83.66C288.274 82.6145 287.746 81.3834 287.543 80.0802C287.257 77.8054 288.311 75.5864 288.709 73.3255C288.825 72.7093 288.872 72.082 288.848 71.4554C288.708 69.7884 288.146 68.1844 287.215 66.7941Z" fill="url(#paint0_linear_27_554)"/>
<path d="M446.335 126.165L450.031 124.641L399.117 1.114L395.42 2.63769L446.335 126.165Z" fill="#D6D8E1"/>
<path d="M294.521 88.4328C296.28 91.1822 296.74 94.5107 297.417 97.7415C297.791 100.011 298.563 102.196 299.699 104.196C301.192 106.576 303.474 108.299 305.616 110.141C306.007 110.476 306.398 110.839 306.775 111.167C307.151 111.495 307.319 111.677 307.577 111.942C310.089 114.489 311.952 118.41 310.438 121.592C310.389 121.697 310.34 121.802 310.278 121.906C310.4 121.989 310.529 122.064 310.661 122.13C312.587 123.058 315.009 121.564 316.593 119.98C319.133 117.44 321.331 114.496 323.64 111.712C326.278 108.53 329.076 105.557 332.712 103.652C334.054 102.965 335.456 102.4 336.899 101.963C339.041 101.265 341.26 100.77 343.409 100.093C346.364 99.1517 349.234 97.9587 351.985 96.5273C356.749 93.9738 361.354 91.1332 365.774 88.0211L366.43 87.5745C367.918 86.6433 369.299 85.5504 370.547 84.3158C370.77 84.0785 370.986 83.8343 371.182 83.5831C372.256 82.1875 372.961 80.5826 373.973 79.159C375.022 77.6897 376.338 76.4304 377.853 75.4467C382.123 72.6067 387.789 71.5181 392.862 69.9899H392.918C401.984 67.2342 410.246 62.3181 416.992 55.6641C417.553 55.1981 417.971 54.584 418.2 53.8916C418.416 52.9077 417.886 51.9378 417.376 51.1004C416.781 50.0863 416.202 49.0628 415.639 48.0301C413.063 43.3443 410.763 38.5119 408.751 33.5577C408.312 32.4761 407.886 31.3875 407.474 30.292C406.418 27.5008 405.455 24.67 404.585 21.7997C404.299 20.8437 404.02 19.8947 403.755 18.9318C403.706 18.7503 403.657 18.555 403.602 18.3456C402.443 13.6355 400.894 2.77067 396.128 6.02941C394.707 7.0392 393.386 8.18429 392.186 9.44864C391.257 10.3907 390.35 11.3606 389.394 12.2957C388.617 13.0625 387.794 13.7825 386.931 14.4519C386.056 15.122 385.122 15.7106 384.14 16.2103C380.358 18.1502 376.345 19.7761 372.654 21.8556C370.624 22.9674 368.718 24.2913 366.967 25.8051C364.532 27.9543 362.459 30.606 359.626 32.1621L359.312 32.3226C354.302 34.8765 348.405 33.3484 342.711 33.2297C341.867 33.2297 341.023 33.2297 340.192 33.2925C335.573 33.6484 331.344 35.5046 327.255 37.7654C324.38 39.3564 321.575 41.1568 318.749 42.7826C316.962 43.8084 315.176 44.9179 313.376 46.0553C308.805 48.9303 304.186 51.9518 299.42 54.1219C294.654 56.2921 289.49 57.6737 284.166 57.0597C283.712 60.6533 286.615 63.5562 288.555 66.7312C289.481 68.0932 290.045 69.6685 290.195 71.3088C290.217 71.9238 290.171 72.5394 290.055 73.144C289.664 75.37 288.66 77.5471 288.911 79.7871C289.115 81.0574 289.633 82.2568 290.418 83.2761C291.653 85.0625 293.342 86.6186 294.521 88.4328Z" fill="#E6E8ED"/>
<path d="M386.917 14.4578L390.811 23.7037L403.595 18.3167C402.443 13.6344 400.894 2.76963 396.128 6.02837C392.674 8.38694 390.336 11.8341 386.917 14.4578Z" fill="#5A5773"/>
<path d="M359.633 32.1682L361.294 36.1178L376.045 29.9074L372.654 21.8547C370.624 22.9665 368.718 24.2905 366.967 25.8043C364.518 27.9605 362.473 30.6121 359.633 32.1682Z" fill="#5A5773"/>
<path d="M327.269 37.7786L331.798 48.5248L346.549 42.3143L342.725 33.2429C341.881 33.2429 341.037 33.2429 340.206 33.3057C335.587 33.6546 331.358 35.5108 327.269 37.7786Z" fill="#5A5773"/>
<path d="M299.413 54.1075L302.288 60.932L317.039 54.7215L313.383 46.0409C308.819 48.9437 304.193 51.9583 299.413 54.1075Z" fill="#5A5773"/>
<path d="M382.257 44.6318L397.011 38.4235L390.803 23.6688L376.048 29.8772L382.257 44.6318Z" fill="#5A5773"/>
<path d="M352.751 57.0468L367.506 50.8385L361.298 36.0839L346.543 42.2922L352.751 57.0468Z" fill="#5A5773"/>
<path d="M323.248 69.4682L338.003 63.2599L331.794 48.5053L317.04 54.7136L323.248 69.4682Z" fill="#5A5773"/>
<path d="M290.055 73.1574L293.747 81.9218L308.498 75.7114L302.288 60.9598L288.555 66.7376C289.481 68.0997 290.046 69.6749 290.195 71.3152C290.218 71.9326 290.171 72.5506 290.055 73.1574Z" fill="#5A5773"/>
<path d="M397.021 38.4555L403.232 53.207L415.639 47.9874C413.063 43.3016 410.763 38.4692 408.751 33.515L397.021 38.4555Z" fill="#5A5773"/>
<path d="M373.716 65.5942L388.471 59.3859L382.263 44.6312L367.508 50.8396L373.716 65.5942Z" fill="#5A5773"/>
<path d="M344.204 78.0118L358.959 71.8035L352.75 57.0488L337.996 63.2572L344.204 78.0118Z" fill="#5A5773"/>
<path d="M314.701 90.4403L329.456 84.2319L323.248 69.4773L308.493 75.6856L314.701 90.4403Z" fill="#5A5773"/>
<path d="M388.473 59.4179L392.918 69.9756C398.05 68.4151 402.943 66.1563 407.46 63.2627L403.225 53.2004L388.473 59.4179Z" fill="#5A5773"/>
<path d="M358.935 71.8387L365.146 86.5903L370.526 84.3224C370.749 84.0852 370.965 83.8409 371.161 83.5897C372.235 82.1941 372.94 80.5892 373.952 79.1657C375.001 77.6963 376.317 76.437 377.832 75.4533L373.701 65.6283L358.935 71.8387Z" fill="#5A5773"/>
<path d="M335.67 98.9742L350.425 92.7659L344.217 78.0112L329.462 84.2196L335.67 98.9742Z" fill="#5A5773"/>
<path d="M299.95 96.6736L305.616 110.141C306.007 110.476 306.398 110.839 306.775 111.167L320.912 105.215L314.702 90.4631L299.95 96.6736Z" fill="#5A5773"/>
<path d="M297.417 97.7408L299.95 96.6732L293.74 81.9216L290.411 83.3172C291.646 85.0617 293.356 86.6109 294.514 88.4251C296.28 91.1815 296.74 94.51 297.417 97.7408Z" fill="#5A5773"/>
<path d="M350.422 92.8005L351.992 96.5407C356.756 93.9872 361.361 91.1466 365.781 88.0345L365.174 86.5901L350.422 92.8005Z" fill="#5A5773"/>
<path d="M320.919 105.222L323.654 111.719C326.292 108.537 329.09 105.564 332.726 103.659C334.068 102.972 335.469 102.407 336.912 101.97L335.663 99.0116L320.919 105.222Z" fill="#5A5773"/>
<path d="M440.934 127.635L444.723 168.184C444.723 168.184 449.196 176.634 454.36 179.349C457.897 181.198 464.827 187.025 468.825 190.514L469.704 191.281C469.348 192.279 469.16 192.893 469.16 192.893C469.16 192.893 482.928 219.926 491.532 223.98C500.135 228.035 494.288 262.164 494.63 278.046C494.867 289.141 498.635 295.282 502.766 298.324C502.62 298.547 502.473 298.778 502.333 299.022C496.221 309.189 493.757 331.407 496.353 341.588C496.474 342.072 496.652 342.541 496.884 342.983C495.355 351.357 493.834 364.929 498.419 371.007C505.306 380.127 513.219 417.299 513.219 417.299C513.219 417.299 518.383 443.32 522.165 447.71C524.914 450.898 524.761 478.978 524.468 494.155C522.43 494.106 520.396 493.943 518.376 493.667C501.985 491.483 516.534 501.405 522.758 505.32C519.967 507.106 514.866 508.46 505.313 507.183C492.201 505.439 498.893 511.44 505.313 515.913C509.47 518.775 514.383 520.341 519.43 520.414L566.88 521.293C567.467 516.735 567.628 512.133 567.362 507.546L579.922 507.776C579.922 507.776 581.422 496.884 579.81 489.989L580.613 489.864L574.416 441.541C574.416 441.541 574.074 396.937 575.114 394.237C578.233 386.073 576.51 373.108 574.416 363.373C572.655 355.294 572.482 346.949 573.907 338.804C577.515 318.567 572.253 302.867 568.673 295.135C568.506 294.772 568.346 294.437 568.185 294.109C570.334 294.151 571.674 294.221 571.674 294.221C565.136 289.49 572.372 245.898 578.903 236.778C585.435 227.658 600.298 232.745 600.298 232.745C601.659 231.63 602.907 230.384 604.024 229.025H604.757C610.116 229.172 617.624 229.2 625.419 228.669C640.219 227.658 636.779 217.505 636.779 217.505L630.931 177.618C630.931 177.618 616.131 144.166 612 153.963C607.869 163.76 619.571 179.307 619.571 179.307C619.571 179.307 624.735 205.663 619.571 209.382C616.305 211.734 610.897 210.248 607.36 208.845C606.25 208.405 605.322 207.973 604.708 207.666L603.899 207.247C598.316 204.456 584.025 199.187 577.933 198.915C570.362 198.58 555.904 193.849 555.904 193.849C554.738 189.837 551.403 187.408 547.956 185.936C547.51 182.382 547.324 178.799 547.398 175.218C547.86 174.953 548.28 174.621 548.647 174.234C548.894 174.031 549.115 173.796 549.303 173.536C550.356 171.973 549.84 169.803 550.733 168.149C550.893 167.856 548.605 165.937 548.828 165.693C550.224 164.465 552.247 163.795 553.447 162.49C553.93 162.083 554.304 161.563 554.536 160.976C555.478 158.464 555.527 157.626 555.234 154.968C555.004 152.623 555.715 150.781 555.359 148.799C556.671 147.613 557.292 146.196 555.876 144.787C553.273 142.191 546.107 141.577 542.618 141.388C539.882 141.235 537.084 141.388 534.474 140.586C531.432 139.637 528.962 137.467 526.198 135.897C523.435 134.327 519.848 133.385 517.127 135.011C515.033 136.26 513.638 138.89 511.189 139.051C509.165 139.183 507.169 137.467 505.271 138.165L505.369 138.388C505.219 138.415 505.072 138.455 504.929 138.507C507.151 143.818 511.079 148.238 516.094 151.067C514.087 153.961 513.014 157.399 513.017 160.92C513.024 163.91 513.797 166.848 515.263 169.454C516.729 172.059 518.839 174.246 521.39 175.804C521.388 175.818 521.388 175.832 521.39 175.846L521.495 176.934C521.717 179.896 521.61 182.873 521.174 185.811L520.525 186.697C518.934 187.478 517.978 188.092 517.978 188.092C513.503 186.616 508.891 185.597 504.211 185.05C497.323 184.352 481.183 174.583 481.183 174.583C480.889 174.615 480.599 174.678 480.318 174.771L479.829 174.29C476.193 170.827 471.649 168.468 466.725 167.486C466.725 167.486 465.866 164.953 463.968 160.39C462.643 157.201 454.332 139.456 454.332 139.456C454.332 139.456 450.892 125.262 451.575 118.166C452.259 111.069 440.934 97.5595 439.182 99.2482C437.431 100.937 436.112 120.88 440.934 127.635ZM540.21 352.243L540.406 352.334C540.887 352.613 541.334 354.134 541.759 356.521C543.239 364.964 544.362 384.3 545.074 399.589C545.206 402.492 545.325 405.248 545.43 407.753C543.727 399.931 541.941 391.362 541.787 388.787C541.557 385.521 540.747 365.641 540.21 352.243Z" fill="url(#paint1_linear_27_554)"/>
<path d="M538.968 485.44C538.968 485.44 538.633 494.441 518.962 491.776C499.291 489.11 525.633 504.783 525.633 504.783L578.666 505.781C578.666 505.781 581.785 482.753 573.998 482.753C573.656 482.774 538.968 485.44 538.968 485.44Z" fill="#4A4347"/>
<path opacity="0.1" d="M538.968 485.44C538.968 485.44 538.633 494.441 518.962 491.776C499.291 489.11 525.633 504.783 525.633 504.783L578.666 505.781C578.666 505.781 581.785 482.753 573.998 482.753C573.656 482.774 538.968 485.44 538.968 485.44Z" fill="black"/>
<path d="M497.624 341.714C497.901 342.796 498.446 343.792 499.208 344.609C506.932 353.157 537.273 350.569 540.308 352.383C540.769 352.662 541.208 354.162 541.62 356.57C543.05 364.902 544.146 383.986 544.83 399.073C545.36 410.789 545.646 420.098 545.646 420.098L547.342 493.116L566.978 490.045L579.329 488.14L573.328 440.452C573.328 440.452 572.993 396.435 574.026 393.763C577.054 385.689 575.366 372.829 573.328 363.248C571.623 355.308 571.455 347.114 572.833 339.111C576.322 319.091 571.242 303.6 567.774 295.959C566.968 294.15 566.036 292.401 564.982 290.725C564.982 290.725 515.962 290.027 507.288 295.393C505.669 296.516 504.341 298.009 503.415 299.748C497.505 309.747 495.111 331.672 497.624 341.714Z" fill="#5A5773"/>
<path d="M526.303 498.782C526.303 498.782 525.968 507.784 506.297 505.118C493.59 503.394 500.08 509.305 506.297 513.736C510.313 516.595 515.101 518.171 520.03 518.258L566.015 519.123C566.015 519.123 569.134 496.095 561.347 496.095C560.984 496.116 526.303 498.782 526.303 498.782Z" fill="#4A4347"/>
<path d="M595.001 230.331C595.001 230.331 597.995 230.554 602.677 230.687C607.869 230.833 615.147 230.861 622.697 230.331C637.037 229.333 633.702 219.326 633.702 219.326L628.035 179.977C628.035 179.977 613.696 146.964 609.697 156.636C605.699 166.307 617.031 181.645 617.031 181.645C617.031 181.645 622.034 207.659 617.031 211.323C613.863 213.646 608.657 212.181 605.168 210.792C604.017 210.332 602.894 209.803 601.805 209.208L595.001 230.331Z" fill="#A1616A"/>
<path d="M443.935 130.622L447.605 170.64C447.605 170.64 451.938 178.979 456.942 181.645C460.368 183.473 467.067 189.202 470.96 192.635C472.754 194.219 473.954 195.315 473.954 195.315L483.96 179.307C483.271 178.365 482.498 177.486 481.651 176.683C478.148 173.276 473.74 170.946 468.951 169.971C468.951 169.971 468.12 167.472 466.285 162.993C465.001 159.845 456.949 142.317 456.949 142.317C456.949 142.317 453.613 128.312 454.283 121.306C454.953 114.3 443.948 100.965 442.281 102.633C440.613 104.3 439.266 123.951 443.935 130.622Z" fill="#A1616A"/>
<path d="M518.634 199.32C518.634 199.32 554.648 204.323 549.979 196.319C548.695 194.121 547.942 190.932 547.523 187.471C546.421 178.344 547.649 167.305 547.649 167.305L520.637 171.973C522.189 177.156 522.568 182.619 521.746 187.967C521.219 191.873 520.173 195.691 518.634 199.32Z" fill="#A1616A"/>
<path d="M531.139 180.814C540.716 180.814 548.479 173.051 548.479 163.474C548.479 153.897 540.716 146.134 531.139 146.134C521.562 146.134 513.798 153.897 513.798 163.474C513.798 173.051 521.562 180.814 531.139 180.814Z" fill="#A1616A"/>
<path opacity="0.1" d="M503.422 299.734C505.021 301.062 506.925 301.974 508.963 302.385C514.301 303.383 531.641 305.386 538.312 300.048C543.602 295.819 560.844 295.777 567.752 295.945C566.947 294.136 566.015 292.387 564.961 290.711C564.961 290.711 515.941 290.013 507.267 295.379C505.658 296.505 504.34 297.998 503.422 299.734Z" fill="black"/>
<path opacity="0.1" d="M470.961 192.635C472.754 194.219 473.954 195.315 473.954 195.315L483.961 179.307C483.272 178.365 482.499 177.487 481.651 176.684C476.78 177.619 472.552 188.142 470.961 192.635Z" fill="black"/>
<path opacity="0.1" d="M595.001 230.331C595.001 230.331 597.995 230.554 602.677 230.687C610.046 221.846 606.131 213.109 605.196 210.793C604.045 210.332 602.921 209.803 601.833 209.208L595.001 230.331Z" fill="black"/>
<path opacity="0.1" d="M518.634 199.32C518.634 199.32 554.648 204.323 549.979 196.319C548.695 194.121 547.942 190.932 547.523 187.471C544.586 186.269 541.477 185.541 538.312 185.315C532.13 183.773 525.514 186.166 521.746 187.967C521.219 191.873 520.173 195.691 518.634 199.32Z" fill="black"/>
<path d="M538.312 185.992C538.312 185.992 552.652 186.69 555.318 195.999C555.318 195.999 569.323 200.667 576.664 201.002C584.004 201.337 603.676 209.341 604.01 210.674C604.345 212.006 610.988 223.681 598.344 234.35C598.344 234.35 584.004 229.347 577.668 238.348C571.332 247.35 564.326 290.37 570.69 295.038C570.69 295.038 545.011 293.705 538.34 299.036C531.669 304.368 514.329 302.372 508.991 301.374C503.653 300.376 496.319 294.703 495.984 279.044C495.649 263.386 501.322 229.689 492.983 225.69C484.644 221.692 471.309 194.987 471.309 194.987C471.309 194.987 476.648 177.647 482.984 176.977C482.984 176.977 498.656 186.648 505.313 187.311C509.852 187.851 514.323 188.857 518.655 190.312C518.655 190.312 528.976 183.641 538.312 185.992Z" fill="#605D82"/>
<path opacity="0.1" d="M549.652 421.416C549.652 421.416 546.811 408.856 544.83 399.087C545.36 410.803 545.646 420.111 545.646 420.111L547.342 493.115L566.978 490.045L549.652 421.416Z" fill="black"/>
<path d="M499.626 336.019C499.626 336.019 492.955 361.698 499.626 370.7C506.297 379.702 513.966 416.385 513.966 416.385C513.966 416.385 518.969 442.064 522.64 446.391C526.31 450.717 524.642 501.747 524.642 501.747L567.997 499.41L548.319 421.374C548.319 421.374 541.983 393.365 541.648 388.361C541.313 383.358 539.645 340.004 539.645 340.004L499.626 336.019Z" fill="#5A5773"/>
<path opacity="0.1" d="M520.637 155.569C517.342 154.339 514.339 152.439 511.817 149.988C509.294 147.538 507.308 144.591 505.983 141.333C507.825 140.636 509.758 142.338 511.719 142.206C514.092 142.045 515.438 139.414 517.469 138.214C520.114 136.609 523.589 137.516 526.261 139.093C528.934 140.67 531.327 142.785 534.279 143.72C536.805 144.522 539.52 144.362 542.171 144.515C545.535 144.704 552.471 145.304 554.99 147.872C556.385 149.267 555.757 150.663 554.487 151.835C554.829 153.796 554.138 155.603 554.362 157.92C554.689 159.924 554.417 161.98 553.58 163.83C552.624 166.433 551.278 168.478 549.973 170.927C549.107 172.56 549.603 174.702 548.577 176.244C548.028 176.965 547.308 177.538 546.484 177.912C541.564 180.542 535.837 181.232 530.434 179.845C528.62 179.371 526.75 178.561 525.78 176.956C524.168 174.284 525.78 170.878 525.612 167.759C525.424 163.349 521.705 159.741 520.637 155.569Z" fill="black"/>
<path d="M520.965 155.233C517.67 154.004 514.667 152.103 512.145 149.653C509.622 147.203 507.636 144.256 506.311 140.998C508.153 140.3 510.086 142.003 512.047 141.87C514.419 141.71 515.766 139.079 517.797 137.879C520.441 136.274 523.917 137.181 526.589 138.758C529.262 140.335 531.655 142.45 534.607 143.385C537.133 144.187 539.847 144.027 542.499 144.18C545.862 144.369 552.799 144.969 555.318 147.537C556.713 148.932 556.085 150.328 554.815 151.5C555.157 153.461 554.466 155.268 554.69 157.585C555.017 159.589 554.745 161.645 553.908 163.495C552.952 166.098 551.605 168.143 550.3 170.592C549.435 172.225 549.931 174.367 548.905 175.909C548.355 176.629 547.636 177.202 546.811 177.577C541.892 180.207 536.165 180.897 530.762 179.51C528.948 179.035 527.078 178.226 526.108 176.621C524.496 173.948 526.108 170.543 525.94 167.424C525.759 163.021 522.039 159.406 520.965 155.233Z" fill="#4A4347"/>
<path opacity="0.1" d="M524.468 178.476L522.04 179.335L521.928 178.169C521.928 178.169 521.802 178.811 524.468 178.476Z" fill="black"/>
<path d="M251.259 409.05C251.526 412.49 252.85 416.051 255.637 418.081C258.423 420.111 262.857 420.072 264.986 417.345C265.701 416.322 266.227 415.178 266.538 413.97C268.332 408.302 269.605 402.1 267.639 396.488C263.206 396.2 258.067 394.115 254.738 397.778C252.05 400.763 250.949 405.072 251.259 409.05Z" fill="#3F3D56"/>
<path d="M271.841 374.376C271.252 379.377 270.25 384.357 270.353 389.393C270.392 391.337 270.598 393.263 270.603 395.216C270.61 400.285 269.275 405.266 266.732 409.652C266.465 410.168 266.106 410.631 265.674 411.02C264.655 411.845 263.12 411.776 261.976 411.144C260.858 410.449 259.95 409.464 259.349 408.293C256.145 402.806 256.054 396.136 254.786 389.913C253.814 385.153 252.111 380.538 251.496 375.722C251.096 372.621 251.156 369.46 250.52 366.398C250.326 365.474 249.784 364.085 249.427 362.722C249.101 361.505 248.92 360.309 249.255 359.488C249.939 357.806 252.18 358.46 253.638 358.563C258.771 358.944 263.927 358.931 269.059 358.524C269.566 358.486 270.143 358.464 270.5 358.825C270.655 359.008 270.772 359.22 270.844 359.449C271.252 360.567 271.564 361.718 271.777 362.889C272.486 366.635 272.289 370.561 271.841 374.376Z" fill="#FABDBD"/>
<g opacity="0.1">
<path opacity="0.1" d="M269.863 358.524C269.598 358.496 269.332 358.496 269.067 358.524C266.607 358.722 264.143 358.82 261.683 358.833C264.41 358.839 267.136 358.736 269.863 358.524Z" fill="black"/>
<path opacity="0.1" d="M262.844 411.144C261.727 410.449 260.819 409.463 260.217 408.293C257.013 402.806 256.923 396.136 255.654 389.913C254.682 385.152 252.979 380.538 252.364 375.722C251.964 372.621 252.025 369.46 251.388 366.398C251.195 365.474 250.653 364.085 250.296 362.721C249.969 361.504 249.788 360.309 250.124 359.487C250.266 359.151 250.506 358.864 250.813 358.665C251.119 358.466 251.478 358.363 251.844 358.369C250.756 358.296 249.694 358.425 249.264 359.487C248.928 360.309 249.109 361.504 249.436 362.721C249.793 364.085 250.335 365.474 250.528 366.398C251.165 369.46 251.104 372.621 251.504 375.722C252.119 380.542 253.822 385.157 254.794 389.913C256.063 396.136 256.153 402.814 259.357 408.293C259.959 409.463 260.867 410.449 261.984 411.144C262.671 411.524 263.458 411.683 264.238 411.6C263.749 411.536 263.277 411.381 262.844 411.144Z" fill="black"/>
</g>
<path d="M288.101 400.75C285.521 405.91 285.951 413.221 285.951 413.221C286.381 430.422 279.5 466.546 279.5 466.546H273.48C273.48 466.546 272.619 426.552 273.48 423.112C274.34 419.671 273.049 407.63 271.759 390.859C270.8 378.387 273.411 367.086 274.813 362.127C275.294 360.407 275.63 359.466 275.63 359.466C275.63 359.466 285.521 344.844 291.111 351.725C292.401 353.325 293.085 356.554 293.322 360.631C294.087 374.083 290.079 396.789 288.101 400.75Z" fill="#FABDBD"/>
<path opacity="0.1" d="M293.321 360.631C293.085 356.554 292.41 353.32 291.111 351.725C289.864 350.194 288.402 349.729 286.888 349.931C288.061 350.126 289.113 350.769 289.821 351.725C291.111 353.325 291.795 356.554 292.031 360.631C292.797 374.083 288.789 396.789 286.811 400.75C284.23 405.91 284.66 413.221 284.66 413.221C285.09 430.423 278.21 466.546 278.21 466.546H279.5C279.5 466.546 286.381 430.423 285.95 413.221C285.95 413.221 285.52 405.91 288.101 400.75C290.079 396.789 294.087 374.083 293.321 360.631Z" fill="black"/>
<path d="M270.349 464.976C269.868 465.353 269.453 465.807 269.119 466.318C268.349 467.772 269.441 469.509 270.611 470.666C271.781 471.823 273.191 473.061 273.191 474.708C273.191 476.033 272.189 477.168 271.067 477.873C270.465 478.252 269.708 478.733 269.833 479.447C269.876 479.628 269.954 479.799 270.061 479.95C271.024 481.425 272.731 482.29 274.46 482.617C276.189 482.944 277.973 482.802 279.732 482.66C279.996 482.669 280.253 482.58 280.455 482.41C280.582 482.239 280.65 482.03 280.648 481.817C280.734 480.905 280.678 479.942 281.078 479.12C281.637 477.998 282.923 477.426 283.659 476.42C284.691 475.044 284.549 473.13 284.157 471.457C283.297 467.815 281.384 463.66 278.511 461.136C275.182 458.238 272.572 462.882 270.349 464.976Z" fill="#3F3D56"/>
<path d="M283.379 248.214C285.778 244.628 285.155 239.613 282.704 236.044C280.252 232.475 276.313 230.23 272.249 228.781C266.771 226.828 260.728 226.162 255.099 227.628C250.618 228.793 246.593 231.232 242.37 233.115C234.899 236.449 226.775 238.065 218.597 237.846C209.519 237.592 199.572 235.266 191.956 240.228C178.014 249.298 184.215 273.982 171.026 284.093C167.469 286.819 162.993 288.01 159.036 290.113C155.08 292.216 151.33 295.876 151.425 300.357C151.468 302.507 152.414 304.558 153.575 306.377C158.52 314.217 167.766 319.068 177.025 318.978C186.284 318.887 195.319 313.963 200.656 306.386C201.993 304.489 203.172 302.378 205.111 301.114C208.981 298.576 214.082 300.352 218.7 300.731C228.983 301.569 239.269 293.85 241.316 283.723C242.176 279.401 242.026 274.236 245.505 271.522C248.313 269.334 252.265 269.802 255.826 269.428C262.337 268.753 267.476 264.698 271.011 259.4C272.632 256.97 272.821 254.067 275.032 252.153C277.414 250.05 281.1 251.603 283.379 248.214Z" fill="#3F3D56"/>
<g opacity="0.1">
<path opacity="0.1" d="M209.997 238.675C213.768 238.779 217.539 238.491 221.251 237.815C220.227 237.845 219.195 237.845 218.168 237.815C211.042 237.617 203.383 236.147 196.734 237.918C201.121 237.961 205.658 238.555 209.997 238.675Z" fill="black"/>
<path opacity="0.1" d="M196.502 301.969C194.562 303.233 193.384 305.344 192.047 307.241C187.936 313.011 181.928 317.153 175.073 318.942C175.576 318.964 176.079 318.977 176.587 318.972C185.854 318.882 194.881 313.958 200.217 306.381C201.555 304.484 202.733 302.373 204.673 301.109L205.008 300.902C201.972 300.485 198.992 300.339 196.502 301.969Z" fill="black"/>
<path opacity="0.1" d="M282.269 236.03C279.822 232.478 275.879 230.216 271.815 228.767C266.336 226.815 260.294 226.148 254.665 227.614C254.536 227.645 254.411 227.683 254.286 227.718C257.482 227.896 260.634 228.539 263.644 229.627C267.708 231.076 271.651 233.338 274.098 236.89C276.545 240.443 277.173 245.491 274.774 249.061C272.494 252.462 268.809 250.91 266.396 253.004C264.186 254.918 263.997 257.821 262.375 260.25C259.335 264.796 255.103 268.421 249.835 269.797C251.646 269.582 253.555 269.608 255.361 269.419C261.872 268.744 267.011 264.688 270.546 259.39C272.168 256.961 272.357 254.058 274.567 252.144C276.98 250.05 280.665 251.602 282.944 248.201C285.348 244.614 284.725 239.583 282.269 236.03Z" fill="black"/>
<path opacity="0.1" d="M247.195 270.279C243.656 270.649 239.704 270.185 236.874 272.373C233.395 275.087 233.563 280.252 232.686 284.574C231.176 292.13 225.044 298.361 217.763 300.679L218.275 300.726C228.557 301.565 238.844 293.845 240.891 283.718C241.751 279.396 241.6 274.231 245.079 271.518C245.878 270.92 246.785 270.482 247.75 270.228C247.556 270.232 247.38 270.262 247.195 270.279Z" fill="black"/>
</g>
<path d="M351.102 232.818C351.102 232.818 340.781 253.461 337.34 261.201C333.9 268.942 302.507 280.553 298.207 280.983C297.053 281.141 295.979 281.659 295.136 282.463C292.706 284.613 291.326 288.294 291.326 288.294C291.326 288.294 293.046 299.905 290.896 319.257C290.853 319.631 290.814 320.005 290.78 320.366C288.905 338.781 292.831 343.124 292.831 343.124C292.831 343.124 251.117 359.036 252.407 338.394C252.811 331.896 252.751 327.148 252.351 323.179C251.914 319.116 251.087 315.103 249.883 311.198C248.864 307.633 247.647 303.724 246.387 298.4C245.78 295.744 244.981 293.135 243.996 290.595C243.965 290.517 243.935 290.44 243.91 290.367C241.759 285.03 239.609 283.305 238.379 282.746C237.218 282.241 236.111 281.619 235.076 280.889C231.103 278.02 222.575 271.591 214.981 263.997C204.66 253.676 194.339 229.163 194.339 229.163C194.339 229.163 191.328 214.972 198.209 203.361C205.09 191.749 202.079 226.153 202.079 226.153C202.079 226.153 214.551 242.924 217.561 250.665C219.109 254.647 221.569 256.686 223.581 257.744C226.906 259.475 230.09 261.465 233.103 263.696C235.139 265.234 237.278 266.631 239.506 267.876C244.314 270.456 250.072 273.367 254.871 274.133C255.62 274.256 256.378 274.321 257.138 274.326C257.498 274.338 257.856 274.266 258.184 274.117C258.512 273.968 258.802 273.745 259.03 273.466C260.32 271.948 260.29 268.68 259.993 265.992C259.835 264.6 259.599 263.217 259.288 261.851C259.288 261.851 273.264 253.035 272.834 263.786C272.767 264.974 272.878 266.165 273.161 267.321C273.39 268.382 273.896 269.362 274.628 270.163C275.36 270.964 276.292 271.556 277.328 271.879C279.006 272.371 280.782 272.429 282.489 272.047C283.021 271.956 283.535 271.78 284.011 271.527C285.301 270.667 298.202 266.796 302.073 266.366C305.943 265.936 325.295 256.475 325.295 256.475L346.367 227.232C346.367 227.232 345.937 210.031 354.538 203.15C363.139 196.269 351.102 232.818 351.102 232.818Z" fill="#FABDBD"/>
<g opacity="0.1">
<path opacity="0.1" d="M290.78 317.786C290.405 321.242 290.239 324.717 290.286 328.193C290.329 325.922 290.479 323.329 290.78 320.366C290.815 320.005 290.853 319.631 290.896 319.257C291.649 312.634 292.008 305.972 291.971 299.307C291.905 305.111 291.546 310.908 290.896 316.676C290.871 317.05 290.815 317.425 290.78 317.786Z" fill="black"/>
<path opacity="0.1" d="M259.735 261.575C259.447 261.743 259.305 261.846 259.305 261.846C259.723 263.686 259.999 265.555 260.131 267.437C260.217 265.474 260.085 263.508 259.735 261.575Z" fill="black"/>
<path opacity="0.1" d="M202.282 223.817C202.493 220.807 202.807 215.41 202.747 210.61C202.673 217.026 202.101 223.572 202.101 223.572L202.282 223.817Z" fill="black"/>
<path opacity="0.1" d="M252.437 337.891C252.437 338.058 252.437 338.226 252.407 338.394C251.117 359.036 292.831 343.124 292.831 343.124C292.344 342.465 291.975 341.726 291.743 340.94C285.46 343.176 253.887 353.574 252.437 337.891Z" fill="black"/>
<path opacity="0.1" d="M351.102 230.238C351.102 230.238 340.781 250.88 337.341 258.621C333.9 266.361 302.507 277.973 298.207 278.403C297.053 278.561 295.979 279.078 295.136 279.882C292.707 282.032 291.326 285.713 291.326 285.713C291.326 285.713 291.43 286.414 291.554 287.747C292.036 286.642 293.274 284.105 295.136 282.462C295.979 281.659 297.053 281.141 298.207 280.983C302.507 280.553 333.9 268.942 337.341 261.201C340.781 253.46 351.102 232.818 351.102 232.818C351.102 232.818 358.374 210.735 357.574 204.13C356.912 212.593 351.102 230.238 351.102 230.238Z" fill="black"/>
<path opacity="0.1" d="M252.352 320.598C251.914 316.535 251.087 312.523 249.883 308.617C248.864 305.052 247.647 301.143 246.387 295.819C245.78 293.163 244.981 290.554 243.996 288.014C243.966 287.937 243.936 287.859 243.91 287.786C241.76 282.449 239.609 280.725 238.38 280.166C237.218 279.661 236.112 279.038 235.077 278.308C231.103 275.44 222.575 269.01 214.981 261.416C204.66 251.095 194.339 226.583 194.339 226.583C193.957 224.513 193.745 222.416 193.702 220.312C193.597 223.277 193.811 226.244 194.339 229.163C194.339 229.163 204.66 253.675 214.981 263.996C222.575 271.591 231.103 278.02 235.077 280.888C236.12 281.62 237.235 282.242 238.405 282.746C239.631 283.305 241.777 285.03 243.936 290.366C243.961 290.439 243.992 290.517 244.022 290.594C245.003 293.135 245.797 295.744 246.4 298.4C247.66 303.723 248.877 307.633 249.896 311.198C251.1 315.103 251.927 319.115 252.364 323.179C252.545 324.976 252.653 326.933 252.683 329.135C252.735 326.285 252.624 323.435 252.352 320.598Z" fill="black"/>
</g>
<path d="M294.943 301.918C294.286 303.003 293.711 304.136 293.222 305.306C292.573 307.113 292.569 309.078 292.448 310.992C292.277 313.677 291.868 316.342 291.227 318.956C291.123 319.437 290.98 319.909 290.797 320.366C290.669 320.674 290.499 320.964 290.294 321.227C290.065 321.507 289.795 321.752 289.494 321.953C289.033 322.261 288.545 322.527 288.036 322.749C282.05 325.544 275.522 328.013 268.99 327.049C266.228 326.566 263.556 325.667 261.064 324.383C258.699 323.235 256.024 321.872 253.573 322.826C253.196 323.017 252.791 323.144 252.373 323.2C252.292 323.202 252.211 323.195 252.132 323.179C251.323 323.024 251.323 320.298 251.139 319.493C250.433 316.406 250.326 313.903 249.904 311.219C249.68 309.735 249.334 308.273 248.868 306.846C247.148 301.642 246.627 296.095 246.627 290.642C246.627 290.371 244.692 290.642 244.047 290.616C243.884 290.616 243.793 290.59 243.832 290.534C243.869 290.481 243.913 290.432 243.961 290.388C244.186 290.205 244.449 290.075 244.731 290.005L245.238 289.855C247.896 289.102 250.829 288.788 252.816 286.918C254.88 284.987 255.396 281.903 255.306 279.082C255.28 278.175 254.837 275.973 254.91 274.145C255.659 274.269 256.417 274.334 257.176 274.339C257.537 274.351 257.895 274.279 258.223 274.13C258.551 273.981 258.84 273.758 259.069 273.479C259.786 274.868 260.407 276.305 260.926 277.779C261.657 279.577 262.216 281.469 263.287 283.095C265.007 285.744 268.181 287.485 271.338 287.219C274.494 286.952 277.431 284.527 277.995 281.413C278.489 278.682 277.341 274.752 277.367 271.914C279.045 272.406 280.821 272.464 282.527 272.081C282.6 272.257 282.662 272.436 282.712 272.619C283.68 275.939 284.97 279.749 288.217 280.927C290.315 281.684 292.797 281.116 294.736 282.217C294.885 282.303 295.029 282.398 295.166 282.501C295.614 282.834 296 283.243 296.306 283.71C297.103 285.025 297.576 286.511 297.686 288.044C298.183 292.839 297.227 297.673 294.943 301.918Z" fill="#725095"/>
<path opacity="0.1" d="M273.161 267.316C271.016 268.143 268.706 268.453 266.419 268.223C264.131 267.992 261.93 267.226 259.993 265.987C259.835 264.595 259.599 263.212 259.288 261.846C259.288 261.846 273.264 253.03 272.834 263.781C272.768 264.969 272.878 266.16 273.161 267.316Z" fill="black"/>
<path d="M267.885 267.437C275.96 267.437 282.506 260.891 282.506 252.816C282.506 244.74 275.96 238.194 267.885 238.194C259.81 238.194 253.263 244.74 253.263 252.816C253.263 260.891 259.81 267.437 267.885 267.437Z" fill="#FABDBD"/>
<path d="M255.31 255.237C254.88 252.553 254.218 249.173 256.463 247.638C257.263 247.152 258.189 246.913 259.125 246.95C263.774 246.902 268.216 250.141 272.774 249.194C274.225 248.89 275.557 248.174 276.61 247.131C277.663 246.088 278.393 244.763 278.711 243.315C279.029 241.867 278.922 240.359 278.403 238.97C277.884 237.582 276.974 236.373 275.785 235.489C273.991 234.156 271.725 233.674 269.532 233.223C263.765 232.036 257.744 230.853 252.051 232.363C246.357 233.872 241.153 238.977 241.609 244.834C241.824 247.638 243.252 250.184 244.744 252.575C245.879 254.389 250.3 262.896 252.446 263.025C255.474 263.201 255.607 256.991 255.31 255.237Z" fill="#3F3D56"/>
<path d="M291.541 335.813C291.541 335.813 261.868 343.124 251.977 335.813C251.977 335.813 247.677 352.585 248.967 361.185C248.967 361.185 270.039 362.476 272.189 363.766C272.189 363.766 272.619 360.325 274.77 362.046C274.77 362.046 282.08 353.445 295.412 361.185C295.412 361.185 297.992 340.973 291.541 335.813Z" fill="#725095"/>
<path opacity="0.1" d="M275.793 235.489C275.487 235.267 275.167 235.066 274.834 234.887C275.722 235.896 276.329 237.12 276.595 238.437C276.861 239.754 276.776 241.118 276.35 242.392C275.924 243.666 275.171 244.806 274.166 245.698C273.161 246.59 271.94 247.202 270.624 247.474C266.066 248.42 261.623 245.182 256.974 245.229C256.039 245.193 255.113 245.432 254.313 245.918C252.068 247.453 252.726 250.833 253.156 253.516C253.44 255.271 253.323 261.481 250.305 261.313H250.253C251.083 262.324 251.857 263.007 252.455 263.033C255.465 263.201 255.59 257.013 255.306 255.237C254.876 252.553 254.218 249.173 256.463 247.638C257.263 247.152 258.189 246.913 259.125 246.95C263.773 246.902 268.216 250.141 272.774 249.194C274.225 248.89 275.557 248.174 276.61 247.131C277.663 246.088 278.393 244.763 278.711 243.315C279.029 241.867 278.922 240.359 278.403 238.97C277.883 237.582 276.974 236.373 275.785 235.489H275.793Z" fill="black"/>
</g>
<defs>
<linearGradient id="paint0_linear_27_554" x1="-437891" y1="20425.2" x2="-478693" y2="20425.2" gradientUnits="userSpaceOnUse">
<stop stop-color="#808080" stop-opacity="0.25"/>
<stop offset="0.54" stop-color="#808080" stop-opacity="0.12"/>
<stop offset="1" stop-color="#808080" stop-opacity="0.1"/>
</linearGradient>
<linearGradient id="paint1_linear_27_554" x1="-493732" y1="344821" x2="-493732" y2="89387.9" gradientUnits="userSpaceOnUse">
<stop stop-color="#808080" stop-opacity="0.25"/>
<stop offset="0.54" stop-color="#808080" stop-opacity="0.12"/>
<stop offset="1" stop-color="#808080" stop-opacity="0.1"/>
</linearGradient>
<clipPath id="clip0_27_554">
<rect width="713.684" height="531.09" fill="white"/>
</clipPath>
</defs>
</svg>
