<svg width="368" height="402" viewBox="0 0 368 402" fill="none" xmlns="http://www.w3.org/2000/svg">
<path d="M95.1559 158.73C95.3593 161.354 96.3697 164.07 98.4954 165.619C100.621 167.167 104.003 167.138 105.627 165.058C106.172 164.277 106.573 163.405 106.811 162.483C108.179 158.159 109.15 153.429 107.651 149.148C104.269 148.928 100.349 147.337 97.8098 150.132C95.7595 152.408 94.9197 155.695 95.1559 158.73Z" fill="#3F3D56"/>
<path d="M110.858 132.279C110.408 136.095 109.644 139.893 109.723 143.735C109.752 145.218 109.91 146.687 109.913 148.177C109.919 152.044 108.9 155.843 106.961 159.189C106.756 159.582 106.483 159.936 106.154 160.232C105.376 160.862 104.205 160.809 103.332 160.327C102.48 159.797 101.787 159.045 101.328 158.152C98.8841 153.966 98.8152 148.879 97.8475 144.132C97.1061 140.5 95.8071 136.98 95.338 133.306C95.0329 130.941 95.0788 128.53 94.5933 126.194C94.4457 125.489 94.0324 124.429 93.7601 123.389C93.5108 122.461 93.373 121.549 93.6288 120.923C94.1504 119.64 95.8596 120.139 96.9716 120.217C100.888 120.508 104.821 120.498 108.735 120.188C109.122 120.158 109.562 120.142 109.834 120.417C109.953 120.557 110.042 120.718 110.097 120.893C110.408 121.746 110.647 122.624 110.809 123.517C111.35 126.375 111.199 129.37 110.858 132.279Z" fill="#FABDBD"/>
<g opacity="0.1">
<path opacity="0.1" d="M109.349 120.188C109.147 120.166 108.944 120.166 108.742 120.188C106.865 120.338 104.986 120.414 103.109 120.424C105.189 120.428 107.269 120.349 109.349 120.188Z" fill="black"/>
<path opacity="0.1" d="M103.995 160.328C103.143 159.797 102.45 159.046 101.991 158.153C99.547 153.967 99.4781 148.879 98.5104 144.132C97.769 140.501 96.47 136.981 96.0009 133.307C95.6958 130.941 95.7417 128.53 95.2562 126.195C95.1086 125.489 94.6953 124.43 94.423 123.39C94.1737 122.461 94.0359 121.549 94.2918 120.923C94.4004 120.666 94.5834 120.447 94.8173 120.295C95.0511 120.143 95.3251 120.065 95.604 120.07C94.774 120.014 93.9637 120.113 93.6357 120.923C93.3798 121.549 93.5176 122.461 93.7669 123.39C94.0392 124.43 94.4525 125.489 94.6001 126.195C95.0856 128.53 95.0397 130.941 95.3448 133.307C95.8139 136.984 97.1129 140.504 97.8543 144.132C98.8221 148.879 98.8909 153.973 101.335 158.153C101.794 159.046 102.487 159.797 103.339 160.328C103.863 160.617 104.463 160.739 105.058 160.675C104.685 160.626 104.325 160.509 103.995 160.328Z" fill="black"/>
</g>
<path d="M123.26 152.398C121.292 156.335 121.62 161.912 121.62 161.912C121.948 175.033 116.699 202.589 116.699 202.589H112.107C112.107 202.589 111.451 172.081 112.107 169.457C112.763 166.832 111.779 157.647 110.794 144.853C110.063 135.34 112.054 126.719 113.124 122.937C113.491 121.624 113.747 120.906 113.747 120.906C113.747 120.906 121.292 109.753 125.556 115.001C126.541 116.222 127.062 118.685 127.243 121.795C127.826 132.056 124.769 149.377 123.26 152.398Z" fill="#FABDBD"/>
<path opacity="0.1" d="M127.244 121.795C127.064 118.685 126.549 116.218 125.558 115.001C124.607 113.833 123.491 113.479 122.337 113.633C123.232 113.782 124.034 114.272 124.574 115.001C125.558 116.221 126.08 118.685 126.26 121.795C126.844 132.056 123.787 149.377 122.278 152.398C120.309 156.335 120.637 161.911 120.637 161.911C120.966 175.033 115.717 202.589 115.717 202.589H116.701C116.701 202.589 121.95 175.033 121.622 161.911C121.622 161.911 121.294 156.335 123.262 152.398C124.771 149.377 127.828 132.056 127.244 121.795Z" fill="black"/>
<path d="M109.72 201.392C109.354 201.679 109.037 202.025 108.782 202.415C108.195 203.524 109.028 204.849 109.921 205.732C110.813 206.614 111.889 207.559 111.889 208.815C111.889 209.826 111.125 210.692 110.268 211.23C109.809 211.518 109.232 211.886 109.327 212.43C109.36 212.568 109.419 212.698 109.501 212.814C110.236 213.939 111.538 214.599 112.857 214.848C114.175 215.097 115.537 214.989 116.878 214.881C117.079 214.888 117.276 214.82 117.43 214.691C117.527 214.56 117.579 214.401 117.577 214.238C117.643 213.542 117.6 212.808 117.905 212.181C118.332 211.325 119.312 210.888 119.873 210.121C120.661 209.071 120.553 207.611 120.254 206.335C119.598 203.557 118.138 200.388 115.947 198.462C113.408 196.251 111.416 199.794 109.72 201.392Z" fill="#3F3D56"/>
<path d="M119.658 36.0411C121.489 33.3052 121.013 29.4802 119.143 26.7575C117.274 24.0347 114.269 22.3223 111.169 21.2168C106.989 19.7275 102.38 19.219 98.0863 20.3376C94.668 21.2266 91.5975 23.0867 88.3761 24.5235C82.677 27.0663 76.4803 28.2994 70.2419 28.132C63.3168 27.9384 55.7292 26.1637 49.9195 29.9493C39.2843 36.8678 44.0147 55.6975 33.9536 63.4099C31.2407 65.4897 27.8257 66.3983 24.8077 68.0025C21.7897 69.6066 18.9292 72.3983 19.0013 75.8165C19.0341 77.4567 19.7558 79.0215 20.6416 80.4091C24.4141 86.3894 31.467 90.0897 38.5298 90.0208C45.5926 89.9519 52.4848 86.1958 56.5558 80.4157C57.5761 78.969 58.4749 77.3583 59.9544 76.3938C62.9068 74.4584 66.7974 75.8132 70.3206 76.1019C78.1641 76.7416 86.0109 70.8532 87.5724 63.1277C88.2285 59.8309 88.1137 55.8911 90.7676 53.8211C92.9097 52.1514 95.9244 52.5089 98.6406 52.2235C103.607 51.7085 107.527 48.6151 110.224 44.5736C111.461 42.7201 111.605 40.5058 113.291 39.046C115.108 37.4419 117.92 38.6261 119.658 36.0411Z" fill="#3F3D56"/>
<g opacity="0.1">
<path opacity="0.1" d="M63.6813 28.7647C66.558 28.8437 69.435 28.6238 72.2662 28.1086C71.4855 28.1316 70.6982 28.1316 69.9142 28.1086C64.4785 27.9577 58.636 26.8358 53.5645 28.1874C56.9105 28.2202 60.3714 28.6729 63.6813 28.7647Z" fill="black"/>
<path opacity="0.1" d="M53.3875 77.046C51.908 78.0104 51.0091 79.6211 49.9889 81.0678C46.8531 85.4693 42.2701 88.6288 37.041 89.9939C37.4248 90.0103 37.8086 90.0201 38.1957 90.0169C45.2651 89.948 52.1507 86.1919 56.2218 80.4117C57.242 78.965 58.1408 77.3543 59.6203 76.3899L59.8762 76.2324C57.5602 75.9142 55.2868 75.8027 53.3875 77.046Z" fill="black"/>
<path opacity="0.1" d="M118.812 26.7472C116.946 24.0376 113.938 22.3121 110.838 21.2065C106.658 19.7172 102.049 19.2088 97.7552 20.3274C97.6568 20.3504 97.5617 20.3799 97.4665 20.4061C99.9041 20.5421 102.309 21.0327 104.605 21.8626C107.705 22.9681 110.713 24.6937 112.58 27.4033C114.446 30.113 114.925 33.9642 113.095 36.687C111.356 39.2818 108.545 38.0976 106.704 39.6951C105.018 41.1549 104.874 43.3692 103.637 45.2227C101.318 48.6901 98.0898 51.4555 94.0713 52.5053C95.4524 52.3412 96.9089 52.3609 98.2867 52.2166C103.253 51.7015 107.173 48.6081 109.87 44.5666C111.107 42.7131 111.251 40.4988 112.937 39.039C114.777 37.4415 117.589 38.6257 119.327 36.0309C121.161 33.295 120.686 29.4569 118.812 26.7472Z" fill="black"/>
<path opacity="0.1" d="M92.0568 52.8729C89.357 53.155 86.3423 52.8007 84.1838 54.4704C81.5299 56.5404 81.6578 60.4802 80.9886 63.777C79.8372 69.5408 75.1593 74.2942 69.6055 76.0623L69.9958 76.0984C77.8394 76.7381 85.6862 70.8497 87.2477 63.1242C87.9038 59.8274 87.789 55.8876 90.4428 53.8176C91.0524 53.3618 91.744 53.0276 92.48 52.8335C92.3324 52.8368 92.1979 52.8597 92.0568 52.8729Z" fill="black"/>
</g>
<path d="M171.32 24.2971C171.32 24.2971 163.447 40.0433 160.823 45.9481C158.199 51.8529 134.251 60.71 130.971 61.0381C130.091 61.1587 129.271 61.5536 128.629 62.1666C126.775 63.8068 125.722 66.6148 125.722 66.6148C125.722 66.6148 127.034 75.472 125.394 90.234C125.361 90.5194 125.332 90.8048 125.306 91.0804C123.875 105.127 126.87 108.44 126.87 108.44C126.87 108.44 95.05 120.578 96.0342 104.832C96.3425 99.8752 96.2966 96.2536 95.9915 93.2258C95.6576 90.1261 95.0271 87.0657 94.1086 84.0865C93.3311 81.367 92.4027 78.3851 91.4416 74.3239C90.9789 72.2976 90.3693 70.3076 89.6176 68.3699C89.5947 68.3108 89.5717 68.2518 89.552 68.196C87.9118 64.125 86.2716 62.8095 85.3334 62.3831C84.4475 61.9977 83.6033 61.5229 82.814 60.9659C79.7829 58.7779 73.2778 53.8736 67.4845 48.0803C59.6114 40.2073 51.7384 21.5088 51.7384 21.5088C51.7384 21.5088 49.4421 10.6833 54.6908 1.8261C59.9395 -7.0311 57.6432 19.2124 57.6432 19.2124C57.6432 19.2124 67.1564 32.0062 69.4528 37.911C70.6337 40.9487 72.5101 42.5036 74.0454 43.3106C76.5818 44.6309 79.0103 46.149 81.3083 47.8507C82.8614 49.0244 84.4934 50.0898 86.1929 51.0393C89.8604 53.0076 94.2529 55.2284 97.9139 55.8123C98.4854 55.9068 99.0634 55.9561 99.6427 55.96C99.9175 55.9687 100.191 55.9141 100.441 55.8003C100.691 55.6866 100.912 55.5167 101.086 55.3039C102.07 54.1459 102.047 51.6527 101.821 49.6025C101.7 48.5403 101.52 47.4857 101.283 46.4434C101.283 46.4434 111.944 39.7185 111.616 47.9196C111.565 48.8258 111.649 49.7346 111.866 50.6161C112.04 51.4253 112.426 52.1735 112.985 52.7845C113.543 53.3954 114.254 53.8471 115.044 54.0934C116.325 54.4689 117.679 54.5129 118.981 54.2213C119.387 54.152 119.779 54.018 120.142 53.8244C121.126 53.1683 130.968 50.2159 133.92 49.8879C136.872 49.5598 151.634 42.3428 151.634 42.3428L167.709 20.0358C167.709 20.0358 167.381 6.91407 173.941 1.66536C180.502 -3.58335 171.32 24.2971 171.32 24.2971Z" fill="#FABDBD"/>
<g opacity="0.1">
<path opacity="0.1" d="M125.307 89.1117C125.02 91.7478 124.894 94.3989 124.93 97.0504C124.962 95.3183 125.077 93.3402 125.307 91.08C125.333 90.8044 125.363 90.519 125.395 90.2336C125.969 85.1816 126.243 80.1 126.216 75.0156C126.165 79.4432 125.891 83.8654 125.395 88.2653C125.376 88.5507 125.333 88.8361 125.307 89.1117Z" fill="black"/>
<path opacity="0.1" d="M101.625 46.2332C101.405 46.3611 101.297 46.4399 101.297 46.4399C101.616 47.8432 101.826 49.2689 101.927 50.7044C101.993 49.2074 101.892 47.7077 101.625 46.2332Z" fill="black"/>
<path opacity="0.1" d="M57.7989 17.4304C57.9597 15.1341 58.1991 11.0172 58.1532 7.3562C58.0974 12.2506 57.6611 17.2435 57.6611 17.2435L57.7989 17.4304Z" fill="black"/>
<path opacity="0.1" d="M96.0571 104.448C96.0571 104.576 96.057 104.704 96.0341 104.832C95.05 120.578 126.87 108.44 126.87 108.44C126.498 107.937 126.217 107.373 126.04 106.774C121.248 108.479 97.1626 116.412 96.0571 104.448Z" fill="black"/>
<path opacity="0.1" d="M171.321 22.3285C171.321 22.3285 163.448 38.0746 160.823 43.9794C158.199 49.8842 134.252 58.7414 130.971 59.0694C130.091 59.1901 129.272 59.5849 128.629 60.1979C126.776 61.8381 125.723 64.6462 125.723 64.6462C125.723 64.6462 125.801 65.1809 125.897 66.1978C126.264 65.3547 127.209 63.4193 128.629 62.1662C129.272 61.5532 130.091 61.1583 130.971 61.0377C134.252 60.7096 158.199 51.8525 160.823 45.9477C163.448 40.0429 171.321 24.2967 171.321 24.2967C171.321 24.2967 176.868 7.45166 176.258 2.4129C175.753 8.86881 171.321 22.3285 171.321 22.3285Z" fill="black"/>
<path opacity="0.1" d="M95.9929 91.257C95.659 88.1573 95.0284 85.0968 94.1099 82.1176C93.3325 79.3981 92.4041 76.4162 91.4429 72.355C90.9803 70.3287 90.3707 68.3388 89.619 66.401C89.596 66.342 89.5731 66.2829 89.5534 66.2272C87.9132 62.1561 86.273 60.8407 85.3347 60.4142C84.4489 60.0289 83.6047 59.554 82.8154 58.9971C79.7842 56.809 73.2791 51.9048 67.4859 46.1115C59.6128 38.2384 51.7397 19.5399 51.7397 19.5399C51.4488 17.9614 51.2864 16.3618 51.2542 14.757C51.1741 17.0183 51.3368 19.2816 51.7397 21.5082C51.7397 21.5082 59.6128 40.2067 67.4859 48.0798C73.2791 53.873 79.7842 58.7773 82.8154 60.9653C83.6109 61.5235 84.4618 61.9983 85.3544 62.3825C86.2894 62.8089 87.9263 64.1244 89.5731 68.1954C89.5928 68.2512 89.6157 68.3102 89.6387 68.3693C90.387 70.3073 90.9933 72.2973 91.4528 74.3233C92.4139 78.3845 93.3423 81.3664 94.1198 84.0859C95.0383 87.0651 95.6688 90.1256 96.0027 93.2252C96.1405 94.5964 96.2225 96.0891 96.2455 97.7686C96.2852 95.595 96.2009 93.4209 95.9929 91.257Z" fill="black"/>
</g>
<path d="M128.478 77.0072C127.977 77.8352 127.539 78.6992 127.166 79.5922C126.671 80.97 126.667 82.4691 126.576 83.9289C126.445 85.9776 126.133 88.0106 125.644 90.0043C125.565 90.3715 125.455 90.7314 125.316 91.0803C125.218 91.3152 125.089 91.5358 124.932 91.7364C124.757 91.9503 124.552 92.1371 124.322 92.2908C123.97 92.5255 123.598 92.7286 123.21 92.8977C118.643 95.0299 113.664 96.9129 108.681 96.1781C106.574 95.8098 104.536 95.124 102.635 94.1442C100.831 93.2683 98.7903 92.2284 96.9204 92.9567C96.6334 93.1024 96.324 93.1988 96.0051 93.2421C95.9435 93.2432 95.8819 93.2377 95.8214 93.2257C95.2047 93.1076 95.2047 91.0278 95.0637 90.4144C94.5257 88.059 94.4437 86.1498 94.1222 84.1028C93.9513 82.9708 93.6869 81.8549 93.3316 80.7666C92.0194 76.7972 91.6225 72.5655 91.6225 68.4059C91.6225 68.1992 90.1463 68.4059 89.6542 68.3862C89.5296 68.3862 89.4607 68.3665 89.4902 68.3239C89.5187 68.2831 89.5517 68.2457 89.5886 68.2123C89.7604 68.0729 89.9609 67.9732 90.1758 67.9204L90.5629 67.8055C92.5902 67.2315 94.8275 66.992 96.343 65.565C97.9177 64.0921 98.3113 61.74 98.2424 59.588C98.2227 58.8959 97.8848 57.2163 97.9406 55.8221C98.5121 55.9165 99.0902 55.9659 99.6694 55.9697C99.9442 55.9785 100.217 55.9238 100.468 55.8101C100.718 55.6963 100.939 55.5264 101.113 55.3136C101.66 56.3732 102.134 57.4693 102.53 58.5941C103.088 59.9653 103.514 61.4087 104.331 62.6487C105.643 64.6694 108.064 65.998 110.472 65.7946C112.88 65.5913 115.12 63.7411 115.55 61.366C115.927 59.283 115.051 56.2846 115.071 54.1195C116.351 54.495 117.706 54.539 119.008 54.2475C119.063 54.3812 119.11 54.5181 119.149 54.6575C119.887 57.19 120.871 60.0965 123.348 60.9954C124.949 61.5727 126.841 61.1397 128.321 61.9795C128.434 62.0448 128.544 62.1172 128.649 62.196C128.99 62.4499 129.285 62.762 129.518 63.1178C130.126 64.1211 130.487 65.2544 130.571 66.4245C130.95 70.0821 130.221 73.7691 128.478 77.0072Z" fill="#725095"/>
<path opacity="0.1" d="M111.864 50.6123C110.228 51.2431 108.466 51.48 106.721 51.3039C104.976 51.1278 103.297 50.5436 101.819 49.5987C101.698 48.5365 101.519 47.4819 101.281 46.4396C101.281 46.4396 111.943 39.7147 111.615 47.9158C111.564 48.822 111.648 49.7308 111.864 50.6123Z" fill="black"/>
<path d="M107.84 50.7047C114 50.7047 118.994 45.7111 118.994 39.5512C118.994 33.3913 114 28.3977 107.84 28.3977C101.68 28.3977 96.6865 33.3913 96.6865 39.5512C96.6865 45.7111 101.68 50.7047 107.84 50.7047Z" fill="#FABDBD"/>
<path d="M98.2481 41.3982C97.9201 39.3512 97.4149 36.7727 99.1273 35.6016C99.738 35.2313 100.444 35.0488 101.158 35.0768C104.704 35.0407 108.093 37.5108 111.57 36.7891C112.677 36.5572 113.693 36.0106 114.496 35.215C115.299 34.4193 115.856 33.4086 116.098 32.3042C116.341 31.1999 116.259 30.049 115.863 28.9899C115.467 27.9308 114.774 27.0087 113.866 26.3344C112.498 25.3174 110.77 24.95 109.097 24.6056C104.698 23.7002 100.105 22.7981 95.7616 23.9495C91.4183 25.1009 87.4489 28.9948 87.7967 33.4628C87.9607 35.6016 89.0498 37.5437 90.1881 39.3676C91.0541 40.7519 94.4264 47.2406 96.0634 47.3391C98.3728 47.4736 98.4745 42.7366 98.2481 41.3982Z" fill="#3F3D56"/>
<path d="M125.884 102.863C125.884 102.863 103.249 108.44 95.7041 102.863C95.7041 102.863 92.4237 115.657 93.4078 122.218C93.4078 122.218 109.482 123.202 111.122 124.186C111.122 124.186 111.45 121.562 113.09 122.874C113.09 122.874 118.667 116.313 128.837 122.218C128.837 122.218 130.805 106.8 125.884 102.863Z" fill="#725095"/>
<path opacity="0.1" d="M113.873 26.3344C113.64 26.1652 113.395 26.0118 113.142 25.8751C113.819 26.6447 114.282 27.5784 114.485 28.583C114.688 29.5876 114.623 30.6279 114.298 31.5999C113.973 32.5719 113.399 33.4416 112.632 34.1219C111.865 34.8023 110.934 35.2695 109.93 35.4769C106.453 36.1986 103.064 33.7285 99.518 33.7646C98.8043 33.7366 98.0981 33.9191 97.4874 34.2894C95.775 35.4605 96.2769 38.039 96.6049 40.086C96.8214 41.4244 96.7329 46.1613 94.43 46.0334H94.3906C95.0238 46.8043 95.6142 47.3259 96.0702 47.3456C98.3665 47.4735 98.4617 42.753 98.2451 41.3981C97.9171 39.3511 97.4152 36.7727 99.1276 35.6016C99.7383 35.2313 100.444 35.0488 101.158 35.0767C104.704 35.0406 108.093 37.5108 111.57 36.7891C112.677 36.5572 113.693 36.0106 114.496 35.2149C115.3 34.4193 115.856 33.4085 116.099 32.3042C116.341 31.1998 116.26 30.0489 115.864 28.9899C115.468 27.9308 114.774 27.0087 113.867 26.3344H113.873Z" fill="black"/>
<g clip-path="url(#clip0_27_3394)">
<path opacity="0.1" d="M76.1105 115.593C74.2887 117.929 73.5873 121.22 72.8028 124.31C66.4865 149.216 50.9218 169.251 33.1963 183.566C25.6899 189.629 16.5513 197.758 18.1935 208.622C19.0778 214.461 22.9573 218.756 25.8395 223.509C28.8402 228.535 30.8626 234.34 31.7512 240.476C32.6399 246.613 32.3711 252.918 30.9657 258.907C27.6879 272.467 18.5259 285.115 21.3616 298.826C23.1102 307.277 29.0475 313.271 34.7555 318.424C43.6603 326.473 52.8488 334.011 62.321 341.039C68.6706 345.751 75.4257 350.336 82.8257 350.932C89.3414 351.458 95.7242 348.841 101.911 346.253C107.316 343.995 112.858 341.639 117.223 337.111C120.072 334.155 122.342 330.342 125.507 327.921C132.94 322.237 142.488 325.838 151.012 328.259C171.285 333.954 192.492 331.9 211.788 322.372C241.145 307.78 263.521 277.137 292.237 260.696C304.584 253.624 318.014 249.235 329.447 240.13C335.745 235.108 341.28 228.772 345.803 221.41C354.446 207.304 359.12 189.322 357.77 171.725C356.421 154.128 348.858 137.163 336.98 127.222C324.264 116.606 308.204 114.601 293.736 108.212C278.797 101.618 265.506 90.2754 250.709 83.2038C226.518 71.6573 198.64 72.3269 174.821 85.037C158.717 93.6356 142.395 113.736 124.46 115.25C111.681 116.324 86.0869 102.781 76.1105 115.593Z" fill="#725095"/>
<path opacity="0.1" d="M257.861 401.012C315.409 401.012 362.061 393.981 362.061 385.309C362.061 376.636 315.409 369.605 257.861 369.605C200.313 369.605 153.661 376.636 153.661 385.309C153.661 393.981 200.313 401.012 257.861 401.012Z" fill="#725095"/>
<path d="M323.371 308.077C323.371 308.077 327.834 313.916 321.311 322.727C314.787 331.538 309.407 338.979 311.583 344.474C311.583 344.474 321.435 328.107 329.437 327.876C337.438 327.644 332.186 317.921 323.371 308.077Z" fill="#FC6681"/>
<path opacity="0.1" d="M323.373 308.077C323.762 308.641 324.069 309.257 324.285 309.906C332.103 319.09 336.279 327.662 328.753 327.897C321.754 328.098 313.358 340.615 311.345 343.776C311.411 344.02 311.491 344.26 311.585 344.496C311.585 344.496 321.437 328.128 329.438 327.897C337.44 327.666 332.188 317.921 323.373 308.077Z" fill="black"/>
<path d="M331.67 315.535C331.67 317.591 331.438 319.253 331.156 319.253C330.873 319.253 330.642 317.587 330.642 315.535C330.642 313.483 330.929 314.447 331.216 314.447C331.503 314.447 331.67 313.462 331.67 315.535Z" fill="#FFD037"/>
<path d="M334.517 317.968C332.714 318.953 331.142 319.545 331.005 319.296C330.868 319.048 332.221 318.045 334.003 317.064C335.785 316.084 335.095 316.799 335.232 317.064C335.37 317.33 336.32 316.987 334.517 317.968Z" fill="#FFD037"/>
<path d="M299.797 308.077C299.797 308.077 295.333 313.916 301.857 322.727C308.381 331.538 313.761 338.979 311.585 344.474C311.585 344.474 301.733 328.107 293.731 327.876C285.73 327.644 290.981 317.921 299.797 308.077Z" fill="#FC6681"/>
<path opacity="0.1" d="M299.797 308.077C299.408 308.641 299.1 309.257 298.884 309.906C291.067 319.09 286.891 327.662 294.417 327.897C301.416 328.098 309.812 340.615 311.825 343.776C311.758 344.02 311.678 344.26 311.585 344.496C311.585 344.496 301.733 328.128 293.731 327.897C285.73 327.666 290.981 317.921 299.797 308.077Z" fill="black"/>
<path d="M291.495 315.535C291.495 317.591 291.726 319.253 292.009 319.253C292.292 319.253 292.523 317.587 292.523 315.535C292.523 313.483 292.236 314.447 291.949 314.447C291.662 314.447 291.495 313.462 291.495 315.535Z" fill="#FFD037"/>
<path d="M288.65 317.968C290.453 318.953 292.025 319.545 292.162 319.296C292.299 319.048 290.946 318.045 289.164 317.064C287.382 316.084 288.071 316.799 287.934 317.064C287.797 317.33 286.833 316.987 288.65 317.968Z" fill="#FFD037"/>
<path d="M292.916 343.712C292.916 343.712 305.398 343.326 309.159 340.649C312.92 337.972 328.358 334.772 329.291 339.069C330.225 343.365 348.049 360.43 333.956 360.546C319.863 360.662 301.217 358.353 297.461 356.065C293.704 353.778 292.916 343.712 292.916 343.712Z" fill="#A8A8A8"/>
<path opacity="0.2" d="M334.21 359.046C320.121 359.162 301.471 356.853 297.714 354.566C294.857 352.822 293.718 346.577 293.337 343.694H292.908C292.908 343.694 293.701 353.761 297.453 356.048C301.205 358.335 319.856 360.644 333.948 360.528C338.018 360.494 339.423 359.051 339.345 356.905C338.784 358.215 337.234 359.025 334.21 359.046Z" fill="black"/>
<path d="M105.307 116.002C104.095 114.023 102.283 112.211 102.566 109.966C105.89 110.348 109.042 109.538 112.088 108.133C115.133 106.728 117.96 104.891 120.809 103.096C121.931 102.389 123.049 101.695 124.163 101.053C125.928 100.037 127.68 98.9108 129.475 97.9213C132.045 96.5077 134.67 95.3512 137.553 95.1285C138.071 95.0899 138.598 95.0813 139.125 95.0899C142.68 95.1627 146.364 96.1137 149.491 94.5202L149.684 94.4174C151.453 93.445 152.747 91.7873 154.267 90.4509C155.36 89.5052 156.551 88.6781 157.818 87.9836C160.123 86.6986 162.624 85.6705 164.989 84.4583C165.592 84.1438 166.166 83.7753 166.702 83.3574L167.105 83.0362L167.195 82.9591L167.486 82.7106L167.67 82.5479L167.859 82.3765L168.004 82.2394L168.24 82.0167L168.266 81.991L168.643 81.6183L168.793 81.4684L169.054 81.2028L169.208 81.0443L169.996 80.2348C170.305 79.9221 170.622 79.6137 170.947 79.3138L171.256 79.0397L171.346 78.9626L171.594 78.7527L171.714 78.6542L171.958 78.4657L172.078 78.3715L172.446 78.1059C172.561 78.0279 172.681 77.9591 172.806 77.9003L172.035 75.947L174.34 74.9961L206.119 152.12L203.814 153.071L185.631 108.951L185.503 109.08C181.29 113.234 176.132 116.303 170.472 118.024H170.438C167.272 118.979 163.73 119.656 161.065 121.45C160.12 122.065 159.3 122.851 158.645 123.768C158.02 124.659 157.583 125.674 156.91 126.531C156.786 126.689 156.649 126.843 156.512 126.989C155.733 127.76 154.871 128.442 153.942 129.024L153.513 129.302C150.754 131.245 147.879 133.019 144.904 134.614C143.187 135.507 141.397 136.253 139.554 136.841C138.213 137.269 136.829 137.582 135.489 138.006C134.585 138.278 133.708 138.631 132.867 139.06C130.597 140.246 128.853 142.105 127.204 144.089C125.761 145.828 124.39 147.665 122.805 149.25C121.816 150.24 120.304 151.169 119.1 150.591C119.017 150.549 118.937 150.502 118.86 150.45C118.894 150.385 118.929 150.321 118.959 150.253C119.905 148.269 118.74 145.819 117.172 144.226C117.01 144.063 116.843 143.9 116.671 143.742C116.5 143.583 116.196 143.313 115.947 143.099C114.607 141.947 113.18 140.876 112.251 139.39C111.542 138.141 111.061 136.776 110.828 135.359C110.4 133.341 110.117 131.264 109.021 129.546C108.297 128.411 107.23 127.443 106.451 126.355C105.957 125.713 105.633 124.958 105.508 124.158C105.333 122.761 105.98 121.399 106.224 120.011C106.295 119.633 106.324 119.248 106.309 118.863C106.223 117.84 105.878 116.855 105.307 116.002Z" fill="url(#paint0_linear_27_3394)"/>
<path d="M202.984 152.447L205.253 151.511L173.999 75.6839L171.73 76.6193L202.984 152.447Z" fill="#D6D8E1"/>
<path d="M109.793 129.285C110.872 130.973 111.155 133.016 111.571 134.999C111.8 136.392 112.274 137.733 112.971 138.961C113.888 140.422 115.289 141.48 116.604 142.611C116.844 142.816 117.084 143.039 117.315 143.24C117.546 143.442 117.649 143.553 117.807 143.716C119.349 145.279 120.493 147.687 119.564 149.64C119.534 149.704 119.504 149.768 119.465 149.833C119.541 149.884 119.619 149.929 119.701 149.97C120.883 150.54 122.369 149.623 123.342 148.65C124.901 147.091 126.25 145.284 127.668 143.575C129.287 141.621 131.005 139.797 133.237 138.627C134.061 138.206 134.921 137.859 135.807 137.591C137.122 137.162 138.484 136.858 139.803 136.443C141.617 135.865 143.378 135.132 145.068 134.254C147.992 132.686 150.819 130.942 153.532 129.032L153.934 128.758C154.848 128.186 155.695 127.515 156.462 126.758C156.599 126.612 156.731 126.462 156.851 126.308C157.511 125.451 157.944 124.466 158.565 123.592C159.209 122.69 160.017 121.917 160.946 121.313C163.568 119.57 167.046 118.902 170.16 117.964H170.194C175.76 116.272 180.831 113.254 184.973 109.17C185.317 108.884 185.573 108.507 185.714 108.082C185.846 107.478 185.521 106.882 185.208 106.368C184.843 105.746 184.487 105.117 184.142 104.483C182.56 101.607 181.149 98.6406 179.914 95.5995C179.644 94.9355 179.383 94.2673 179.13 93.5948C178.482 91.8814 177.89 90.1437 177.356 88.3818C177.181 87.795 177.01 87.2124 176.847 86.6213C176.817 86.5099 176.787 86.39 176.753 86.2615C176.041 83.3701 175.091 76.7007 172.165 78.7011C171.292 79.321 170.482 80.0239 169.745 80.8C169.175 81.3783 168.618 81.9737 168.031 82.5477C167.554 83.0184 167.049 83.4604 166.519 83.8713C165.982 84.2826 165.409 84.6439 164.806 84.9507C162.484 86.1415 160.021 87.1396 157.755 88.4161C156.509 89.0986 155.339 89.9113 154.264 90.8405C152.769 92.1598 151.497 93.7876 149.758 94.7428L149.565 94.8413C146.49 96.4091 142.87 95.471 139.375 95.3982C138.856 95.3982 138.338 95.3982 137.828 95.4367C134.993 95.6552 132.397 96.7946 129.887 98.1824C128.122 99.1591 126.4 100.264 124.665 101.262C123.569 101.892 122.472 102.573 121.367 103.271C118.561 105.036 115.726 106.891 112.8 108.223C109.874 109.555 106.705 110.403 103.436 110.026C103.158 112.232 104.94 114.014 106.131 115.963C106.699 116.799 107.046 117.766 107.137 118.773C107.151 119.151 107.122 119.529 107.052 119.9C106.812 121.266 106.195 122.603 106.349 123.978C106.474 124.757 106.792 125.494 107.274 126.119C108.033 127.216 109.069 128.171 109.793 129.285Z" fill="#E6E8ED"/>
<path d="M166.51 83.875L168.9 89.5506L176.747 86.2438C176.041 83.3695 175.09 76.7002 172.164 78.7005C170.044 80.1484 168.609 82.2644 166.51 83.875Z" fill="#5A5773"/>
<path d="M149.761 94.7468L150.78 97.1712L159.836 93.3589L157.754 88.4158C156.508 89.0983 155.337 89.911 154.263 90.8402C152.759 92.1638 151.504 93.7915 149.761 94.7468Z" fill="#5A5773"/>
<path d="M129.895 98.1906L132.675 104.787L141.73 100.975L139.382 95.4064C138.864 95.4064 138.346 95.4064 137.836 95.4449C135 95.6591 132.405 96.7985 129.895 98.1906Z" fill="#5A5773"/>
<path d="M112.795 108.214L114.56 112.403L123.615 108.591L121.37 103.262C118.569 105.044 115.729 106.895 112.795 108.214Z" fill="#5A5773"/>
<path d="M163.651 102.398L172.708 98.5865L168.897 89.5293L159.84 93.3403L163.651 102.398Z" fill="#5A5773"/>
<path d="M145.538 110.018L154.595 106.207L150.784 97.1502L141.727 100.961L145.538 110.018Z" fill="#5A5773"/>
<path d="M127.427 117.643L136.484 113.832L132.673 104.775L123.616 108.586L127.427 117.643Z" fill="#5A5773"/>
<path d="M107.05 119.908L109.316 125.288L118.371 121.476L114.559 112.421L106.129 115.967C106.697 116.803 107.044 117.77 107.136 118.777C107.15 119.156 107.121 119.536 107.05 119.908Z" fill="#5A5773"/>
<path d="M172.713 98.6061L176.525 107.661L184.141 104.457C182.56 101.581 181.148 98.6146 179.913 95.5734L172.713 98.6061Z" fill="#5A5773"/>
<path d="M158.408 115.265L167.465 111.454L163.654 102.397L154.597 106.208L158.408 115.265Z" fill="#5A5773"/>
<path d="M140.291 122.888L149.349 119.077L145.538 110.02L136.48 113.831L140.291 122.888Z" fill="#5A5773"/>
<path d="M122.18 130.517L131.237 126.706L127.426 117.649L118.369 121.46L122.18 130.517Z" fill="#5A5773"/>
<path d="M167.466 111.474L170.194 117.955C173.345 116.997 176.349 115.61 179.121 113.834L176.521 107.657L167.466 111.474Z" fill="#5A5773"/>
<path d="M149.333 119.099L153.145 128.154L156.448 126.762C156.585 126.616 156.718 126.466 156.838 126.312C157.497 125.455 157.93 124.47 158.551 123.596C159.195 122.694 160.003 121.921 160.933 121.318L158.397 115.286L149.333 119.099Z" fill="#5A5773"/>
<path d="M135.051 135.756L144.108 131.945L140.297 122.887L131.24 126.698L135.051 135.756Z" fill="#5A5773"/>
<path d="M113.124 134.344L116.602 142.611C116.842 142.816 117.082 143.039 117.313 143.241L125.992 139.587L122.179 130.531L113.124 134.344Z" fill="#5A5773"/>
<path d="M111.571 134.999L113.126 134.343L109.314 125.288L107.271 126.145C108.029 127.216 109.078 128.167 109.789 129.28C110.873 130.972 111.156 133.016 111.571 134.999Z" fill="#5A5773"/>
<path d="M144.107 131.966L145.071 134.262C147.996 132.695 150.822 130.951 153.535 129.04L153.163 128.154L144.107 131.966Z" fill="#5A5773"/>
<path d="M125.998 139.591L127.677 143.579C129.296 141.626 131.014 139.801 133.246 138.631C134.07 138.21 134.93 137.863 135.816 137.595L135.049 135.779L125.998 139.591Z" fill="#5A5773"/>
<path d="M199.671 153.349L201.996 178.241C201.996 178.241 204.742 183.428 207.912 185.094C210.084 186.229 214.337 189.806 216.792 191.948L217.331 192.419C217.113 193.032 216.997 193.408 216.997 193.408C216.997 193.408 225.449 210.003 230.73 212.491C236.012 214.98 232.422 235.931 232.632 245.68C232.778 252.491 235.091 256.26 237.627 258.128C237.537 258.265 237.447 258.406 237.361 258.556C233.609 264.797 232.097 278.436 233.69 284.685C233.764 284.983 233.873 285.27 234.016 285.542C233.077 290.682 232.144 299.014 234.958 302.745C239.186 308.343 244.043 331.161 244.043 331.161C244.043 331.161 247.213 347.134 249.535 349.829C251.222 351.786 251.128 369.023 250.948 378.34C249.697 378.31 248.449 378.209 247.209 378.04C237.147 376.699 246.078 382.79 249.899 385.193C248.185 386.29 245.054 387.121 239.19 386.337C231.141 385.266 235.249 388.95 239.19 391.695C241.742 393.452 244.757 394.414 247.855 394.458L276.983 394.998C277.344 392.2 277.443 389.375 277.279 386.56L284.989 386.701C284.989 386.701 285.91 380.014 284.921 375.782L285.413 375.705L281.609 346.042C281.609 346.042 281.399 318.662 282.038 317.004C283.952 311.993 282.894 304.034 281.609 298.058C280.528 293.099 280.422 287.976 281.297 282.976C283.511 270.554 280.282 260.916 278.084 256.17C277.981 255.947 277.883 255.742 277.784 255.54C279.104 255.566 279.926 255.609 279.926 255.609C275.912 252.705 280.354 225.946 284.364 220.347C288.373 214.749 297.497 217.871 297.497 217.871C298.332 217.187 299.098 216.423 299.784 215.588H300.234C303.524 215.678 308.133 215.695 312.917 215.37C322.003 214.749 319.891 208.516 319.891 208.516L316.301 184.032C316.301 184.032 307.216 163.497 304.68 169.511C302.144 175.525 309.328 185.069 309.328 185.069C309.328 185.069 312.498 201.247 309.328 203.53C307.323 204.974 304.003 204.062 301.832 203.201C301.151 202.931 300.581 202.665 300.204 202.477L299.707 202.22C296.28 200.506 287.508 197.272 283.768 197.105C279.121 196.9 270.245 193.995 270.245 193.995C269.53 191.532 267.482 190.042 265.366 189.138C265.093 186.956 264.978 184.757 265.024 182.558C265.307 182.396 265.566 182.192 265.79 181.954C265.943 181.83 266.078 181.686 266.193 181.526C266.84 180.567 266.523 179.234 267.071 178.219C267.17 178.039 265.765 176.861 265.902 176.711C266.759 175.958 268.001 175.546 268.738 174.745C269.034 174.496 269.263 174.176 269.406 173.816C269.984 172.274 270.014 171.76 269.834 170.128C269.693 168.688 270.13 167.558 269.911 166.341C270.716 165.613 271.098 164.743 270.228 163.878C268.63 162.285 264.231 161.908 262.09 161.792C260.41 161.698 258.693 161.792 257.091 161.299C255.223 160.717 253.707 159.385 252.01 158.421C250.314 157.457 248.113 156.879 246.442 157.877C245.157 158.644 244.3 160.259 242.797 160.357C241.554 160.438 240.329 159.385 239.164 159.813L239.224 159.95C239.132 159.967 239.042 159.991 238.954 160.023C240.318 163.284 242.73 165.997 245.808 167.733C244.576 169.51 243.917 171.62 243.919 173.782C243.923 175.617 244.398 177.42 245.298 179.02C246.198 180.62 247.493 181.962 249.059 182.918C249.058 182.927 249.058 182.935 249.059 182.944L249.123 183.612C249.26 185.43 249.194 187.257 248.926 189.061L248.528 189.605C247.551 190.084 246.965 190.461 246.965 190.461C244.218 189.555 241.386 188.93 238.513 188.594C234.285 188.165 224.378 182.169 224.378 182.169C224.197 182.188 224.019 182.227 223.847 182.284L223.547 181.989C221.315 179.863 218.525 178.415 215.502 177.812C215.502 177.812 214.975 176.257 213.81 173.456C212.996 171.498 207.895 160.606 207.895 160.606C207.895 160.606 205.783 151.893 206.203 147.537C206.623 143.18 199.671 134.887 198.595 135.924C197.52 136.961 196.711 149.203 199.671 153.349ZM260.612 291.226L260.732 291.282C261.027 291.453 261.301 292.387 261.563 293.852C262.471 299.035 263.16 310.905 263.597 320.29C263.679 322.072 263.752 323.764 263.816 325.301C262.771 320.5 261.674 315.239 261.58 313.659C261.438 311.654 260.942 299.451 260.612 291.226Z" fill="url(#paint1_linear_27_3394)"/>
<path d="M259.848 372.989C259.848 372.989 259.642 378.515 247.567 376.879C235.492 375.243 251.662 384.863 251.662 384.863L284.216 385.476C284.216 385.476 286.131 371.34 281.351 371.34C281.141 371.353 259.848 372.989 259.848 372.989Z" fill="#4A4347"/>
<path opacity="0.1" d="M259.848 372.989C259.848 372.989 259.642 378.515 247.567 376.879C235.492 375.243 251.662 384.863 251.662 384.863L284.216 385.476C284.216 385.476 286.131 371.34 281.351 371.34C281.141 371.353 259.848 372.989 259.848 372.989Z" fill="black"/>
<path d="M234.468 284.763C234.638 285.427 234.973 286.038 235.44 286.54C240.182 291.787 258.807 290.198 260.67 291.312C260.953 291.483 261.222 292.404 261.475 293.882C262.353 298.997 263.026 310.712 263.446 319.973C263.771 327.165 263.947 332.879 263.947 332.879L264.988 377.701L277.041 375.817L284.623 374.647L280.939 345.374C280.939 345.374 280.734 318.354 281.368 316.713C283.227 311.757 282.19 303.863 280.939 297.981C279.893 293.107 279.79 288.078 280.635 283.165C282.777 270.875 279.659 261.366 277.53 256.676C277.035 255.566 276.463 254.492 275.816 253.463C275.816 253.463 245.725 253.035 240.4 256.329C239.406 257.018 238.591 257.934 238.023 259.002C234.395 265.14 232.926 278.599 234.468 284.763Z" fill="#5A5773"/>
<path d="M252.072 381.18C252.072 381.18 251.866 386.705 239.791 385.069C231.991 384.011 235.975 387.639 239.791 390.359C242.257 392.114 245.195 393.082 248.221 393.135L276.449 393.666C276.449 393.666 278.364 379.53 273.584 379.53C273.361 379.543 252.072 381.18 252.072 381.18Z" fill="#4A4347"/>
<path d="M294.243 216.39C294.243 216.39 296.081 216.527 298.955 216.608C302.142 216.698 306.61 216.715 311.244 216.39C320.047 215.777 317.999 209.635 317.999 209.635L314.521 185.48C314.521 185.48 305.719 165.215 303.264 171.152C300.81 177.089 307.766 186.504 307.766 186.504C307.766 186.504 310.837 202.473 307.766 204.721C305.821 206.148 302.626 205.248 300.484 204.396C299.777 204.113 299.088 203.789 298.42 203.423L294.243 216.39Z" fill="#A1616A"/>
<path d="M201.51 155.183L203.763 179.749C203.763 179.749 206.423 184.867 209.494 186.504C211.598 187.626 215.71 191.143 218.1 193.25C219.201 194.223 219.938 194.895 219.938 194.895L226.08 185.069C225.657 184.49 225.183 183.951 224.662 183.458C222.512 181.366 219.806 179.936 216.866 179.337C216.866 179.337 216.357 177.804 215.23 175.054C214.442 173.122 209.499 162.362 209.499 162.362C209.499 162.362 207.451 153.765 207.862 149.464C208.274 145.164 201.519 136.978 200.495 138.002C199.471 139.026 198.644 151.088 201.51 155.183Z" fill="#A1616A"/>
<path d="M247.364 197.353C247.364 197.353 269.471 200.425 266.606 195.512C265.818 194.162 265.355 192.205 265.098 190.08C264.421 184.477 265.175 177.701 265.175 177.701L248.594 180.566C249.546 183.748 249.779 187.102 249.275 190.384C248.951 192.782 248.309 195.126 247.364 197.353Z" fill="#A1616A"/>
<path d="M255.042 185.994C260.921 185.994 265.686 181.228 265.686 175.349C265.686 169.471 260.921 164.705 255.042 164.705C249.163 164.705 244.397 169.471 244.397 175.349C244.397 181.228 249.163 185.994 255.042 185.994Z" fill="#A1616A"/>
<path opacity="0.1" d="M238.026 258.993C239.008 259.809 240.177 260.368 241.427 260.621C244.704 261.233 255.349 262.463 259.444 259.186C262.691 256.59 273.275 256.564 277.516 256.667C277.022 255.557 276.449 254.483 275.802 253.454C275.802 253.454 245.711 253.026 240.387 256.32C239.399 257.011 238.59 257.927 238.026 258.993Z" fill="black"/>
<path opacity="0.1" d="M218.101 193.25C219.201 194.222 219.938 194.895 219.938 194.895L226.081 185.069C225.658 184.49 225.183 183.951 224.663 183.458C221.673 184.032 219.077 190.492 218.101 193.25Z" fill="black"/>
<path opacity="0.1" d="M294.243 216.39C294.243 216.39 296.081 216.527 298.955 216.608C303.478 211.181 301.075 205.818 300.501 204.396C299.794 204.114 299.105 203.789 298.437 203.424L294.243 216.39Z" fill="black"/>
<path opacity="0.1" d="M247.364 197.353C247.364 197.353 269.471 200.425 266.606 195.511C265.818 194.162 265.355 192.205 265.098 190.08C263.295 189.342 261.387 188.895 259.444 188.756C255.649 187.81 251.588 189.279 249.275 190.384C248.951 192.782 248.309 195.126 247.364 197.353Z" fill="black"/>
<path d="M259.446 189.172C259.446 189.172 268.249 189.601 269.885 195.315C269.885 195.315 278.482 198.181 282.989 198.386C287.495 198.592 299.57 203.505 299.776 204.323C299.981 205.141 304.059 212.308 296.297 218.857C296.297 218.857 287.495 215.786 283.605 221.311C279.716 226.837 275.415 253.245 279.322 256.111C279.322 256.111 263.559 255.292 259.464 258.565C255.369 261.838 244.724 260.612 241.447 260C238.17 259.387 233.668 255.905 233.463 246.293C233.257 236.681 236.74 215.996 231.621 213.541C226.502 211.087 218.316 194.694 218.316 194.694C218.316 194.694 221.593 184.049 225.483 183.638C225.483 183.638 235.103 189.575 239.19 189.982C241.976 190.313 244.72 190.931 247.38 191.824C247.38 191.824 253.715 187.729 259.446 189.172Z" fill="#605D82"/>
<path opacity="0.1" d="M266.405 333.688C266.405 333.688 264.662 325.978 263.445 319.981C263.771 327.173 263.946 332.887 263.946 332.887L264.987 377.701L277.041 375.816L266.405 333.688Z" fill="black"/>
<path d="M235.698 281.267C235.698 281.267 231.603 297.03 235.698 302.556C239.793 308.082 244.501 330.6 244.501 330.6C244.501 330.6 247.572 346.363 249.825 349.019C252.078 351.675 251.054 383 251.054 383L277.668 381.565L265.588 333.663C265.588 333.663 261.699 316.469 261.493 313.398C261.288 310.326 260.264 283.713 260.264 283.713L235.698 281.267Z" fill="#5A5773"/>
<path opacity="0.1" d="M248.595 170.496C246.573 169.742 244.729 168.575 243.181 167.071C241.632 165.567 240.413 163.758 239.6 161.758C240.73 161.33 241.917 162.375 243.121 162.294C244.577 162.195 245.404 160.58 246.65 159.843C248.274 158.858 250.407 159.415 252.047 160.383C253.688 161.351 255.157 162.649 256.969 163.223C258.52 163.716 260.186 163.617 261.814 163.711C263.878 163.827 268.136 164.195 269.683 165.772C270.539 166.629 270.154 167.485 269.374 168.205C269.584 169.408 269.16 170.518 269.297 171.94C269.498 173.17 269.331 174.432 268.817 175.568C268.23 177.166 267.404 178.421 266.603 179.924C266.072 180.927 266.376 182.242 265.746 183.188C265.409 183.631 264.967 183.982 264.461 184.212C261.441 185.827 257.926 186.25 254.609 185.399C253.495 185.107 252.347 184.611 251.752 183.625C250.762 181.985 251.752 179.894 251.649 177.98C251.533 175.273 249.25 173.058 248.595 170.496Z" fill="black"/>
<path d="M248.796 170.291C246.774 169.536 244.93 168.369 243.382 166.865C241.833 165.361 240.614 163.552 239.801 161.552C240.932 161.124 242.118 162.169 243.322 162.088C244.778 161.989 245.605 160.375 246.851 159.638C248.475 158.653 250.608 159.209 252.249 160.177C253.889 161.146 255.358 162.443 257.17 163.017C258.721 163.51 260.387 163.412 262.015 163.506C264.08 163.621 268.337 163.99 269.884 165.566C270.74 166.423 270.355 167.28 269.575 167.999C269.785 169.203 269.361 170.312 269.498 171.734C269.699 172.965 269.532 174.227 269.018 175.362C268.432 176.96 267.605 178.215 266.804 179.719C266.273 180.721 266.577 182.036 265.947 182.983C265.61 183.425 265.168 183.777 264.662 184.007C261.642 185.621 258.127 186.044 254.81 185.193C253.696 184.902 252.548 184.405 251.953 183.42C250.964 181.779 251.953 179.689 251.85 177.774C251.739 175.071 249.456 172.852 248.796 170.291Z" fill="#4A4347"/>
<path opacity="0.1" d="M250.946 184.559L249.456 185.085L249.387 184.37C249.387 184.37 249.31 184.764 250.946 184.559Z" fill="black"/>
</g>
<defs>
<linearGradient id="paint0_linear_27_3394" x1="-268872" y1="12613.1" x2="-293919" y2="12613.1" gradientUnits="userSpaceOnUse">
<stop stop-color="#808080" stop-opacity="0.25"/>
<stop offset="0.54" stop-color="#808080" stop-opacity="0.12"/>
<stop offset="1" stop-color="#808080" stop-opacity="0.1"/>
</linearGradient>
<linearGradient id="paint1_linear_27_3394" x1="-303151" y1="211745" x2="-303151" y2="54946.2" gradientUnits="userSpaceOnUse">
<stop stop-color="#808080" stop-opacity="0.25"/>
<stop offset="0.54" stop-color="#808080" stop-opacity="0.12"/>
<stop offset="1" stop-color="#808080" stop-opacity="0.1"/>
</linearGradient>
<clipPath id="clip0_27_3394">
<rect width="438.098" height="326.012" fill="white" transform="translate(-71 75)"/>
</clipPath>
</defs>
</svg>
