<svg width="293" height="157" viewBox="0 0 293 157" fill="none" xmlns="http://www.w3.org/2000/svg">
<g clip-path="url(#clip0_522_790)">
<path d="M291.104 155.637H127.957C127.454 155.636 126.972 155.436 126.617 155.081C126.261 154.725 126.061 154.243 126.061 153.741V2.23022C126.061 1.72751 126.261 1.24558 126.617 0.890106C126.972 0.534634 127.454 0.334642 127.957 0.333984H291.104C291.607 0.334642 292.089 0.534634 292.444 0.890106C292.8 1.24558 293 1.72751 293 2.23022V153.74C293 154.243 292.8 154.725 292.444 155.08C292.089 155.436 291.607 155.636 291.104 155.636V155.637ZM127.957 1.09099C127.656 1.09164 127.367 1.21162 127.154 1.42466C126.941 1.6377 126.821 1.92645 126.82 2.22774V153.74C126.821 154.041 126.941 154.33 127.154 154.543C127.367 154.756 127.656 154.876 127.957 154.877H291.104C291.406 154.876 291.694 154.756 291.907 154.543C292.12 154.33 292.24 154.041 292.241 153.74V2.23022C292.24 1.92894 292.12 1.64019 291.907 1.42715C291.694 1.21411 291.405 1.09413 291.104 1.09348L127.957 1.09099Z" fill="#E6E6E6"/>
<path d="M205.045 39.7041C204.704 39.7041 204.376 39.8397 204.135 40.0812C203.893 40.3226 203.758 40.65 203.758 40.9915C203.758 41.3329 203.893 41.6603 204.135 41.9018C204.376 42.1432 204.704 42.2788 205.045 42.2788H275.686C276.027 42.2788 276.355 42.1432 276.596 41.9018C276.837 41.6603 276.973 41.3329 276.973 40.9915C276.973 40.65 276.837 40.3226 276.596 40.0812C276.355 39.8397 276.027 39.7041 275.686 39.7041H205.045Z" fill="#E6E6E6"/>
<path d="M205.045 47.4292C204.704 47.4292 204.376 47.5648 204.135 47.8063C203.893 48.0477 203.758 48.3751 203.758 48.7166C203.758 49.058 203.893 49.3854 204.135 49.6269C204.376 49.8683 204.704 50.0039 205.045 50.0039H241.109C241.45 50.0039 241.777 49.8683 242.019 49.6269C242.26 49.3854 242.396 49.058 242.396 48.7166C242.396 48.3751 242.26 48.0477 242.019 47.8063C241.777 47.5648 241.45 47.4292 241.109 47.4292H205.045Z" fill="#E6E6E6"/>
<path d="M143.305 84.8188C142.964 84.8188 142.636 84.9545 142.395 85.1959C142.153 85.4373 142.018 85.7648 142.018 86.1062C142.018 86.4476 142.153 86.7751 142.395 87.0165C142.636 87.258 142.964 87.3936 143.305 87.3936H275.756C276.098 87.3936 276.425 87.258 276.667 87.0165C276.908 86.7751 277.044 86.4476 277.044 86.1062C277.044 85.7648 276.908 85.4373 276.667 85.1959C276.425 84.9545 276.098 84.8188 275.756 84.8188H143.305Z" fill="#E6E6E6"/>
<path d="M143.305 92.5439C142.964 92.5439 142.636 92.6796 142.395 92.921C142.153 93.1624 142.018 93.4899 142.018 93.8313C142.018 94.1728 142.153 94.5002 142.395 94.7416C142.636 94.9831 142.964 95.1187 143.305 95.1187H241.179C241.521 95.1187 241.848 94.9831 242.089 94.7416C242.331 94.5002 242.466 94.1728 242.466 93.8313C242.466 93.4899 242.331 93.1624 242.089 92.921C241.848 92.6796 241.521 92.5439 241.179 92.5439H143.305Z" fill="#E6E6E6"/>
<path d="M143.305 100.094C142.964 100.094 142.636 100.229 142.395 100.471C142.153 100.712 142.018 101.04 142.018 101.381C142.018 101.723 142.153 102.05 142.395 102.291C142.636 102.533 142.964 102.668 143.305 102.668H275.756C276.098 102.668 276.425 102.533 276.667 102.291C276.908 102.05 277.044 101.723 277.044 101.381C277.044 101.04 276.908 100.712 276.667 100.471C276.425 100.229 276.098 100.094 275.756 100.094H143.305Z" fill="#E6E6E6"/>
<path d="M143.305 107.819C142.964 107.819 142.636 107.954 142.395 108.196C142.153 108.437 142.018 108.765 142.018 109.106C142.018 109.448 142.153 109.775 142.395 110.017C142.636 110.258 142.964 110.394 143.305 110.394H241.179C241.521 110.394 241.848 110.258 242.089 110.017C242.331 109.775 242.466 109.448 242.466 109.106C242.466 108.765 242.331 108.437 242.089 108.196C241.848 107.954 241.521 107.819 241.179 107.819H143.305Z" fill="#E6E6E6"/>
<path d="M187.193 66.8278H84.7908C84.288 66.8272 83.806 66.6273 83.4505 66.2718C83.0951 65.9163 82.8951 65.4343 82.8945 64.9316V19.9919C82.8951 19.4892 83.0951 19.0072 83.4505 18.6517C83.806 18.2962 84.288 18.0963 84.7908 18.0957H187.193C187.696 18.0963 188.178 18.2962 188.534 18.6517C188.889 19.0072 189.089 19.4892 189.09 19.9919V64.9316C189.089 65.4343 188.889 65.9163 188.534 66.2718C188.178 66.6273 187.696 66.8272 187.193 66.8278Z" fill="#725095"/>
<path d="M274.937 137.874H236.121C235.618 137.874 235.136 137.674 234.781 137.318C234.425 136.963 234.225 136.481 234.225 135.978V129.759C234.225 129.256 234.425 128.774 234.781 128.419C235.136 128.063 235.618 127.863 236.121 127.863H274.937C275.439 127.863 275.921 128.063 276.277 128.419C276.632 128.774 276.832 129.256 276.833 129.759V135.978C276.832 136.481 276.632 136.963 276.277 137.318C275.921 137.674 275.439 137.874 274.937 137.874Z" fill="#725095"/>
<path d="M44.9147 76.3929C43.242 75.1441 42.751 72.8106 43.8182 71.1808C43.9243 71.0212 44.0442 70.8713 44.1766 70.7328L44.2835 37.5327L49.2185 38.4541L49.4353 71.1072C50.5597 72.4114 50.7867 74.3121 49.876 75.7028C48.8088 77.3326 46.5876 77.6416 44.9147 76.3929Z" fill="#FFB8B8"/>
<path d="M70.5788 150.705L75.6665 150.704L78.0871 131.081L70.5781 131.081L70.5788 150.705Z" fill="#FFB8B8"/>
<path d="M69.2812 149.044L79.3008 149.043H79.3012C80.9946 149.044 82.6187 149.716 83.8161 150.914C85.0136 152.111 85.6863 153.735 85.6865 155.429V155.636L69.2816 155.637L69.2812 149.044Z" fill="#2F2E41"/>
<path d="M23.2702 150.705L28.3583 150.704L30.7785 131.081L23.2695 131.081L23.2702 150.705Z" fill="#FFB8B8"/>
<path d="M21.9746 149.044L31.9942 149.043H31.9946C33.688 149.044 35.312 149.716 36.5095 150.914C37.7069 152.111 38.3797 153.735 38.3798 155.429V155.636L21.9749 155.637L21.9746 149.044Z" fill="#2F2E41"/>
<path d="M70.2811 145.224L69.8547 142.665C69.4167 142.512 69.0445 142.213 68.8001 141.819C68.3422 141.095 68.2693 140.077 68.5831 138.792L65.1504 109.802L47.2285 91.2079L35.7313 118.939L31.1799 140.884V144.054L22.0928 145.221L22.5064 142.233C22.1587 142.084 21.8691 141.826 21.6812 141.497C21.1591 140.628 21.1663 139.281 21.7024 137.495L21.7256 137.417L21.696 137.15C21.6752 136.963 21.8118 119.038 27.1403 110.158L32.4769 83.1945C32.3383 82.8148 31.6541 80.604 32.9089 76.8681C34.1473 73.1813 37.6107 67.2419 47.0779 59.8838L47.1104 59.8587L47.1508 59.8502C47.2556 59.8285 57.6974 57.7526 63.0977 64.8144L63.1342 64.8621V64.9223C63.1342 65.3589 63.1248 75.519 62.3215 77.7734L75.1358 101.335C75.3853 101.6 77.6256 104.187 76.8298 110.989L78.8999 134.174C79.1368 134.626 81.2795 138.885 78.9179 140.571L79.3413 143.498L70.2811 145.224Z" fill="#2F2E41"/>
<path d="M48.8454 47.7928C46.4393 47.7928 43.2419 46.9423 41.2846 43.0224L41.2461 42.9454L46.068 32.7239C46.6928 31.3997 47.8109 30.3725 49.1833 29.8622C50.5557 29.3518 52.0734 29.3989 53.4115 29.9932C54.7497 30.5876 55.8021 31.6821 56.3435 33.0425C56.885 34.4029 56.8725 35.9212 56.3088 37.2726L52.14 47.2665L52.0674 47.2934C51.0262 47.6278 49.9389 47.7963 48.8454 47.7928Z" fill="#725095"/>
<path d="M62.2012 68.0583L47 60.8801L49.0895 35.3879L52.8989 30.732L53.6369 30.574C57.0283 29.8479 60.5523 30.0431 63.8428 31.1393L63.9152 31.1634L70.1724 44.5119C70.2117 44.5785 74.7241 52.5455 68.4861 56.7458L62.2012 68.0583Z" fill="#725095"/>
<path d="M83.1006 59.9347C82.9192 60.0103 82.7441 60.1001 82.5767 60.2033L66.5584 52.876L66.1475 48.6165L59.6381 48.3965L59.6328 56.0077C59.6324 56.6226 59.8314 57.2211 60.2 57.7132C60.5687 58.2053 61.087 58.5646 61.6772 58.7371L80.9125 64.3587C81.1101 65.0896 81.5255 65.743 82.1035 66.2321C82.6815 66.7211 83.3946 67.0226 84.1482 67.0964C84.9017 67.1703 85.6598 67.0129 86.3217 66.6454C86.9837 66.2778 87.518 65.7174 87.8537 65.0388C88.1893 64.3601 88.3104 63.5954 88.2009 62.8462C88.0913 62.0971 87.7562 61.399 87.2402 60.8449C86.7243 60.2908 86.0518 59.907 85.3124 59.7444C84.5729 59.5818 83.8015 59.6482 83.1007 59.9347L83.1006 59.9347Z" fill="#FFB8B8"/>
<path d="M63.5074 50.4333C61.6821 50.4333 59.6221 49.802 57.645 47.8248L57.584 47.764L58.92 36.5415C59.093 35.0875 59.8283 33.759 60.9684 32.8402C62.1085 31.9214 63.5629 31.4854 65.0204 31.6253C66.478 31.7652 67.8229 32.47 68.7674 33.5889C69.7119 34.7078 70.181 36.1519 70.0743 37.6122L69.2856 48.4118L69.2253 48.4602C69.1866 48.4913 66.7082 50.4333 63.5074 50.4333Z" fill="#725095"/>
<path d="M68.3932 21.8515C71.0934 16.9121 69.2781 10.7191 64.3387 8.019C59.3993 5.31889 53.2063 7.13417 50.5062 12.0736C47.8061 17.0129 49.6213 23.206 54.5607 25.9061C59.5001 28.6062 65.6931 26.7909 68.3932 21.8515Z" fill="#FFB8B8"/>
<path d="M69.8233 11.5621C69.3175 8.62039 66.9561 6.18181 64.143 5.18403C61.3297 4.18626 58.1574 4.51075 55.4026 5.65975C54.9439 5.85197 54.4953 6.06764 54.0587 6.30593C53.0518 4.38665 50.5832 3.27351 48.3253 3.39365C45.5976 3.53879 43.1342 4.98208 40.7652 6.34233C38.3961 7.70258 35.854 9.05597 33.123 8.99262C28.1877 8.87821 24.516 4.30264 19.7703 2.94285C17.6577 2.33754 15.4097 2.39877 13.3332 3.11819C11.2567 3.83761 9.45268 5.18017 8.16734 6.96271C6.88201 8.74525 6.17793 10.8809 6.15118 13.0784C6.12443 15.2759 6.77631 17.4281 8.01788 19.2413C10.0428 15.6126 14.798 14.3869 18.9242 14.8809C23.0501 15.375 26.8956 17.1835 30.9378 18.1469C34.9801 19.1103 39.6617 19.069 42.7927 16.3369C44.5689 14.7873 45.6117 12.5723 47.1578 10.7933C48.2038 9.5899 49.6927 8.5738 51.2141 8.33464C49.7156 9.68413 48.5715 11.3811 47.8825 13.2763C46.6626 16.7423 47.3148 20.9039 49.8455 23.5679C52.5585 26.424 56.8166 27.1852 60.7556 27.139L60.838 27.0552C59.632 25.25 58.6802 22.7469 60.008 21.0293C61.3188 19.3338 63.904 19.5836 65.9114 18.8334C68.7073 17.7885 70.3289 14.5038 69.8233 11.5621Z" fill="#2F2E41"/>
<path d="M97.3342 156.039H0.355234C0.26102 156.039 0.170665 156.001 0.104045 155.935C0.0374261 155.868 0 155.778 0 155.683C0 155.589 0.0374261 155.499 0.104045 155.432C0.170665 155.366 0.26102 155.328 0.355234 155.328H97.3342C97.4284 155.328 97.5188 155.366 97.5854 155.432C97.652 155.499 97.6894 155.589 97.6894 155.683C97.6894 155.778 97.652 155.868 97.5854 155.935C97.5188 156.001 97.4284 156.039 97.3342 156.039Z" fill="#CCCCCC"/>
<path d="M131.397 33.8574C130.953 33.8588 130.593 34.4363 130.594 35.1473C130.595 35.8563 130.954 36.4308 131.397 36.4322H169.361C169.806 36.4307 170.166 35.8532 170.165 35.1422C170.164 34.4332 169.805 33.8588 169.361 33.8574H131.397Z" fill="white"/>
<path d="M131.397 41.3164C130.953 41.3178 130.593 41.8953 130.594 42.6063C130.595 43.3153 130.954 43.8897 131.397 43.8911H169.361C169.806 43.8897 170.166 43.3122 170.165 42.6012C170.164 41.8922 169.805 41.3178 169.361 41.3164H131.397Z" fill="white"/>
<path d="M131.397 48.6865C130.953 48.6879 130.593 49.2655 130.594 49.9764C130.595 50.6854 130.954 51.2599 131.397 51.2613H147.733C148.178 51.2598 148.538 50.6823 148.537 49.9713C148.536 49.2623 148.177 48.6879 147.733 48.6865H131.397Z" fill="white"/>
<path d="M112.12 52.7633C117.81 52.7633 122.422 48.151 122.422 42.4615C122.422 36.7719 117.81 32.1597 112.12 32.1597C106.431 32.1597 101.818 36.7719 101.818 42.4615C101.818 48.151 106.431 52.7633 112.12 52.7633Z" fill="white"/>
</g>
<defs>
<clipPath id="clip0_522_790">
<rect width="293" height="155.705" fill="white" transform="translate(0 0.333984)"/>
</clipPath>
</defs>
</svg>
