<svg width="118" height="160" viewBox="0 0 118 160" fill="none" xmlns="http://www.w3.org/2000/svg">
<path d="M53.9847 72.9273L47.5665 154.769L52.8346 157.329C53.1685 157.477 53.4282 157.774 53.5395 158.108C53.8734 159.035 53.2056 160 52.2039 160H39.5901C38.4771 160 37.6238 159.035 37.7722 157.96L38.1061 155.066L37.4383 115.035L34.9897 71.1837L53.9847 72.9273Z" fill="white"/>
<path d="M53.354 85.2073H35.5091L34.8784 71.1837L54.3557 72.9273L53.354 85.2073Z" fill="#F5AC64"/>
<path d="M54.0218 77.0083C51.8329 78.0471 46.0083 80.1989 35.2494 79.9763L34.8784 71.1837L42.0757 71.8144L54.096 76.1179L54.0218 77.0083Z" fill="#ED933B"/>
<path d="M82.2919 51.7435L100.916 38.2021C102.734 36.9037 104.292 35.2713 105.553 33.4163L115.496 18.7991C116.127 17.8716 116.535 16.8328 116.72 15.7569L117.499 11.2679C117.536 10.9711 117.351 10.7114 117.091 10.6743C116.832 10.6372 116.572 10.7856 116.498 11.0082L115.978 12.6034V8.70799C115.978 8.4483 115.756 8.2628 115.496 8.337L112.936 8.96769C112.417 9.07899 111.972 9.48708 111.823 10.0065L110.339 14.8665L97.9108 28.8531L80.0659 39.6119L82.2919 51.7435Z" fill="#F8FFFF"/>
<path d="M77.246 39.7974L78.6186 37.2747L81.0672 26.9239L89.3033 26.7755C90.3421 26.7384 91.0099 27.6288 91.0841 28.6676C91.3809 31.8581 91.5293 38.2022 90.1937 39.6861C88.7097 41.3185 85.3708 40.2055 85.3708 40.2055L84.2578 44.843L84.2207 49.8143L76.7266 46.4012" fill="white"/>
<path d="M0.598311 41.9492L17.4786 8.15149L15.5494 1.39937C15.5123 1.21387 15.5123 1.02838 15.5494 0.805778C15.772 -0.0104125 16.7737 -0.270109 17.3673 0.323484L25.6405 8.52249C26.2712 9.15318 26.3825 10.1178 25.9373 10.8598L24.5646 13.197L13.6203 43.8042L33.6911 54.8227C33.6911 54.8227 47.4551 49.0723 54.8008 55.7873C54.8008 55.7873 71.1988 45.251 75.6507 39.3522L77.2089 39.7974C77.2089 39.7974 77.3573 44.6204 82.1802 47.477C84.4062 47.6254 84.2207 44.843 84.2207 44.843C84.2207 44.843 85.2595 52.3371 84.8143 56.6035C84.3691 60.87 81.4753 63.133 78.2477 62.2427C78.2477 62.2427 65.2628 79.7165 42.8176 76.8228C23.2661 74.3371 5.01316 55.9357 0.598311 47.1431C-0.180779 45.5107 -0.217879 43.6187 0.598311 41.9492Z" fill="white"/>
<path d="M20.7433 15.0149C21.5224 14.0132 23.7484 15.4972 23.7484 15.4972L20.8546 23.622L21.5595 18.02C21.5966 18.02 20.0385 15.9053 20.7433 15.0149Z" fill="#E2F0E4"/>
<path d="M75.6878 39.3522L77.246 39.7974C77.246 39.7974 78.6187 46.5495 82.2174 47.477C84.4433 47.6254 84.2578 44.843 84.2578 44.843C84.2578 44.843 85.2966 52.3371 84.8514 56.6035C84.4062 60.87 81.5125 63.133 78.2848 62.2427C78.2848 62.2427 72.4973 70.0336 61.9239 74.3742L54.8008 55.7873C54.8008 55.7873 71.2359 45.251 75.6878 39.3522Z" fill="#2979F2"/>
<path d="M71.7925 55.9357C72.5716 59.3118 75.3912 59.015 76.0961 60.2022C76.801 61.3894 78.285 62.2798 78.285 62.2798C78.285 62.2798 77.4688 63.3557 75.9106 64.9509C70.6795 60.7216 71.7925 55.9357 71.7925 55.9357Z" fill="#0A54C5"/>
<path d="M56.248 59.5344L56.0996 59.2005C62.592 56.0841 67.415 50.9273 67.4521 50.8531L67.7118 51.1128C67.6747 51.187 62.8517 56.418 56.248 59.5344Z" fill="#05214A"/>
<path d="M75.7345 39.472L49.2084 30.6794L23.3871 16.7671L25.613 17.9542C25.613 17.9542 23.5726 15.6541 23.2016 15.4686C22.3483 14.9863 21.0869 14.7637 21.0127 15.3573C21.0127 15.5428 21.7918 16.1735 22.3483 16.73C22.8306 17.2123 23.0532 17.7687 23.0532 17.7687L21.1611 23.074L43.3095 38.4703C45.0532 39.6946 46.9824 40.6592 49.0229 41.3641L66.7936 47.4855C64.5676 51.3068 70.3551 53.1246 73.1376 50.0825C77.7008 44.9627 75.7345 39.472 75.7345 39.472Z" fill="white"/>
<path d="M78.0957 32.3033C76.0181 32.3033 74.3486 30.5967 74.3486 28.5563C74.3486 26.4787 76.0552 24.8092 78.0957 24.8092C80.1733 24.8092 81.8427 26.5158 81.8427 28.5563C81.8427 30.5967 80.1733 32.3033 78.0957 32.3033Z" fill="#0A1A31"/>
<path d="M91.158 29.2983C91.158 29.2983 88.6724 31.0048 84.6285 31.0048L84.2575 32.934C84.2204 33.1195 84.072 33.2308 83.8865 33.2308C83.701 33.2308 83.5526 33.1195 83.5155 32.934C83.4042 32.4888 82.8106 31.6726 82.1429 31.7839C80.4734 32.0807 80.6218 34.2325 82.3283 35.9391C82.3283 35.9391 80.7702 37.6457 78.5442 37.2747C78.5442 37.2747 75.6504 29.3725 79.5088 26.2561C84.2204 22.4719 94.3115 26.8497 91.158 29.2983Z" fill="#1F2E43"/>
<path d="M56.9154 76.0437C52.7603 77.0825 48.0487 77.5276 42.8547 76.8599C37.4011 76.155 32.0587 74.2258 27.0874 71.6288L32.6894 54.2662L33.7282 54.8227C33.7282 54.8227 47.4922 49.0723 54.8379 55.7873L57.0267 75.5985L56.9154 76.0437Z" fill="#F5AC64"/>
<path d="M45.6372 62.5023C41.0368 62.5023 35.509 62.0572 30.7231 60.3506L30.8344 60.0167C41.2965 63.6895 55.2831 61.5007 55.4314 61.4636L55.5057 61.8346C55.3944 61.8346 51.165 62.5023 45.6372 62.5023Z" fill="#05214A"/>
<path d="M82.1432 38.0537C83.1449 39.2038 85.3708 40.2426 85.3708 40.2426L84.8514 42.5057C82.0319 40.6507 82.1432 38.0537 82.1432 38.0537Z" fill="#E2F0E4"/>
<path d="M13.4549 43.7941L12.3335 47.6795L12.6899 47.7823L13.8113 43.897L13.4549 43.7941Z" fill="#E2F0E3"/>
<path d="M66.762 47.1388L66.6621 47.4961L69.2704 48.2254L69.3703 47.8681L66.762 47.1388Z" fill="#E2F0E3"/>
<path d="M82.8851 34.2325C82.7367 33.6018 82.4399 33.5276 82.4399 33.5276L82.5141 33.1566C82.5512 33.1566 83.0335 33.2679 83.219 34.1583L82.8851 34.2325Z" fill="#812404"/>
<path d="M82.4769 36.4214C82.7638 36.4214 82.9963 36.1888 82.9963 35.902C82.9963 35.6151 82.7638 35.3826 82.4769 35.3826C82.1901 35.3826 81.9575 35.6151 81.9575 35.902C81.9575 36.1888 82.1901 36.4214 82.4769 36.4214Z" fill="white"/>
<path d="M45.9339 63.9863C41.4077 63.9863 35.8428 63.4298 30.3521 61.4264L30.4633 61.0925C42.7062 65.5445 55.3943 62.762 55.5056 62.7249L55.5798 63.0959C55.5798 63.0959 51.573 63.9863 45.9339 63.9863Z" fill="#05214A"/>
<path d="M51.0536 110.175L50.3487 119.339C48.3453 118.819 46.8613 117.002 46.8613 114.813C46.8613 112.401 48.6792 110.398 51.0536 110.175Z" fill="#E0F3F3"/>
<path d="M48.9392 41.2072C46.8987 40.5023 45.0067 39.5377 43.2259 38.3134L42.4839 37.794C43.2259 37.2746 44.1534 36.9407 45.1551 36.9407C47.7149 36.9407 49.7554 38.9812 49.8296 41.504L48.9392 41.2072Z" fill="#E2F0E4"/>
<path d="M99.543 38.9812C99.543 36.4214 101.621 34.3067 104.218 34.3067C104.44 34.3067 104.663 34.3438 104.885 34.3438C103.772 35.7907 102.437 37.0892 100.953 38.2021L99.5801 39.2038C99.543 39.1296 99.543 39.0554 99.543 38.9812Z" fill="#E2F0E4"/>
<path d="M4.67943 43.8412C4.67943 45.993 3.23255 47.7738 1.26627 48.3303C1.04368 47.9222 0.821078 47.5512 0.63558 47.1802C-0.18061 45.5478 -0.18061 43.6186 0.63558 41.9863L1.85987 39.5748C3.49225 40.2426 4.67943 41.9121 4.67943 43.8412Z" fill="#E2F0E4"/>
<path d="M88.7095 36.9407L88.6724 36.5697L89.4515 36.4955C89.4886 36.4955 89.4886 36.4584 89.4886 36.4584L89.266 33.8615L89.637 33.8244L89.8595 36.4213C89.8966 36.6439 89.7111 36.8294 89.4886 36.8665L88.7095 36.9407Z" fill="#812404"/>
<path d="M87.92 33.7882C87.9248 33.5628 87.7958 33.3773 87.6319 33.3739C87.468 33.3704 87.3313 33.5502 87.3265 33.7756C87.3217 34.0009 87.4507 34.1864 87.6146 34.1899C87.7785 34.1934 87.9152 34.0135 87.92 33.7882Z" fill="#1F2E43"/>
<path d="M90.8327 33.8566C90.8375 33.6312 90.7251 33.4461 90.5817 33.443C90.4383 33.44 90.3182 33.6202 90.3134 33.8455C90.3086 34.0708 90.4209 34.256 90.5643 34.2591C90.7077 34.2621 90.8279 34.0819 90.8327 33.8566Z" fill="#1F2E43"/>
<path d="M86.4096 32.4517L86.187 32.1549C86.2241 32.1178 87.4855 31.3016 88.5985 31.9323L88.413 32.2662C87.5226 31.7097 86.4096 32.4517 86.4096 32.4517Z" fill="#1F2E43"/>
<path d="M90.3422 32.0807L90.1196 31.7839C90.1567 31.7468 90.4535 31.5242 91.2697 31.5984L91.2326 31.9694C90.6019 31.9323 90.3793 32.0807 90.3422 32.0807Z" fill="#1F2E43"/>
<path d="M88.1905 38.1279C86.9662 38.0166 86.521 37.0521 86.4839 37.015L86.8178 36.8666C86.8178 36.9037 87.2259 37.6828 88.2276 37.7941L88.1905 38.1279Z" fill="#1F2E43"/>
</svg>
