<svg width="17" height="17" viewBox="0 0 17 17" fill="none" xmlns="http://www.w3.org/2000/svg">
<g clip-path="url(#clip0_2_223)" filter="url(#filter0_d_2_223)">
<path d="M13.3664 14.3634H3.27777C2.58067 14.3634 1.99976 13.7919 1.99976 13.1061V3.1809C1.99976 2.49509 2.58067 1.92358 3.27777 1.92358H13.3664C14.0635 1.92358 14.6444 2.49509 14.6444 3.1809V13.1061C14.6444 13.7919 14.0635 14.3634 13.3664 14.3634ZM3.27777 2.78085C3.04541 2.78085 2.87113 2.9523 2.87113 3.1809V13.1061C2.87113 13.3347 3.04541 13.5062 3.27777 13.5062H13.3664C13.5987 13.5062 13.773 13.3347 13.773 13.1061V3.1809C13.773 2.9523 13.5987 2.78085 13.3664 2.78085H3.27777Z" fill="white"/>
<path d="M14.1995 4.79987H2.42627V5.65713H14.1995V4.79987Z" fill="white"/>
<path d="M6.97651 11.8292C6.87969 11.8292 6.78287 11.7911 6.70542 11.734C6.56987 11.6387 6.49241 11.4673 6.53114 11.2958L6.74415 10.0576L5.83404 9.18125C5.71786 9.06695 5.65977 8.87645 5.71786 8.72405C5.77595 8.55259 5.9115 8.43829 6.08577 8.41924L7.34443 8.22874L7.90598 7.10477C7.98344 6.95237 8.13835 6.85712 8.31262 6.85712C8.4869 6.85712 8.64181 6.95237 8.71926 7.10477L9.28082 8.22874L10.5588 8.41924C10.7331 8.43829 10.8687 8.55259 10.9268 8.72405C10.9848 8.8955 10.9461 9.06695 10.8106 9.18125L9.90046 10.0576L10.1135 11.2958C10.1522 11.4673 10.0747 11.6387 9.93919 11.734C9.80364 11.8292 9.61 11.8483 9.45509 11.7721L8.31262 11.1815L7.17015 11.7721C7.11206 11.8292 7.0346 11.8292 6.97651 11.8292ZM7.0346 9.14315L7.49934 9.60036C7.59616 9.69561 7.65425 9.84801 7.63489 10.0004L7.5187 10.6481L8.09962 10.3433C8.23517 10.2671 8.39008 10.2671 8.52563 10.3433L9.10654 10.6481L8.99036 10.0004C8.971 9.84801 9.00972 9.69561 9.12591 9.60036L9.59064 9.14315L8.93227 9.0479C8.79672 9.02885 8.66117 8.9336 8.58372 8.80025L8.29326 8.20969L8.0028 8.80025C7.94471 8.9336 7.80916 9.02885 7.65425 9.0479L7.0346 9.14315ZM7.24761 8.41924C7.24761 8.43829 7.24761 8.43829 7.24761 8.41924V8.41924ZM9.06782 8.20969C9.08718 8.20969 9.08718 8.20969 9.06782 8.20969V8.20969ZM8.6999 7.48578C8.68054 7.48578 8.6999 7.48578 8.6999 7.48578V7.48578Z" fill="white"/>
<path d="M11.2944 3.75227C11.062 3.75227 10.8684 3.56176 10.8684 3.33316V1.29478C10.8684 1.06617 11.062 0.875671 11.2944 0.875671C11.5268 0.875671 11.7204 1.06617 11.7204 1.29478V3.31411C11.7398 3.56176 11.5461 3.75227 11.2944 3.75227Z" fill="white"/>
<path d="M5.33006 3.75239C5.09769 3.75239 4.90405 3.56188 4.90405 3.33328V1.2949C4.90405 1.0663 5.09769 0.875793 5.33006 0.875793C5.56243 0.875793 5.75607 1.0663 5.75607 1.2949V3.31423C5.77543 3.56188 5.58179 3.75239 5.33006 3.75239Z" fill="white"/>
</g>
<defs>
<filter id="filter0_d_2_223" x="0.314049" y="0.0330009" width="16.0164" height="16.8595" filterUnits="userSpaceOnUse" color-interpolation-filters="sRGB">
<feFlood flood-opacity="0" result="BackgroundImageFix"/>
<feColorMatrix in="SourceAlpha" type="matrix" values="0 0 0 0 0 0 0 0 0 0 0 0 0 0 0 0 0 0 127 0" result="hardAlpha"/>
<feOffset dy="0.842976"/>
<feGaussianBlur stdDeviation="0.842976"/>
<feColorMatrix type="matrix" values="0 0 0 0 0 0 0 0 0 0 0 0 0 0 0 0 0 0 0.25 0"/>
<feBlend mode="multiply" in2="BackgroundImageFix" result="effect1_dropShadow_2_223"/>
<feBlend mode="normal" in="SourceGraphic" in2="effect1_dropShadow_2_223" result="shape"/>
</filter>
<clipPath id="clip0_2_223">
<rect width="12.6446" height="13.4876" fill="white" transform="translate(2 0.875977)"/>
</clipPath>
</defs>
</svg>
