<svg width="14" height="15" viewBox="0 0 14 15" fill="none" xmlns="http://www.w3.org/2000/svg">
<g clip-path="url(#clip0_2_215)">
<path d="M12.3332 14.3634H2.24457C1.54747 14.3634 0.966553 13.7919 0.966553 13.1061V3.1809C0.966553 2.49509 1.54747 1.92358 2.24457 1.92358H12.3332C13.0303 1.92358 13.6112 2.49509 13.6112 3.1809V13.1061C13.6112 13.7919 13.0303 14.3634 12.3332 14.3634ZM2.24457 2.78085C2.0122 2.78085 1.83793 2.9523 1.83793 3.1809V13.1061C1.83793 13.3347 2.0122 13.5062 2.24457 13.5062H12.3332C12.5655 13.5062 12.7398 13.3347 12.7398 13.1061V3.1809C12.7398 2.9523 12.5655 2.78085 12.3332 2.78085H2.24457Z" fill="white"/>
<path d="M13.1663 4.79987H1.39307V5.65713H13.1663V4.79987Z" fill="white"/>
<path d="M5.94331 11.8292C5.84649 11.8292 5.74967 11.7911 5.67221 11.734C5.53667 11.6387 5.45921 11.4673 5.49794 11.2958L5.71094 10.0576L4.80084 9.18125C4.68465 9.06695 4.62656 8.87645 4.68465 8.72405C4.74275 8.55259 4.87829 8.43829 5.05257 8.41924L6.31122 8.22874L6.87278 7.10477C6.95023 6.95237 7.10514 6.85712 7.27942 6.85712C7.45369 6.85712 7.60861 6.95237 7.68606 7.10477L8.24761 8.22874L9.52563 8.41924C9.69991 8.43829 9.83546 8.55259 9.89355 8.72405C9.95164 8.8955 9.91291 9.06695 9.77736 9.18125L8.86726 10.0576L9.08026 11.2958C9.11899 11.4673 9.04154 11.6387 8.90599 11.734C8.77044 11.8292 8.5768 11.8483 8.42189 11.7721L7.27942 11.1815L6.13695 11.7721C6.07886 11.8292 6.0014 11.8292 5.94331 11.8292ZM6.0014 9.14315L6.46613 9.60036C6.56295 9.69561 6.62105 9.84801 6.60168 10.0004L6.4855 10.6481L7.06642 10.3433C7.20196 10.2671 7.35688 10.2671 7.49242 10.3433L8.07334 10.6481L7.95716 10.0004C7.93779 9.84801 7.97652 9.69561 8.0927 9.60036L8.55744 9.14315L7.89906 9.0479C7.76352 9.02885 7.62797 8.9336 7.55051 8.80025L7.26006 8.20969L6.9696 8.80025C6.9115 8.9336 6.77596 9.02885 6.62105 9.0479L6.0014 9.14315ZM6.2144 8.41924C6.2144 8.43829 6.2144 8.43829 6.2144 8.41924V8.41924ZM8.03461 8.20969C8.05398 8.20969 8.05398 8.20969 8.03461 8.20969V8.20969ZM7.6667 7.48578C7.64733 7.48578 7.6667 7.48578 7.6667 7.48578V7.48578Z" fill="white"/>
<path d="M10.2612 3.75227C10.0288 3.75227 9.83521 3.56176 9.83521 3.33316V1.29478C9.83521 1.06617 10.0288 0.875671 10.2612 0.875671C10.4936 0.875671 10.6872 1.06617 10.6872 1.29478V3.31411C10.7066 3.56176 10.5129 3.75227 10.2612 3.75227Z" fill="white"/>
<path d="M4.29686 3.75239C4.06449 3.75239 3.87085 3.56188 3.87085 3.33328V1.2949C3.87085 1.0663 4.06449 0.875793 4.29686 0.875793C4.52922 0.875793 4.72286 1.0663 4.72286 1.2949V3.31423C4.74223 3.56188 4.54859 3.75239 4.29686 3.75239Z" fill="white"/>
</g>
<defs>
<clipPath id="clip0_2_215">
<rect width="12.6446" height="13.4876" fill="white" transform="translate(0.966797 0.875977)"/>
</clipPath>
</defs>
</svg>
