<svg width="14" height="13" viewBox="0 0 14 13" fill="none" xmlns="http://www.w3.org/2000/svg">
<g opacity="0.5" clip-path="url(#clip0_2_110)">
<path d="M12.2939 4.98004C12.0981 4.38042 12.2939 3.59001 11.9302 3.09941C11.5666 2.60881 10.7273 2.5543 10.1958 2.17272C9.69225 1.8184 9.38453 1.05524 8.76908 0.864455C8.18161 0.673666 7.45426 1.10976 6.81084 1.10976C6.16742 1.10976 5.44007 0.673666 4.8526 0.864455C4.23715 1.05524 3.92943 1.8184 3.42588 2.17272C2.92234 2.52704 2.05512 2.60881 1.69144 3.09941C1.32777 3.59001 1.52359 4.38042 1.32777 4.98004C1.13195 5.55241 0.488525 6.07027 0.488525 6.7244C0.488525 7.35128 1.13195 7.86913 1.32777 8.4415C1.52359 9.04112 1.32777 9.83153 1.69144 10.3221C2.05512 10.8127 2.89436 10.8672 3.42588 11.2488C3.92943 11.6031 4.23715 12.3663 4.8526 12.5571C5.44007 12.7479 6.16742 12.3118 6.81084 12.3118C7.45426 12.3118 8.18161 12.7479 8.76908 12.5571C9.38453 12.3663 9.69225 11.6031 10.1958 11.2488C10.6993 10.8945 11.5386 10.8127 11.9302 10.3221C12.2939 9.83153 12.0981 9.04112 12.2939 8.4415C12.4897 7.86913 13.1332 7.35128 13.1332 6.69714C13.1332 6.07027 12.4897 5.55241 12.2939 4.98004ZM5.524 9.12289L3.28601 6.15203L3.73361 5.82497L5.60792 8.30522L9.94402 4.5167L10.3077 4.92553L5.524 9.12289Z" fill="#788292"/>
</g>
<defs>
<clipPath id="clip0_2_110">
<rect width="12.6446" height="11.8017" fill="white" transform="translate(0.488281 0.80957)"/>
</clipPath>
</defs>
</svg>
