<svg width="66" height="46" viewBox="0 0 66 46" fill="none" xmlns="http://www.w3.org/2000/svg">
<rect x="0.962917" y="0.251003" width="64.2275" height="45.1063" rx="1.716" fill="white" stroke="#D1D9E0" stroke-width="0.490286"/>
<path fill-rule="evenodd" clip-rule="evenodd" d="M28.5353 35.0544L28.9554 32.3013L28.0195 32.2788H23.5503L26.6562 11.9624C26.6659 11.9009 26.6972 11.8438 26.7429 11.8031C26.7888 11.7625 26.8473 11.7402 26.9085 11.7402H34.4443C36.9462 11.7402 38.6727 12.2772 39.574 13.3372C39.9966 13.8345 40.2657 14.3543 40.396 14.9261C40.5326 15.5262 40.5349 16.2431 40.4017 17.1176L40.392 17.1812V17.7416L40.8146 17.9886C41.1704 18.1834 41.4532 18.4063 41.6702 18.6614C42.0316 19.0867 42.2654 19.6272 42.3642 20.2677C42.4664 20.9265 42.4326 21.7107 42.2654 22.5985C42.0725 23.6195 41.7609 24.5089 41.3398 25.2364C40.9528 25.9069 40.4595 26.4631 39.8737 26.894C39.3145 27.3035 38.6502 27.6144 37.899 27.8133C37.171 28.0088 36.3411 28.1075 35.4308 28.1075H34.8444C34.4252 28.1075 34.0178 28.2632 33.6981 28.5425C33.3774 28.8276 33.1654 29.2172 33.1004 29.6432L33.056 29.8911L32.3136 34.7438L32.2801 34.9219C32.2711 34.9783 32.2558 35.0064 32.2333 35.0254C32.2133 35.0428 32.1845 35.0544 32.1563 35.0544H28.5353" fill="#28356A"/>
<path fill-rule="evenodd" clip-rule="evenodd" d="M41.2153 17.2461C41.193 17.3944 41.1671 17.546 41.1383 17.7018C40.1446 22.9656 36.7445 24.7841 32.4022 24.7841H30.1912C29.6602 24.7841 29.2126 25.1818 29.13 25.7222L27.6774 35.2277C27.6236 35.5827 27.8887 35.9024 28.2357 35.9024H32.1572C32.6214 35.9024 33.0159 35.5544 33.089 35.0819L33.1275 34.8765L33.8659 30.0428L33.9133 29.7777C33.9856 29.3036 34.381 28.9554 34.8452 28.9554H35.4317C39.2309 28.9554 42.2052 27.3642 43.0745 22.7593C43.4375 20.8356 43.2496 19.2294 42.2887 18.0997C41.998 17.7592 41.6372 17.4764 41.2153 17.2461" fill="#298FC2"/>
<path fill-rule="evenodd" clip-rule="evenodd" d="M40.1753 16.8182C40.0234 16.7724 39.8668 16.7311 39.7061 16.6937C39.5445 16.6573 39.3791 16.625 39.2088 16.5967C38.6126 16.4973 37.9594 16.4502 37.2597 16.4502H31.3532C31.2076 16.4502 31.0694 16.4841 30.9459 16.5454C30.6734 16.6805 30.4711 16.9465 30.422 17.2722L29.1654 25.4826L29.1294 25.7219C29.212 25.1815 29.6596 24.7838 30.1907 24.7838H32.4016C36.7439 24.7838 40.144 22.9644 41.1378 17.7015C41.1675 17.5457 41.1925 17.3941 41.2147 17.2458C40.9634 17.1081 40.6911 16.9904 40.3979 16.8901C40.3254 16.8653 40.2507 16.8414 40.1753 16.8182" fill="#22284F"/>
<path fill-rule="evenodd" clip-rule="evenodd" d="M30.4221 17.2725C30.4711 16.9468 30.6734 16.6808 30.946 16.5466C31.0704 16.4851 31.2077 16.4512 31.3533 16.4512H37.2598C37.9594 16.4512 38.6127 16.4986 39.2088 16.5979C39.3792 16.626 39.5446 16.6585 39.7062 16.695C39.8668 16.7321 40.0235 16.7737 40.1754 16.8192C40.2508 16.8424 40.3255 16.8665 40.3986 16.8904C40.6918 16.9907 40.9643 17.1093 41.2157 17.2461C41.5114 15.3009 41.2132 13.9764 40.1938 12.7771C39.0698 11.4567 37.0413 10.8916 34.4455 10.8916H26.9095C26.3793 10.8916 25.927 11.2893 25.8451 11.8307L22.7063 32.356C22.6444 32.762 22.948 33.1283 23.3449 33.1283H27.9973L30.4221 17.2725" fill="#28356A"/>
</svg>
