<svg width="66" height="46" viewBox="0 0 66 46" fill="none" xmlns="http://www.w3.org/2000/svg">
<rect x="0.68069" y="0.251003" width="64.2275" height="45.1063" rx="1.716" fill="white" stroke="#D1D9E0" stroke-width="0.490286"/>
<path fill-rule="evenodd" clip-rule="evenodd" d="M33.1347 31.9789C30.8809 33.875 27.9574 35.0196 24.7628 35.0196C17.6345 35.0196 11.856 29.3207 11.856 22.2906C11.856 15.2605 17.6345 9.56152 24.7628 9.56152C27.9574 9.56152 30.8809 10.7062 33.1347 12.6023C35.3885 10.7062 38.3121 9.56152 41.5067 9.56152C48.6349 9.56152 54.4135 15.2605 54.4135 22.2906C54.4135 29.3207 48.6349 35.0196 41.5067 35.0196C38.3121 35.0196 35.3885 33.875 33.1347 31.9789Z" fill="#ED0006"/>
<path fill-rule="evenodd" clip-rule="evenodd" d="M33.1348 31.9789C35.9099 29.6441 37.6696 26.17 37.6696 22.2906C37.6696 18.4112 35.9099 14.9371 33.1348 12.6023C35.3886 10.7062 38.3121 9.56152 41.5067 9.56152C48.635 9.56152 54.4136 15.2605 54.4136 22.2906C54.4136 29.3207 48.635 35.0196 41.5067 35.0196C38.3121 35.0196 35.3886 33.875 33.1348 31.9789Z" fill="#F9A000"/>
<path fill-rule="evenodd" clip-rule="evenodd" d="M33.1349 31.98C35.9101 29.6453 37.6698 26.1712 37.6698 22.2918C37.6698 18.4123 35.9101 14.9383 33.1349 12.6035C30.3598 14.9383 28.6001 18.4123 28.6001 22.2918C28.6001 26.1712 30.3598 29.6453 33.1349 31.98Z" fill="#FF5E00"/>
</svg>
