<svg width="32" height="11" viewBox="0 0 32 11" fill="none" xmlns="http://www.w3.org/2000/svg">
<path d="M16.6344 3.81714C16.6036 5.20147 17.8649 5.97054 18.8185 6.43198C19.7722 6.89342 20.1105 7.20105 20.1105 7.63173C20.1105 8.27775 19.3415 8.55462 18.6339 8.58538C17.3727 8.61614 16.6651 8.24699 16.0806 7.97012L15.6192 10.062C16.2037 10.3389 17.2804 10.5542 18.3878 10.585C21.0027 10.585 22.6946 9.29292 22.7254 7.29334C22.7254 4.77079 19.2184 4.61698 19.2492 3.47875C19.2492 3.14036 19.5876 2.77121 20.2951 2.67892C20.6643 2.61739 21.6179 2.58663 22.7562 3.1096L23.1868 1.07925C22.6023 0.863912 21.8333 0.648574 20.8489 0.648574C18.3878 0.648574 16.6651 1.94061 16.6344 3.81714ZM27.3706 0.802388C26.9091 0.802388 26.4785 1.07925 26.3246 1.50993L22.5716 10.4004H25.1864L25.7094 8.95453H28.9087L29.2163 10.4004H31.5236L29.524 0.802388H27.3706ZM27.7397 3.41723L28.478 7.01648H26.4169L27.7397 3.41723ZM13.4965 0.802388L11.4354 10.4004H13.9272L15.9883 0.802388H13.4965ZM9.80501 0.802388L7.22093 7.3241L6.175 1.7868C6.05195 1.17154 5.55974 0.802388 5.03677 0.802388H0.822262L0.760742 1.07925C1.6221 1.26383 2.60651 1.57146 3.22177 1.90985C3.59092 2.09443 3.68321 2.279 3.80626 2.74044L5.77508 10.4004H8.38992L12.4198 0.802388H9.80501Z" fill="#060405"/>
</svg>
