<?xml version="1.0" encoding="utf-8"?>
<!-- Generator: Adobe Illustrator 25.4.1, SVG Export Plug-In . SVG Version: 6.00 Build 0)  -->
<svg version="1.1" id="Layer_1" xmlns="http://www.w3.org/2000/svg" xmlns:xlink="http://www.w3.org/1999/xlink" x="0px" y="0px"
	 viewBox="0 0 720 720" style="enable-background:new 0 0 720 720;" xml:space="preserve">
<style type="text/css">
	.st0{fill-rule:evenodd;clip-rule:evenodd;fill:#000002;stroke:#000002;stroke-width:0.5669;stroke-miterlimit:22.9256;}
	.st1{fill-rule:evenodd;clip-rule:evenodd;fill:none;stroke:#000002;stroke-width:2.3998;stroke-miterlimit:22.9256;}
	.st2{fill-rule:evenodd;clip-rule:evenodd;fill:#000002;stroke:#000000;stroke-width:0.5669;stroke-miterlimit:22.9256;}
	.st3{fill-rule:evenodd;clip-rule:evenodd;fill:#FFFFFF;stroke:#FFFFFF;stroke-width:0.5669;stroke-miterlimit:22.9256;}
	.st4{fill-rule:evenodd;clip-rule:evenodd;fill:#FFFFFF;}
	.st5{fill-rule:evenodd;clip-rule:evenodd;fill:none;stroke:#000002;stroke-width:1.1999;stroke-miterlimit:22.9256;}
	.st6{fill-rule:evenodd;clip-rule:evenodd;fill:none;stroke:#FFFFFF;stroke-width:4.7999;stroke-miterlimit:22.9256;}
	.st7{fill-rule:evenodd;clip-rule:evenodd;fill:none;stroke:#000002;stroke-width:2.8797;stroke-miterlimit:22.9256;}
	.st8{fill-rule:evenodd;clip-rule:evenodd;fill:url(#SVGID_1_);stroke:#000002;stroke-width:0.5669;stroke-miterlimit:22.9256;}
	
		.st9{fill-rule:evenodd;clip-rule:evenodd;fill:url(#SVGID_00000006676395484912267410000000814677363382990014_);stroke:#000002;stroke-width:0.5669;stroke-miterlimit:22.9256;}
	
		.st10{fill-rule:evenodd;clip-rule:evenodd;fill:url(#SVGID_00000171714343166270893680000016931091028799117482_);stroke:#000002;stroke-width:0.5669;stroke-miterlimit:22.9256;}
	
		.st11{fill-rule:evenodd;clip-rule:evenodd;fill:url(#SVGID_00000027600738319079226690000004154655047210378894_);stroke:#000002;stroke-width:0.5669;stroke-miterlimit:22.9256;}
	
		.st12{fill-rule:evenodd;clip-rule:evenodd;fill:url(#SVGID_00000109712884894634063470000001176773793058346908_);stroke:#000002;stroke-width:0.5669;stroke-miterlimit:22.9256;}
	
		.st13{fill-rule:evenodd;clip-rule:evenodd;fill:url(#SVGID_00000105398062323659294650000006116580666893911684_);stroke:#000002;stroke-width:0.5669;stroke-miterlimit:22.9256;}
	
		.st14{fill-rule:evenodd;clip-rule:evenodd;fill:url(#SVGID_00000119821359252307189760000002028390558239439266_);stroke:#000002;stroke-width:0.5669;stroke-miterlimit:22.9256;}
	
		.st15{fill-rule:evenodd;clip-rule:evenodd;fill:url(#SVGID_00000182516030632268446510000006719666137767800991_);stroke:#000002;stroke-width:0.5669;stroke-miterlimit:22.9256;}
	
		.st16{fill-rule:evenodd;clip-rule:evenodd;fill:url(#SVGID_00000083767659538371450040000014871944799121636259_);stroke:#000002;stroke-width:0.5669;stroke-miterlimit:22.9256;}
	
		.st17{fill-rule:evenodd;clip-rule:evenodd;fill:url(#SVGID_00000000205984220441952100000012566348977453906855_);stroke:#000002;stroke-width:0.5669;stroke-miterlimit:22.9256;}
	
		.st18{fill-rule:evenodd;clip-rule:evenodd;fill:url(#SVGID_00000145022250921578987140000011281497937300526469_);stroke:#000002;stroke-width:0.5669;stroke-miterlimit:22.9256;}
	.st19{fill-rule:evenodd;clip-rule:evenodd;stroke:#000000;stroke-width:0.5669;stroke-miterlimit:22.9256;}
	.st20{fill-rule:evenodd;clip-rule:evenodd;stroke:#000002;stroke-width:0.5669;stroke-miterlimit:22.9256;}
	.st21{fill-rule:evenodd;clip-rule:evenodd;fill:none;stroke:#000000;stroke-width:0.5669;stroke-miterlimit:22.9256;}
	.st22{fill-rule:evenodd;clip-rule:evenodd;fill:none;stroke:#000002;stroke-width:0.5669;stroke-miterlimit:22.9256;}
</style>
<ellipse transform="matrix(0.7071 -0.7071 0.7071 0.7071 74.4393 417.3123)" class="st0" cx="540.96" cy="118.8" rx="45.6" ry="45.6"/>
<path class="st0" d="M99.28,587c-1.12-0.44-4,0.04-7,1.52c-3,1.48-6.12,3.96-9.04,6.16c-2.92,2.2-5.64,4.12-7.32,5.52
	c-1.68,1.4-2.32,2.28-2.44,3.08c-0.12,0.8,0.28,1.52,0.76,3.16c0.48,1.64,1.04,4.2,2.48,7.08s3.76,6.08,5.92,8.88
	c2.16,2.8,4.16,5.2,6.24,7.32c2.08,2.12,4.24,3.96,5.92,6.44c1.68,2.48,2.88,5.6,4.28,10.16c1.4,4.56,3,10.56,4.96,14.64
	c1.96,4.08,4.28,6.24,6.52,8.08c2.24,1.84,4.4,3.36,7.48,4.32c3.08,0.96,7.08,1.36,12.08,1.44c5,0.08,11-0.16,16.24-0.48
	c5.24-0.32,9.72-0.72,12.44-1.48c2.72-0.76,3.68-1.88,3.96-3.2c0.28-1.32-0.12-2.84-1-4.6c-0.88-1.76-2.24-3.76-4.6-5.96
	c-2.36-2.2-5.72-4.6-8.08-6.48c-2.36-1.88-3.72-3.24-4.92-5.44c-1.2-2.2-2.24-5.24-2.88-9.32c-0.64-4.08-0.88-9.2-1.12-13.44
	c-0.24-4.24-0.48-7.6-0.84-9.36c-0.36-1.76-0.84-1.92-2.08-0.6c-1.24,1.32-3.24,4.12-5.88,6.04c-2.64,1.92-5.92,2.96-9.08,3.4
	c-3.16,0.44-6.2,0.28-9.28-0.4c-3.08-0.68-6.2-1.88-8.56-3.52c-2.36-1.64-3.96-3.72-5.16-6.28s-2-5.6-2.24-8.72
	c-0.24-3.12,0.08-6.32,0.52-8.8c0.44-2.48,1-4.24,1.6-5.8C99.76,588.8,100.4,587.44,99.28,587z"/>
<path class="st0" d="M123.28,575.6c0.8-1.04,0.8-1.04,3.68,1.32c2.88,2.36,8.64,7.08,11.52,9.44c2.88,2.36,2.88,2.36,1.88,3.76
	c-1,1.4-3,4.2-4.24,7c-1.24,2.8-1.72,5.6-2.24,7.88c-0.52,2.28-1.08,4.04-2.32,5.8c-1.24,1.76-3.16,3.52-5.6,4.8
	c-2.44,1.28-5.4,2.08-8.24,2.28c-2.84,0.2-5.56-0.2-8.04-1.4c-2.48-1.2-4.72-3.2-6.24-5.64c-1.52-2.44-2.32-5.32-2.52-8.24
	c-0.2-2.92,0.2-5.88,1.16-8.32c0.96-2.44,2.48-4.36,4.52-5.68c2.04-1.32,4.6-2.04,6.8-3.24c2.2-1.2,4.04-2.88,5.76-4.76
	C120.88,578.72,122.48,576.64,123.28,575.6z"/>
<path class="st0" d="M129.6,566.64c-0.72,0.96-1.92,2.64-2.52,3.48c-0.6,0.84-0.6,0.84,2.44,3.16c3.04,2.32,9.12,6.96,12.16,9.28
	c3.04,2.32,3.04,2.32,3.76,1.4c0.72-0.92,2.16-2.76,2.88-3.68c0.72-0.92,0.72-0.92-2.32-3.28c-3.04-2.36-9.12-7.08-12.28-9.32
	C130.56,565.44,130.32,565.68,129.6,566.64z"/>
<path class="st0" d="M136.48,564.4c-2.88-2.4-2.72-2.72-2-4.44c0.72-1.72,2-4.84,3.36-9.28c1.36-4.44,2.8-10.2,4.48-15.72
	c1.68-5.52,3.6-10.8,5.72-15.88c2.12-5.08,4.44-9.96,7.04-14.72c2.6-4.76,5.48-9.4,8.92-13.76c3.44-4.36,7.44-8.44,11.48-12.12
	c4.04-3.68,8.12-6.96,11.68-9.64c3.56-2.68,6.6-4.76,8.12-5.8c1.52-1.04,1.52-1.04,6.8,2.52c5.28,3.56,15.84,10.68,21.12,14.24
	c5.28,3.56,5.28,3.56,5.16,5.36c-0.12,1.8-0.36,5.4-1.28,9.44c-0.92,4.04-2.52,8.52-4.72,13.12c-2.2,4.6-5,9.32-8,13.8
	c-3,4.48-6.2,8.72-10.44,13.32c-4.24,4.6-9.52,9.56-14.4,13.56c-4.88,4-9.36,7.04-13.48,9.52c-4.12,2.48-7.88,4.4-10.96,6.24
	c-3.08,1.84-5.48,3.6-7.68,5.52c-2.2,1.92-4.2,4-5.2,5.04c-1,1.04-1,1.04-3.96-1.2C145.28,571.28,139.36,566.8,136.48,564.4z"/>
<path class="st0" d="M256.24,352.52c0.16,1.16,0,4.2,0.12,6.8c0.12,2.6,0.52,4.76,1.48,6.8c0.96,2.04,2.48,3.96,3.52,5.16
	c1.04,1.2,1.6,1.68,1.6,2.24c0,0.56-0.56,1.2-3.16,4.88c-2.6,3.68-7.24,10.4-11.16,15.64c-3.92,5.24-7.12,9-10.32,12.48
	c-3.2,3.48-6.4,6.68-9.16,9.32c-2.76,2.64-5.08,4.72-6.24,5.6c-1.16,0.88-1.16,0.56,0-2.84c1.16-3.4,3.48-9.88,6.56-17
	c3.08-7.12,6.92-14.88,10.96-22.52c4.04-7.64,8.28-15.16,10.76-19.52c2.48-4.36,3.2-5.56,3.8-6.52
	C255.6,352.08,256.08,351.36,256.24,352.52z"/>
<path class="st0" d="M205.24,452.44c1,1.16,3.24,3.08,4.36,4.04c1.12,0.96,1.12,0.96,1.24,0.68c0.12-0.28,0.36-0.84,3.92-5.88
	c3.56-5.04,10.44-14.56,14.68-21c4.24-6.44,5.84-9.8,7.08-12.08s2.12-3.48,7.52-10.76c5.4-7.28,15.32-20.64,20.24-27.32
	c4.92-6.68,4.84-6.68,4.48-6.92c-0.36-0.24-1-0.72-1.32-0.96c-0.32-0.24-0.32-0.24-5.24,6.48c-4.92,6.72-14.76,20.16-20.12,27.4
	c-5.36,7.24-6.24,8.28-8.32,10.4c-2.08,2.12-5.36,5.32-10.4,11.16S211.52,442,208,446.44C204.48,450.88,204.24,451.28,205.24,452.44
	z"/>
<path class="st1" d="M303.56,324.45c2.12,1.64,4.12,3.88,5.48,6c1.36,2.12,2.08,4.12,2.36,6.96c0.28,2.84,0.12,6.52-0.6,10.08
	c-0.72,3.56-2,7-3.96,10.4c-1.96,3.4-4.6,6.76-7.12,9.4c-2.52,2.64-4.92,4.56-7.76,5.8c-2.84,1.24-6.12,1.8-9.44,1.88
	c-3.32,0.08-6.68-0.32-9.12-0.96c-2.44-0.64-3.96-1.52-5.56-2.92c-1.6-1.4-3.28-3.32-4.6-5.76c-1.32-2.44-2.28-5.4-2.6-8.4
	c-0.32-3,0-6.04,0.72-9c0.72-2.96,1.84-5.84,3.48-8.48c1.64-2.64,3.8-5.04,6.28-7.48c2.48-2.44,5.28-4.92,8.16-6.72
	c2.88-1.8,5.84-2.92,8.8-3.56c2.96-0.64,5.92-0.8,8.52-0.36C299.2,321.77,301.44,322.81,303.56,324.45z"/>
<path class="st0" d="M264.28,555.16c1.56-0.28,3.64-1.96,5.32-3.8c1.68-1.84,2.96-3.84,3.68-7.16c0.72-3.32,0.88-7.96,1.6-12.52
	s2-9.04,3.64-13.92c1.64-4.88,3.64-10.16,5.48-15.08c1.84-4.92,3.52-9.48,4.68-14.6c1.16-5.12,1.8-10.8,2.52-13.52
	c0.72-2.72,1.52-2.48,12.96-3.28c11.44-0.8,33.52-2.64,44.32-3.68c10.8-1.04,10.32-1.28,7.24-2.76c-3.08-1.48-8.76-4.2-14.16-6.48
	c-5.4-2.28-10.52-4.12-16.28-5.12c-5.76-1-12.16-1.16-19.36-1.08c-7.2,0.08-15.2,0.4-21.4,0.8c-6.2,0.4-10.6,0.88-13.72,1.08
	c-3.12,0.2-4.96,0.12-6.8-0.48c-1.84-0.6-3.68-1.72-4.64-3.96c-0.96-2.24-1.04-5.6-1.04-7.36c0-1.76,0.08-1.92-1.76-1.88
	c-1.84,0.04-5.6,0.28-7.4,0.36c-1.8,0.08-1.64,0-1.84,0.44c-0.2,0.44-0.76,1.4-1.12,5.48c-0.36,4.08-0.52,11.28-0.12,15.88
	c0.4,4.6,1.36,6.6,1.84,10.8c0.48,4.2,0.48,10.6,0.24,16.28c-0.24,5.68-0.72,10.64-0.56,16.44c0.16,5.8,0.96,12.44,2.44,19.16
	c1.48,6.72,3.64,13.52,5.52,18.2c1.88,4.68,3.48,7.24,4.8,9.08C261.68,554.32,262.72,555.44,264.28,555.16z"/>
<path class="st0" d="M245.96,410.12c-1.72,2.76-4.92,8.84-8.52,15c-3.6,6.16-7.6,12.4-11.88,18.36
	c-4.28,5.96-8.84,11.64-11.44,14.84c-2.6,3.2-3.24,3.92-2.24,5.12c1,1.2,3.64,2.88,6.84,5.16c3.2,2.28,6.96,5.16,10.12,7.84
	c3.16,2.68,5.72,5.16,7.24,6.56c1.52,1.4,2,1.72,2.6,1.4c0.6-0.32,1.32-1.28,2.68-3.04c1.36-1.76,3.36-4.32,4.36-5.72
	c1-1.4,1-1.64,0.64-3.28c-0.36-1.64-1.08-4.68-1.6-7.68c-0.52-3-0.84-5.96-0.92-9.12c-0.08-3.16,0.08-6.52,0.36-9.4
	c0.28-2.88,0.68-5.28,1.16-6.48c0.48-1.2,1.04-1.2,6.16-1.28c5.12-0.08,14.8-0.24,19.28-0.44c4.48-0.2,3.76-0.44,1.84-1.12
	c-1.92-0.68-5.04-1.8-8.16-3.88c-3.12-2.08-6.24-5.12-8.8-8.24c-2.56-3.12-4.56-6.32-5.72-9.04c-1.16-2.72-1.48-4.96-1.76-6.36
	C247.92,407.92,247.68,407.36,245.96,410.12z"/>
<path class="st2" d="M272.96,380.72c-0.8,0.08-2.96,0.72-5.08,1.84c-2.12,1.12-4.2,2.72-5.88,4.44c-1.68,1.72-2.96,3.56-3.68,4.72
	c-0.72,1.16-0.88,1.64-0.96,2.84c-0.08,1.2-0.08,3.12,0.12,4.6c0.2,1.48,0.6,2.52,1.12,3.4c0.52,0.88,1.16,1.6,1.64,1.84
	c0.48,0.24,0.8,0,1.08-1.12c0.28-1.12,0.52-3.12,0.96-5.24c0.44-2.12,1.08-4.36,2.08-6.52s2.36-4.24,3.8-5.88
	c1.44-1.64,2.96-2.84,4-3.68C273.2,381.12,273.76,380.64,272.96,380.72z"/>
<path class="st0" d="M278.6,380.32c-1.8,0.56-3.64,1.52-5.48,3.12c-1.84,1.6-3.68,3.84-5.2,6.28c-1.52,2.44-2.72,5.08-3.36,7.28
	c-0.64,2.2-0.72,3.96-0.52,5.04c0.2,1.08,0.68,1.48,1.64,1.28c0.96-0.2,2.4-1,4.48-2.16c2.08-1.16,4.8-2.68,7.36-4.32
	c2.56-1.64,4.96-3.4,7.04-4.8c2.08-1.4,3.84-2.44,5.64-3.24c1.8-0.8,3.64-1.36,5.28-1.6c1.64-0.24,3.08-0.16,3.8-0.24
	c0.72-0.08,0.72-0.32,0-0.96c-0.72-0.64-2.16-1.68-3.68-2.6c-1.52-0.92-3.12-1.72-5.08-2.36c-1.96-0.64-4.28-1.12-6.32-1.28
	C282.16,379.6,280.4,379.76,278.6,380.32z"/>
<path class="st0" d="M263.4,406.8c-0.36,1.12-0.36,3.2-0.36,4.24c0,1.04,0,1.04,2.36,1c2.36-0.04,7.08-0.12,11.44-0.12
	c4.36,0,8.36,0.08,11.84-0.2c3.48-0.28,6.44-0.92,9.04-1.56c2.6-0.64,4.84-1.28,6.56-1.92c1.72-0.64,2.92-1.28,3.52-1.64
	c0.6-0.36,0.6-0.44,0.52-1.64c-0.08-1.2-0.24-3.52-0.64-5.48c-0.4-1.96-1.04-3.56-1.88-5.16c-0.84-1.6-1.88-3.2-2.64-4.2
	c-0.76-1-1.24-1.4-1.8-1.64c-0.56-0.24-1.2-0.32-2.56-0.16c-1.36,0.16-3.44,0.56-5.44,1.36c-2,0.8-3.92,2-5.92,3.28
	c-2,1.28-4.08,2.64-6.28,4.12c-2.2,1.48-4.52,3.08-6.48,4.28c-1.96,1.2-3.56,2-5.08,2.6c-1.52,0.6-2.96,1-4.04,1.28
	C264.48,405.52,263.76,405.68,263.4,406.8z"/>
<path class="st0" d="M265.4,414.88c2.6-0.16,7.8-0.16,12.2-0.2c4.4-0.04,8-0.12,11.24-0.48c3.24-0.36,6.12-1,8.68-1.64
	c2.56-0.64,4.8-1.28,6.56-1.84c1.76-0.56,3.04-1.04,3.76-1.16s0.88,0.12,0.8,1.36c-0.08,1.24-0.4,3.48-1.2,5.64s-2.08,4.24-3.28,6
	c-1.2,1.76-2.32,3.2-3.56,4.32c-1.24,1.12-2.6,1.92-4.28,2.4c-1.68,0.48-3.68,0.64-5.84,0.48c-2.16-0.16-4.48-0.64-6.76-1.44
	c-2.28-0.8-4.52-1.92-6.44-2.96c-1.92-1.04-3.52-2-5.08-2.8c-1.56-0.8-3.08-1.44-4.6-1.92c-1.52-0.48-3.04-0.8-3.88-0.92
	c-0.84-0.12-1-0.04-1.04-0.68c-0.04-0.64,0.04-2,0.08-2.84C262.8,415.36,262.8,415.04,265.4,414.88z"/>
<path class="st0" d="M263.96,422c0.12-0.56,0.92-0.56,2.12-0.24c1.2,0.32,2.8,0.96,4.6,1.88c1.8,0.92,3.8,2.12,5.72,3.12
	c1.92,1,3.76,1.8,5.72,2.48c1.96,0.68,4.04,1.24,5.76,1.56c1.72,0.32,3.08,0.4,3.88,0.48c0.8,0.08,1.04,0.16,0.6,0.52
	c-0.44,0.36-1.56,1-3.32,1.56c-1.76,0.56-4.16,1.04-6.72,1.28c-2.56,0.24-5.28,0.24-7.08,0.16c-1.8-0.08-2.68-0.24-3.72-1
	c-1.04-0.76-2.24-2.12-3.36-3.72c-1.12-1.6-2.16-3.44-2.96-4.92C264.4,423.68,263.84,422.56,263.96,422z"/>
<path class="st0" d="M257.4,421.52c0.76-0.16,2.36-0.24,3.36-0.12c1,0.12,1.4,0.44,2.04,1.56c0.64,1.12,1.52,3.04,2.48,4.84
	c0.96,1.8,2,3.48,2.44,4.28c0.44,0.8,0.28,0.72-0.64,0.08c-0.92-0.64-2.6-1.84-4.32-3.36c-1.72-1.52-3.48-3.36-4.48-4.52
	c-1-1.16-1.24-1.64-1.4-2C256.72,421.92,256.64,421.68,257.4,421.52z"/>
<path class="st0" d="M255.88,419.88c0.44,0.28,0.92,0.2,1.8,0.16c0.88-0.04,2.16-0.04,2.8-0.08c0.64-0.04,0.64-0.12,0.6-1.08
	c-0.04-0.96-0.12-2.8-0.16-3.72c-0.04-0.92-0.04-0.92-0.48-1.04c-0.44-0.12-1.32-0.36-2.32-0.6c-1-0.24-2.12-0.48-2.96-0.72
	c-0.84-0.24-1.4-0.48-1.72-0.64c-0.32-0.16-0.4-0.24-0.4,0.28c0,0.52,0.08,1.64,0.36,2.72c0.28,1.08,0.76,2.12,1.2,2.96
	C255.04,418.96,255.44,419.6,255.88,419.88z"/>
<path class="st0" d="M253,409.08c0.52,0.6,1.56,1.32,2.8,1.84c1.24,0.52,2.68,0.84,3.56,1c0.88,0.16,1.2,0.16,1.4,0.16
	c0.2,0,0.28,0,0.32-1c0.04-1,0.04-3,0-4c-0.04-1-0.12-1-0.44-1.12c-0.32-0.12-0.88-0.36-1.52-0.84c-0.64-0.48-1.36-1.2-1.88-2.08
	c-0.52-0.88-0.84-1.92-1.08-3.04c-0.24-1.12-0.4-2.32-0.44-3.28c-0.04-0.96,0.04-1.68-0.04-1.84c-0.08-0.16-0.32,0.24-0.72,1.16
	c-0.4,0.92-0.96,2.36-1.36,3.84c-0.4,1.48-0.64,3-0.8,4.28c-0.16,1.28-0.24,2.32-0.28,3.08C252.48,408,252.48,408.48,253,409.08z"/>
<path class="st0" d="M292.48,378.76c0.96,0.52,3.04,1.32,5.12,2.68c2.08,1.36,4.16,3.28,6,5.4c1.84,2.12,3.44,4.44,4.64,6.96
	c1.2,2.52,2,5.24,2.6,8.36c0.6,3.12,1,6.64,1.28,8.4c0.28,1.76,0.44,1.76,1.2,0.88c0.76-0.88,2.12-2.64,3.92-5.12
	c1.8-2.48,4.04-5.68,6.4-8.96c2.36-3.28,4.84-6.64,7.04-9.2c2.2-2.56,4.12-4.32,5.08-5.36c0.96-1.04,0.96-1.36-0.4-3.08
	c-1.36-1.72-4.08-4.84-6.4-8.04c-2.32-3.2-4.24-6.48-5.92-9.36c-1.68-2.88-3.12-5.36-4.08-7.44c-0.96-2.08-1.44-3.76-1.84-4.6
	c-0.4-0.84-0.72-0.84-1.24,0.36c-0.52,1.2-1.24,3.6-2.68,6.28c-1.44,2.68-3.6,5.64-6.08,8.44c-2.48,2.8-5.28,5.44-7.44,7.28
	c-2.16,1.84-3.68,2.88-4.88,3.6s-2.08,1.12-2.6,1.44C291.68,378,291.52,378.24,292.48,378.76z"/>
<path class="st0" d="M262.56,441.96c-0.16,1.64-0.08,4.84-0.04,6.44c0.04,1.6,0.04,1.6,8.4,0.8c8.36-0.8,25.08-2.4,34.36-3.16
	c9.28-0.76,11.12-0.68,14-0.32c2.88,0.36,6.8,1,10.44,1.92c3.64,0.92,7,2.12,10.32,3.48c3.32,1.36,6.6,2.88,8.56,3.68
	c1.96,0.8,2.6,0.88,2.36,0.56c-0.24-0.32-1.36-1.04-2.6-1.92c-1.24-0.88-2.6-1.92-4.56-2.92c-1.96-1-4.52-1.96-7.32-2.88
	c-2.8-0.92-5.84-1.8-8.88-2.4c-3.04-0.6-6.08-0.92-7.68-1.08c-1.6-0.16-1.76-0.16-1.88-0.96c-0.12-0.8-0.2-2.4-0.2-3.2
	c0-0.8,0.08-0.8,1.28-1.16c1.2-0.36,3.52-1.08,6.36-2.2c2.84-1.12,6.2-2.64,9.28-4.2c3.08-1.56,5.88-3.16,7.96-4.76
	c2.08-1.6,3.44-3.2,4.04-4.28c0.6-1.08,0.44-1.64-0.68-1.04c-1.12,0.6-3.2,2.36-5.96,4.12s-6.2,3.52-9.4,5.08
	c-3.2,1.56-6.16,2.92-8.48,3.8c-2.32,0.88-4,1.28-5.6,1.56c-1.6,0.28-3.12,0.44-11.96,0.96c-8.84,0.52-25,1.4-33.28,1.88
	C263.12,440.24,262.72,440.32,262.56,441.96z"/>
<path class="st1" d="M342.62,441.25c0.3,2.53,0.74,5.9,2.14,8.62c1.4,2.72,3.76,4.79,6.78,6.86c3.02,2.07,6.7,4.15,10.22,5.71
	c3.52,1.56,6.88,2.6,11.08,3.12c4.2,0.52,9.24,0.52,13.72,0.08c4.48-0.44,8.4-1.32,12.24-2.88c3.84-1.56,7.6-3.8,10.56-6
	c2.96-2.2,5.12-4.36,6.68-6.44c1.56-2.08,2.52-4.08,3.28-6.16c0.76-2.08,1.32-4.24,1.48-6.92c0.16-2.68-0.08-5.88-0.92-8.56
	c-0.84-2.68-2.28-4.84-3.92-6.84c-1.64-2-3.48-3.84-5.96-5.64c-2.48-1.8-5.6-3.56-9.28-5.04c-3.68-1.48-7.92-2.68-12.28-3.28
	c-4.36-0.6-8.84-0.6-12.92,0c-4.08,0.6-7.76,1.8-11.52,3.48c-3.76,1.68-7.6,3.84-10.34,5.56c-2.74,1.72-4.38,3-6.1,5.12
	c-1.72,2.12-3.52,5.08-4.46,7.44c-0.94,2.36-1.02,4.12-0.98,5.84C342.16,437.04,342.32,438.72,342.62,441.25z"/>
<path class="st2" d="M424.44,439.88c-0.44,1-1,3.4-1.84,5.68c-0.84,2.28-1.96,4.44-3.4,6.52c-1.44,2.08-3.2,4.08-4.36,5.4
	c-1.16,1.32-1.72,1.96-1.52,2.2c0.2,0.24,1.16,0.08,6-1.04c4.84-1.12,13.56-3.2,17.96-4.44c4.4-1.24,4.48-1.64,3.88-1.92
	c-0.6-0.28-1.88-0.44-3.48-0.92c-1.6-0.48-3.52-1.28-5.28-2.56c-1.76-1.28-3.36-3.04-4.48-4.64c-1.12-1.6-1.76-3.04-2.24-3.96
	C425.2,439.28,424.88,438.88,424.44,439.88z"/>
<path class="st0" d="M424.88,431.04c0.08,0.88,0.48,2.72,1.28,4.4c0.8,1.68,2,3.2,3.2,4.56c1.2,1.36,2.4,2.56,4.04,3.72
	c1.64,1.16,3.72,2.28,5.88,3.08c2.16,0.8,4.4,1.28,6.96,1.48c2.56,0.2,5.44,0.12,7.72-0.28c2.28-0.4,3.96-1.12,5.08-2.08
	c1.12-0.96,1.68-2.16,1.8-3.24c0.12-1.08-0.2-2.04-1.04-3.36c-0.84-1.32-2.2-3-3.6-4.12c-1.4-1.12-2.84-1.68-4.88-2.2
	c-2.04-0.52-4.68-1-7.84-1.12c-3.16-0.12-6.84,0.12-9.68,0.12s-4.84-0.24-6.12-0.56c-1.28-0.32-1.84-0.72-2.24-0.96
	C425.04,430.24,424.8,430.16,424.88,431.04z"/>
<path class="st0" d="M435.48,402.76c-1.32,0.68-3,1.88-4.64,3.64c-1.64,1.76-3.24,4.08-4.48,6.64c-1.24,2.56-2.12,5.36-2.44,7.6
	c-0.32,2.24-0.08,3.92,0.28,5.08c0.36,1.16,0.84,1.8,1.72,2.4c0.88,0.6,2.16,1.16,4.12,1.56c1.96,0.4,4.6,0.64,7.64,0.72
	c3.04,0.08,6.48,0,9.44,0.16c2.96,0.16,5.44,0.56,7.52,1.52c2.08,0.96,3.76,2.48,4.96,3.8c1.2,1.32,1.92,2.44,2.28,3.36
	c0.36,0.92,0.36,1.64,0.36,2.2c0,0.56,0,0.96,0.2,1.2c0.2,0.24,0.6,0.32,1.28-0.28c0.68-0.6,1.64-1.88,2.96-3.8
	c1.32-1.92,3-4.48,3.96-6.8c0.96-2.32,1.2-4.4,1.24-6.8c0.04-2.4-0.12-5.12-0.48-6.84c-0.36-1.72-0.92-2.44-1.64-2.84
	c-0.72-0.4-1.6-0.48-2.76-0.72c-1.16-0.24-2.6-0.64-4.32-1.64c-1.72-1-3.72-2.6-5.76-4.08c-2.04-1.48-4.12-2.84-6.32-3.92
	c-2.2-1.08-4.52-1.88-6.52-2.36c-2-0.48-3.68-0.64-5-0.64S436.8,402.08,435.48,402.76z"/>
<path class="st0" d="M441.52,400.52c1.04,0.28,3.2,0.52,5.4,1.08c2.2,0.56,4.44,1.44,6.52,2.48c2.08,1.04,4,2.24,5.4,3.28
	c1.4,1.04,2.28,1.92,3.36,2.68c1.08,0.76,2.36,1.4,3.6,1.84c1.24,0.44,2.44,0.68,3.2,0.76c0.76,0.08,1.08,0,1-0.44
	c-0.08-0.44-0.56-1.24-1.44-2.32c-0.88-1.08-2.16-2.44-3.6-3.64c-1.44-1.2-3.04-2.24-4.88-3.24c-1.84-1-3.92-1.96-5.96-2.64
	c-2.04-0.68-4.04-1.08-5.84-1.32c-1.8-0.24-3.4-0.32-4.64-0.2c-1.24,0.12-2.12,0.44-2.6,0.76
	C440.56,399.92,440.48,400.24,441.52,400.52z"/>
<path class="st0" d="M442.92,369.68c0.12,2.16,0.36,6.32,0.4,10.52c0.04,4.2-0.12,8.44,0.12,10.6c0.24,2.16,0.88,2.24,2.16,2.68
	c1.28,0.44,3.2,1.24,4.88,2.12c1.68,0.88,3.12,1.84,4.2,2.36c1.08,0.52,1.8,0.6,2.88,0.6c1.08,0,2.52-0.08,3.72-0.08
	c1.2,0,2.16,0.08,2.84-0.04c0.68-0.12,1.08-0.44,0.44-1.44c-0.64-1-2.32-2.68-4.56-5.6c-2.24-2.92-5.04-7.08-7.52-10.84
	c-2.48-3.76-4.64-7.12-6-9.32c-1.36-2.2-1.92-3.24-2.4-3.72c-0.48-0.48-0.88-0.4-1.08-0.28C442.8,367.36,442.8,367.52,442.92,369.68
	z"/>
<path class="st2" d="M317.92,313.2c-0.08,3.76,0.24,10.88,0.84,17.04c0.6,6.16,1.48,11.36,3.2,16.6c1.72,5.24,4.28,10.52,7.36,15.72
	c3.08,5.2,6.68,10.32,9.72,14.12c3.04,3.8,5.52,6.28,8.16,8.84c2.64,2.56,5.44,5.2,8.92,7.64c3.48,2.44,7.64,4.68,12.08,6.6
	c4.44,1.92,9.16,3.52,13.96,4.44c4.8,0.92,9.68,1.16,15.2,1.4c5.52,0.24,11.68,0.48,17.28-0.08c5.6-0.56,10.64-1.92,14.56-3.16
	c3.92-1.24,6.72-2.36,8.16-3.04c1.44-0.68,1.52-0.92,1.56-3.08c0.04-2.16,0.04-6.24-0.08-11.72c-0.12-5.48-0.36-12.36-1.12-17.96
	c-0.76-5.6-2.04-9.92-4.24-14.56c-2.2-4.64-5.32-9.6-9.08-14.52c-3.76-4.92-8.16-9.8-12.24-13.72c-4.08-3.92-7.84-6.88-12.04-9.44
	c-4.2-2.56-8.84-4.72-15.04-6.76c-6.2-2.04-13.96-3.96-21.28-4.72c-7.32-0.76-14.2-0.36-20.4,0.48c-6.2,0.84-11.72,2.12-15.68,3.08
	c-3.96,0.96-6.36,1.6-7.8,2.12C318.48,309.04,318,309.44,317.92,313.2z"/>
<path class="st3" d="M324.76,345.6c0.52,2.4,1.8,5.28,2.56,6.68c0.76,1.4,1,1.32,1.12-0.16c0.12-1.48,0.12-4.36,0.68-7.84
	c0.56-3.48,1.68-7.56,3.16-11.32c1.48-3.76,3.32-7.2,5.6-10.28c2.28-3.08,5-5.8,7.36-8c2.36-2.2,4.36-3.88,6.52-5.2
	c2.16-1.32,4.48-2.28,6.48-2.96c2-0.68,3.68-1.08,4.28-1.48c0.6-0.4,0.12-0.8-1.84-1c-1.96-0.2-5.4-0.2-8.16,0.36
	c-2.76,0.56-4.84,1.68-7.52,3.6c-2.68,1.92-5.96,4.64-8.88,8.04c-2.92,3.4-5.48,7.48-7.32,11.48c-1.84,4-2.96,7.92-3.64,10.84
	C324.48,341.28,324.24,343.2,324.76,345.6z"/>
<path class="st3" d="M397.12,402.76c0.88,0.28,3.12,0.6,5.16,0.72c2.04,0.12,3.88,0.04,6.36-0.92c2.48-0.96,5.6-2.8,8.6-5.2
	c3-2.4,5.88-5.36,8.44-8.36c2.56-3,4.8-6.04,6.44-9.4c1.64-3.36,2.68-7.04,3.08-10.04c0.4-3,0.16-5.32-0.6-7.56
	c-0.76-2.24-2.04-4.4-2.84-5.44c-0.8-1.04-1.12-0.96-1.2,0.44s0.08,4.12-0.24,7.28c-0.32,3.16-1.12,6.76-2.32,9.96
	c-1.2,3.2-2.8,6-4.72,8.76s-4.16,5.48-6.84,7.96c-2.68,2.48-5.8,4.72-8.52,6.4c-2.72,1.68-5.04,2.8-6.76,3.48
	c-1.72,0.68-2.84,0.92-3.64,1.16C396.72,402.24,396.24,402.48,397.12,402.76z"/>
<path class="st4" d="M360.16,314.16c-0.88,0.88-2.32,2.72-2.92,3.84c-0.6,1.12-0.36,1.52,0.4,1.76c0.76,0.24,2.04,0.32,2.68,0.48
	c0.64,0.16,0.64,0.4-0.12,1.32c-0.76,0.92-2.28,2.52-2.96,3.48c-0.68,0.96-0.52,1.28,0.12,1.52c0.64,0.24,1.76,0.4,2.44,0.36
	c0.68-0.04,0.92-0.28,1.64-1.24c0.72-0.96,1.92-2.64,3.08-3.36c1.16-0.72,2.28-0.48,2.8-0.04c0.52,0.44,0.44,1.08-0.28,2.08
	c-0.72,1-2.08,2.36-2.64,3.16c-0.56,0.8-0.32,1.04,0.16,1.32c0.48,0.28,1.2,0.6,1.72,0.68c0.52,0.08,0.84-0.08,1.72-1.16
	c0.88-1.08,2.32-3.08,3.24-3.96c0.92-0.88,1.32-0.64,1.84-0.28c0.52,0.36,1.16,0.84,1.56,1.32c0.4,0.48,0.56,0.96-0.08,1.88
	c-0.64,0.92-2.08,2.28-2.68,3.12c-0.6,0.84-0.36,1.16,0.08,1.44c0.44,0.28,1.08,0.52,1.56,0.64c0.48,0.12,0.8,0.12,1.68-0.8
	c0.88-0.92,2.32-2.76,3.2-3.68c0.88-0.92,1.2-0.92,1.8-0.56c0.6,0.36,1.48,1.08,1.92,1.6c0.44,0.52,0.44,0.84-0.28,1.76
	c-0.72,0.92-2.16,2.44-2.76,3.36c-0.6,0.92-0.36,1.24,0.08,1.6c0.44,0.36,1.08,0.76,1.52,0.88c0.44,0.12,0.68-0.04,1.36-0.96
	c0.68-0.92,1.8-2.6,2.64-3.44c0.84-0.84,1.4-0.84,2.12-0.48c0.72,0.36,1.6,1.08,2,1.6c0.4,0.52,0.32,0.84-0.48,1.76
	c-0.8,0.92-2.32,2.44-3.04,3.4c-0.72,0.96-0.64,1.36-0.36,1.64c0.28,0.28,0.76,0.44,1.2,0.52c0.44,0.08,0.84,0.08,1.68-0.8
	c0.84-0.88,2.12-2.64,2.96-3.48c0.84-0.84,1.24-0.76,1.88-0.4c0.64,0.36,1.52,1,1.92,1.6c0.4,0.6,0.32,1.16-0.4,2
	c-0.72,0.84-2.08,1.96-2.8,2.68s-0.8,1.04-0.44,1.56c0.36,0.52,1.16,1.24,1.76,1.6c0.6,0.36,1,0.36,1.88-0.52
	c0.88-0.88,2.24-2.64,3.12-3.48c0.88-0.84,1.28-0.76,1.76-0.52c0.48,0.24,1.04,0.64,1.24,1.04s0.04,0.8-0.8,1.76
	c-0.84,0.96-2.36,2.48-3.12,3.44c-0.76,0.96-0.76,1.36-0.36,1.84c0.4,0.48,1.2,1.04,1.72,1.28c0.52,0.24,0.76,0.16,1.52-0.72
	c0.76-0.88,2.04-2.56,2.88-3.4c0.84-0.84,1.24-0.84,1.84-0.44c0.6,0.4,1.4,1.2,1.76,1.76c0.36,0.56,0.28,0.88-0.52,1.84
	c-0.8,0.96-2.32,2.56-3.08,3.48c-0.76,0.92-0.76,1.16-0.44,1.56c0.32,0.4,0.96,0.96,1.48,1.28c0.52,0.32,0.92,0.4,1.76-0.36
	c0.84-0.76,2.12-2.36,2.88-3.2c0.76-0.84,1-0.92,1.48-0.44c0.48,0.48,1.2,1.52,1.48,2.32c0.28,0.8,0.12,1.36-0.76,2.36
	c-0.88,1-2.48,2.44-3.16,3.32c-0.68,0.88-0.44,1.2-0.04,1.52c0.4,0.32,0.96,0.64,2,0c1.04-0.64,2.56-2.24,3.52-3.04
	c0.96-0.8,1.36-0.8,1.8-0.44c0.44,0.36,0.92,1.08,1.08,1.64c0.16,0.56,0,0.96-0.88,1.96c-0.88,1-2.48,2.6-3.2,3.72
	s-0.56,1.76-0.12,2.24c0.44,0.48,1.16,0.8,2.24,0.12c1.08-0.68,2.52-2.36,3.44-3.24c0.92-0.88,1.32-0.96,1.72-0.72
	c0.4,0.24,0.8,0.8,1.6,0.48c0.8-0.32,2-1.52,2.6-2.28c0.6-0.76,0.6-1.08,0.32-1.72c-0.28-0.64-0.84-1.6-1.16-2.2
	s-0.4-0.84,0.48-1.88c0.88-1.04,2.72-2.88,3.64-3.84c0.92-0.96,0.92-1.04,0.6-1.64c-0.32-0.6-0.96-1.72-1.48-2.2
	c-0.52-0.48-0.92-0.32-1.72,0.72c-0.8,1.04-2,2.96-2.84,3.92c-0.84,0.96-1.32,0.96-1.92,0.6c-0.6-0.36-1.32-1.08-1.68-1.64
	c-0.36-0.56-0.36-0.96,0.6-2.08c0.96-1.12,2.88-2.96,3.92-4.2c1.04-1.24,1.2-1.88,0.96-2.56c-0.24-0.68-0.88-1.4-1.36-1.76
	c-0.48-0.36-0.8-0.36-1.76,0.68c-0.96,1.04-2.56,3.12-3.56,4.24c-1,1.12-1.4,1.28-1.76,1.08c-0.36-0.2-0.68-0.76-0.96-1.24
	c-0.28-0.48-0.52-0.88,0.32-2.16c0.84-1.28,2.76-3.44,3.68-4.72c0.92-1.28,0.84-1.68,0.44-2.12c-0.4-0.44-1.12-0.92-1.64-1.12
	c-0.52-0.2-0.84-0.12-1.72,0.92c-0.88,1.04-2.32,3.04-3.16,4.08c-0.84,1.04-1.08,1.12-1.72,0.72c-0.64-0.4-1.68-1.28-2.2-1.88
	c-0.52-0.6-0.52-0.92,0.48-2.04c1-1.12,3-3.04,3.96-4.24c0.96-1.2,0.88-1.68,0.52-2.16c-0.36-0.48-1-0.96-1.48-1.16
	c-0.48-0.2-0.8-0.12-1.76,1c-0.96,1.12-2.56,3.28-3.6,4.4c-1.04,1.12-1.52,1.2-2.04,0.88c-0.52-0.32-1.08-1.04-1.36-1.56
	c-0.28-0.52-0.28-0.84,0.68-2.04c0.96-1.2,2.88-3.28,3.84-4.48c0.96-1.2,0.96-1.52,0.56-1.92c-0.4-0.4-1.2-0.88-1.76-1.08
	c-0.56-0.2-0.88-0.12-1.8,1c-0.92,1.12-2.44,3.28-3.36,4.36c-0.92,1.08-1.24,1.08-1.88,0.76c-0.64-0.32-1.6-0.96-2.08-1.52
	c-0.48-0.56-0.48-1.04,0.48-2.28c0.96-1.24,2.88-3.24,3.84-4.44c0.96-1.2,0.96-1.6,0.6-2.04c-0.36-0.44-1.08-0.92-1.64-1.04
	c-0.56-0.12-0.96,0.12-1.92,1.36c-0.96,1.24-2.48,3.48-3.36,4.64c-0.88,1.16-1.12,1.24-1.72,1.04c-0.6-0.2-1.56-0.68-2.04-1.16
	c-0.48-0.48-0.48-0.96,0.44-2.2c0.92-1.24,2.76-3.24,3.68-4.44c0.92-1.2,0.92-1.6,0.4-2.08c-0.52-0.48-1.56-1.04-2.24-1.24
	c-0.68-0.2-1-0.04-1.88,1.16c-0.88,1.2-2.32,3.44-3.2,4.68c-0.88,1.24-1.2,1.48-1.92,1.36s-1.84-0.6-2.48-1.04
	c-0.64-0.44-0.8-0.84,0.08-2.12c0.88-1.28,2.8-3.44,3.8-4.72c1-1.28,1.08-1.68,0.6-2.08c-0.48-0.4-1.52-0.8-2.2-0.88
	c-0.68-0.08-1,0.16-1.8,1.32c-0.8,1.16-2.08,3.24-2.92,4.4c-0.84,1.16-1.24,1.4-2.04,1.32c-0.8-0.08-2-0.48-2.6-0.76
	c-0.6-0.28-0.6-0.44,0.32-1.64c0.92-1.2,2.76-3.44,3.68-4.8c0.92-1.36,0.92-1.84,0.4-2.2c-0.52-0.36-1.56-0.6-2.24-0.6
	s-1,0.24-1.76,1.32c-0.76,1.08-1.96,3-2.76,4.04c-0.8,1.04-1.2,1.2-2.04,1.12c-0.84-0.08-2.12-0.4-2.76-0.72
	c-0.64-0.32-0.64-0.64,0.12-1.6c0.76-0.96,2.28-2.56,3.04-3.56c0.76-1,0.76-1.4,0.28-1.68c-0.48-0.28-1.44-0.44-2.04-0.44
	s-0.84,0.16-1.48,1.16c-0.64,1-1.68,2.84-2.36,3.88c-0.68,1.04-1,1.28-1.76,1.24c-0.76-0.04-1.96-0.36-2.72-0.56
	C361.36,313.36,361.04,313.28,360.16,314.16z"/>
<path class="st0" d="M273.4,323.24c1.24-0.6,3.48-2.44,6.04-4c2.56-1.56,5.44-2.84,8.04-3.56c2.6-0.72,4.92-0.88,7.08-0.84
	c2.16,0.04,4.16,0.28,5.96,0.8c1.8,0.52,3.4,1.32,5,2.64c1.6,1.32,3.2,3.16,4.16,4.32c0.96,1.16,1.28,1.64,1.4,0.84
	c0.12-0.8,0.04-2.88,0.04-5.32c0-2.44,0.08-5.24,0.32-7.4c0.24-2.16,0.64-3.68,1.6-4.88c0.96-1.2,2.48-2.08,4.52-2.88
	c2.04-0.8,4.6-1.52,7.44-2.12c2.84-0.6,5.96-1.08,9.2-1.48c3.24-0.4,6.6-0.72,10.68-1.04c4.08-0.32,8.88-0.64,11.32-0.84
	c2.44-0.2,2.52-0.28,1.92-0.6c-0.6-0.32-1.88-0.88-3.8-2.08c-1.92-1.2-4.48-3.04-6.68-5.6c-2.2-2.56-4.04-5.84-5.2-9.12
	c-1.16-3.28-1.64-6.56-1.8-9.76c-0.16-3.2,0-6.32,0.24-8.36c0.24-2.04,0.56-3,0.6-3.6c0.04-0.6-0.2-0.84-1.76,0
	c-1.56,0.84-4.44,2.76-7.64,4.96c-3.2,2.2-6.72,4.68-11.04,7.32c-4.32,2.64-9.44,5.44-14.56,8.52c-5.12,3.08-10.24,6.44-14.4,9.36
	c-4.16,2.92-7.36,5.4-9.68,7.68c-2.32,2.28-3.76,4.36-4.92,6.68c-1.16,2.32-2.04,4.88-2.8,7.48c-0.76,2.6-1.4,5.24-1.88,7.28
	c-0.48,2.04-0.8,3.48-0.84,4.52C271.92,323.2,272.16,323.84,273.4,323.24z"/>
<path class="st0" d="M263.28,297.84c-0.8,1.6-1.36,3.92-2.16,6.84c-0.8,2.92-1.84,6.44-2.56,10.4s-1.12,8.36-1.32,11.56
	c-0.2,3.2-0.2,5.2,0.08,6.48c0.28,1.28,0.84,1.84,1.8,2.16c0.96,0.32,2.32,0.4,3.48,0.28c1.16-0.12,2.12-0.44,3-1
	c0.88-0.56,1.68-1.36,2.2-2.96c0.52-1.6,0.76-4,1.16-7c0.4-3,0.96-6.6,1.48-10.28c0.52-3.68,1-7.44,1.64-10.32
	c0.64-2.88,1.44-4.88,2.24-6.32c0.8-1.44,1.6-2.32,3.16-3.68c1.56-1.36,3.88-3.2,5.44-4.36c1.56-1.16,2.36-1.64,28.48-17.6
	c26.12-15.96,77.56-47.4,103.34-63.14c25.78-15.74,25.9-15.78,25.94-15.88c0.04-0.1,0-0.26-0.48-1.06c-0.48-0.8-1.4-2.24-1.92-3
	c-0.52-0.76-0.64-0.84-0.78-0.86c-0.14-0.02-0.3,0.02-25.9,16.04s-76.64,48.02-102.48,64.26c-25.84,16.24-26.48,16.72-28.36,17.8
	c-1.88,1.08-5,2.76-7.64,4.24c-2.64,1.48-4.8,2.76-6.4,3.84C265.12,295.36,264.08,296.24,263.28,297.84z"/>
<path class="st0" d="M278.72,274.6c-0.8-0.04-2-0.04-3,0.4c-1,0.44-1.8,1.32-2.4,2.52c-0.6,1.2-1,2.72-0.8,4.08
	c0.2,1.36,1,2.56,2.2,3.24c1.2,0.68,2.8,0.84,4.4,0.48c1.6-0.36,3.2-1.24,4.08-2.32c0.88-1.08,1.04-2.36,1.32-3.24
	c0.28-0.88,0.68-1.36,26.92-18.08c26.24-16.72,78.32-49.68,104.52-66.36c26.2-16.68,26.52-17.08,26.92-18.76
	c0.4-1.68,0.88-4.64,0.8-7.16c-0.08-2.52-0.72-4.6-2.12-6.6c-1.4-2-3.56-3.92-5.52-5.16c-1.96-1.24-3.72-1.8-5.44-2
	c-1.72-0.2-3.4-0.04-4.8,0.16c-1.4,0.2-2.52,0.44-3.4,0.84c-0.88,0.4-1.52,0.96-24.52,20.32c-23,19.36-68.36,57.52-91.36,76.88
	c-23,19.36-23.64,19.92-24.28,20.28c-0.64,0.36-1.28,0.52-1.8,0.56C279.92,274.72,279.52,274.64,278.72,274.6z"/>
<path class="st0" d="M334,226.08c15.92-13.28,47.84-40.24,63.8-53.92c15.96-13.68,15.96-14.08,15.16-14.4
	c-0.8-0.32-2.4-0.56-5.2-0.92c-2.8-0.36-6.8-0.84-10.68-2.08c-3.88-1.24-7.64-3.24-10.64-5.6c-3-2.36-5.24-5.08-6.72-7.24
	c-1.48-2.16-2.2-3.76-2.84-4.52c-0.64-0.76-1.2-0.68-4.52,5.6c-3.32,6.28-9.4,18.76-14.92,29.88
	c-5.52,11.12-10.48,20.88-15.52,29.72c-5.04,8.84-10.16,16.76-14.12,22.6c-3.96,5.84-6.76,9.6-8.2,11.68
	C318.16,238.96,318.08,239.36,334,226.08z"/>
<path class="st0" d="M403.56,260.12c0.12,1.24,0.6,3.64,0.8,6c0.2,2.36,0.12,4.68-0.04,6.88c-0.16,2.2-0.4,4.28-0.96,6.36
	c-0.56,2.08-1.44,4.16-1.72,5.12c-0.28,0.96,0.04,0.8,1.72-0.44c1.68-1.24,4.72-3.56,8.24-5.88c3.52-2.32,7.52-4.64,9.52-5.92
	c2-1.28,2-1.52,1.6-1.72c-0.4-0.2-1.2-0.36-2.72-0.88c-1.52-0.52-3.76-1.4-6.2-2.76c-2.44-1.36-5.08-3.2-6.76-4.64
	c-1.68-1.44-2.4-2.48-2.88-2.96C403.68,258.8,403.44,258.88,403.56,260.12z"/>
<path class="st0" d="M380.28,237.64c1.16,0.44,3.64,0.92,5.76,1.88c2.12,0.96,3.88,2.4,5.08,3.44c1.2,1.04,1.84,1.68,2.28,1.96
	c0.44,0.28,0.68,0.2,0.68-0.56c0-0.76-0.24-2.2-0.24-4.52c0-2.32,0.24-5.52,0.56-7.96c0.32-2.44,0.72-4.12,0.8-5.04
	c0.08-0.92-0.16-1.08-1.12-0.48c-0.96,0.6-2.64,1.96-4.56,3.48c-1.92,1.52-4.08,3.2-5.8,4.32c-1.72,1.12-3,1.68-3.72,2.16
	C379.28,236.8,379.12,237.2,380.28,237.64z"/>
<path class="st0" d="M435.4,213.28c-1.64-0.56-4.44-0.72-7.24-0.52c-2.8,0.2-5.6,0.76-9.2,1.88c-3.6,1.12-8,2.8-10.96,4.36
	c-2.96,1.56-4.48,3-5.52,4.32c-1.04,1.32-1.6,2.52-1.76,3.68c-0.16,1.16,0.08,2.28,0.48,2.96c0.4,0.68,0.96,0.92,2.24,0.84
	c1.28-0.08,3.28-0.48,5.36-1.12c2.08-0.64,4.24-1.52,5.92-2.04c1.68-0.52,2.88-0.68,3.88-0.72c1-0.04,1.8,0.04,2.16,0.44
	c0.36,0.4,0.28,1.12-0.28,1.72c-0.56,0.6-1.6,1.08-3.28,1.52c-1.68,0.44-4,0.84-6.16,1.16c-2.16,0.32-4.16,0.56-5.84,0.8
	c-1.68,0.24-3.04,0.48-4,1c-0.96,0.52-1.52,1.32-1.92,2.36c-0.4,1.04-0.64,2.32-0.16,4.24c0.48,1.92,1.68,4.48,3.4,7.6
	c1.72,3.12,3.96,6.8,6.16,9.6c2.2,2.8,4.36,4.72,6.4,6.32c2.04,1.6,3.96,2.88,5.96,3.44c2,0.56,4.08,0.4,6.16-0.08
	c2.08-0.48,4.16-1.28,6.88-3c2.72-1.72,6.08-4.36,8.96-6.88c2.88-2.52,5.28-4.92,7-6.92c1.72-2,2.76-3.6,3.48-4.84
	c0.72-1.24,1.12-2.12,1.36-2.72c0.24-0.6,0.32-0.92-0.6-2.24c-0.92-1.32-2.84-3.64-5.12-6.76c-2.28-3.12-4.92-7.04-6.84-10.16
	c-1.92-3.12-3.12-5.44-3.96-7.08C437.52,214.8,437.04,213.84,435.4,213.28z"/>
<path class="st0" d="M441.28,217.28c1.04,2.16,3.44,6.08,6.16,10.08c2.72,4,5.76,8.08,7.56,10.2c1.8,2.12,2.36,2.28,3.08,2.16
	s1.6-0.52,4.4-2.28c2.8-1.76,7.52-4.88,10.04-6.72c2.52-1.84,2.84-2.4,2.96-3.12c0.12-0.72,0.04-1.6-2.52-5.88
	c-2.56-4.28-7.6-11.96-10.36-15.72c-2.76-3.76-3.24-3.6-3.84-3.36c-0.6,0.24-1.32,0.56-1.56,1c-0.24,0.44,0,1,1.96,3.76
	c1.96,2.76,5.64,7.72,7.92,10.92c2.28,3.2,3.16,4.64,3.6,5.8c0.44,1.16,0.44,2.04,0.28,2.72c-0.16,0.68-0.48,1.16-2.44,2.6
	c-1.96,1.44-5.56,3.84-7.6,5.04c-2.04,1.2-2.52,1.2-3.04,1c-0.52-0.2-1.08-0.6-3.52-4.2c-2.44-3.6-6.76-10.4-9.04-13.88
	c-2.28-3.48-2.52-3.64-2.92-3.6c-0.4,0.04-0.96,0.28-1.4,0.6C440.56,214.72,440.24,215.12,441.28,217.28z"/>
<path class="st0" d="M446.96,215.64c2.24,3.4,6.72,10.04,9.2,13.52c2.48,3.48,2.96,3.8,3.48,3.84c0.52,0.04,1.08-0.2,2.64-1.2
	c1.56-1,4.12-2.76,5.48-3.8c1.36-1.04,1.52-1.36,1.56-1.84c0.04-0.48-0.04-1.12-2.44-4.6c-2.4-3.48-7.12-9.8-9.52-12.96
	c-2.4-3.16-2.48-3.16-2.6-3.16s-0.28,0-1.88,1.04c-1.6,1.04-4.64,3.12-6.24,4.2c-1.6,1.08-1.76,1.16-1.84,1.28
	C444.72,212.08,444.72,212.24,446.96,215.64z"/>
<ellipse transform="matrix(0.1881 -0.9821 0.9821 0.1881 37.6975 585.5096)" class="st5" cx="373.01" cy="269.95" rx="28.46" ry="28.46"/>
<path class="st5" d="M387.01,245.17c-1.64,1.08-3.29,2.15-4.75,3.33c-1.46,1.18-2.74,2.46-3.86,3.94c-1.12,1.48-2.08,3.16-2.92,5.12
	c-0.84,1.96-1.56,4.2-1.95,6.31s-0.46,4.1-0.34,5.26c0.12,1.16,0.42,1.5,1.42,2.22c0.99,0.73,2.67,1.85,4.15,3.25
	c1.48,1.4,2.76,3.08,3.96,5.2c1.2,2.12,2.32,4.68,3.08,6.76c0.76,2.08,1.16,3.68,1.38,4.92c0.22,1.24,0.27,2.11,0.32,2.98"/>
<path class="st5" d="M344.55,269.95c1.23,0.82,2.46,1.63,4.04,2.08c1.58,0.45,3.5,0.53,5.7,0.57c2.2,0.04,4.68,0.04,7.04,0
	c2.36-0.04,4.6-0.12,6.63-0.49c2.03-0.37,3.84-1.02,5.65-1.68"/>
<path class="st5" d="M347.2,281.97c2.43,0.57,4.85,1.14,7.79,1.39c2.93,0.25,6.37,0.16,9.65-0.07c3.28-0.24,6.4-0.64,8.8-1.12
	c2.4-0.48,4.08-1.04,5.42-1.59c1.34-0.55,2.34-1.1,2.83-1.39c0.49-0.29,0.48-0.31,0.47-0.33c-0.01-0.01-0.01-0.02-0.01-0.02"/>
<path class="st5" d="M357.36,293.79c2.55,0.08,5.11,0.15,7.78,0c2.67-0.15,5.46-0.54,7.97-1.12c2.52-0.58,4.76-1.35,6.66-2.09
	c1.9-0.74,3.45-1.43,4.45-1.94c1-0.51,1.46-0.82,1.91-1.14"/>
<path class="st5" d="M375.94,256.54c1.89,1.37,3.77,2.73,5.88,4.54c2.1,1.8,4.42,4.04,6.18,6.16c1.76,2.12,2.96,4.12,4.04,6.16
	c1.08,2.04,2.04,4.12,2.78,6.21c0.74,2.09,1.26,4.18,1.78,6.27"/>
<path class="st5" d="M382.26,248.5c2.42,1.97,4.84,3.93,6.85,5.76c2.01,1.82,3.61,3.5,5.25,5.74c1.64,2.24,3.32,5.04,4.46,7.48
	c1.14,2.44,1.74,4.53,2.35,6.62"/>
<path class="st5" d="M361.32,272.6c-0.2-2.15-0.4-4.29-0.18-6.85c0.22-2.55,0.86-5.51,1.78-8.15c0.92-2.64,2.12-4.96,3.52-7.12
	c1.4-2.16,3-4.16,4.31-5.63c1.31-1.47,2.33-2.4,3.35-3.34"/>
<path class="st5" d="M349.93,272.32c-0.01-2.53-0.01-5.07,0.47-7.85c0.48-2.79,1.44-5.83,2.4-8.35c0.96-2.52,1.92-4.52,3-6.28
	c1.08-1.76,2.28-3.29,3.47-4.82"/>
<path class="st0" d="M475.04,237.32c0.4,1.8,1.84,5.48,4.32,10.4c2.48,4.92,6,11.08,9.32,16.64c3.32,5.56,6.44,10.52,8.76,13.8
	c2.32,3.28,3.84,4.88,4.6,5.4c0.76,0.52,0.76-0.04,0.76-1.56c0-1.52,0-4,0.28-6.16c0.28-2.16,0.84-4,1.4-5.44
	c0.56-1.44,1.12-2.48,1.4-3.24c0.28-0.76,0.28-1.24-0.8-2.32c-1.08-1.08-3.24-2.76-5.76-5.56c-2.52-2.8-5.4-6.72-7.6-10.04
	c-2.2-3.32-3.72-6.04-4.88-8.08c-1.16-2.04-1.96-3.4-2.88-4.12c-0.92-0.72-1.96-0.8-3.32-0.92c-1.36-0.12-3.04-0.28-4.2-0.4
	C475.28,235.6,474.64,235.52,475.04,237.32z"/>
<path class="st0" d="M557.16,250.16c1.4-0.08,4.6-0.56,8.48-1.84c3.88-1.28,8.44-3.36,12.32-5.52c3.88-2.16,7.08-4.4,9.08-6.12
	c2-1.72,2.8-2.92,3.64-3.76c0.84-0.84,1.72-1.32,2.84-0.88c1.12,0.44,2.48,1.8,4.04,3.44c1.56,1.64,3.32,3.56,4.4,4.76
	c1.08,1.2,1.48,1.68,2.12,1.76c0.64,0.08,1.52-0.24,3.64-2.28c2.12-2.04,5.48-5.8,7.92-8.56c2.44-2.76,3.96-4.52,4.92-6.16
	c0.96-1.64,1.36-3.16,1.92-4.84c0.56-1.68,1.28-3.52,2.4-5.16c1.12-1.64,2.64-3.08,3.96-4.28c1.32-1.2,2.44-2.16,3.24-3.12
	c0.8-0.96,1.28-1.92,1.28-2.84c0-0.92-0.48-1.8-1.16-2.28c-0.68-0.48-1.56-0.56-2.24-0.52c-0.68,0.04-1.16,0.2-1.52,0.2
	c-0.36,0-0.6-0.16-0.48-0.56c0.12-0.4,0.6-1.04,0.76-1.84c0.16-0.8,0-1.76-0.44-2.44c-0.44-0.68-1.16-1.08-1.96-1.24
	c-0.8-0.16-1.68-0.08-2-0.64c-0.32-0.56-0.08-1.76-0.28-2.72c-0.2-0.96-0.84-1.68-1.68-2.08c-0.84-0.4-1.88-0.48-2.84-0.4
	c-0.96,0.08-1.84,0.32-2.24-0.08c-0.4-0.4-0.32-1.44-0.24-2.28c0.08-0.84,0.16-1.48-0.16-1.92c-0.32-0.44-1.04-0.68-2-0.68
	c-0.96,0-2.16,0.24-3.4,1.16c-1.24,0.92-2.52,2.52-3.68,3.8c-1.16,1.28-2.2,2.24-3,2.32c-0.8,0.08-1.36-0.72-1.36-1.84
	c0-1.12,0.56-2.56,1.12-3.76c0.56-1.2,1.12-2.16,1.64-2.92c0.52-0.76,1-1.32,1.08-1.88c0.08-0.56-0.24-1.12-0.84-1.44
	c-0.6-0.32-1.48-0.4-2.48,0.12c-1,0.52-2.12,1.64-3.72,4.04c-1.6,2.4-3.68,6.08-5.08,9.16c-1.4,3.08-2.12,5.56-2.28,8.36
	c-0.16,2.8,0.24,5.92,0.52,8.2c0.28,2.28,0.44,3.72-0.04,5.36c-0.48,1.64-1.6,3.48-3.76,6c-2.16,2.52-5.36,5.72-8.6,8.88
	c-3.24,3.16-6.52,6.28-9.72,8.96c-3.2,2.68-6.32,4.92-8.76,6.48c-2.44,1.56-4.2,2.44-5.28,3.04
	C556.16,249.92,555.76,250.24,557.16,250.16z"/>
<path class="st0" d="M594.08,238.12c1.76,1.32,4.8,4.36,6.32,6c1.52,1.64,1.52,1.88-4.8,7.64c-6.32,5.76-18.96,17.04-25.36,22.72
	c-6.4,5.68-6.56,5.76-7.28,5.68c-0.72-0.08-2-0.32-2.8-0.44c-0.8-0.12-1.12-0.12-2.08,0.72c-0.96,0.84-2.56,2.52-3.4,3.48
	c-0.84,0.96-0.92,1.2-0.96,1.88c-0.04,0.68-0.04,1.8-0.04,2.48c0,0.68,0,0.92-1.68,2.56c-1.68,1.64-5.04,4.68-7.72,6.48
	c-2.68,1.8-4.68,2.36-6.92,2.8c-2.24,0.44-4.72,0.76-7.4,0.52c-2.68-0.24-5.56-1.04-7.88-2.16c-2.32-1.12-4.08-2.56-6-4.56
	c-1.92-2-4-4.56-5.24-7.12c-1.24-2.56-1.64-5.12-1.76-7.92c-0.12-2.8,0.04-5.84,0.84-8.56c0.8-2.72,2.24-5.12,4.32-7.28
	c2.08-2.16,4.8-4.08,7.52-5.32c2.72-1.24,5.44-1.8,8.76-2.08c3.32-0.28,7.24-0.28,11.6-0.36c4.36-0.08,9.16-0.24,13.2-0.64
	c4.04-0.4,7.32-1.04,11.04-2.12c3.72-1.08,7.88-2.6,11.6-4.56c3.72-1.96,7-4.36,9.16-6.16c2.16-1.8,3.2-3,3.96-3.8
	C591.84,237.2,592.32,236.8,594.08,238.12z"/>
<path class="st6" d="M532.08,292.08c8.2,0,14.88-6.68,14.88-14.88c0-8.2-6.68-14.88-14.88-14.88c-8.2,0-14.88,6.68-14.88,14.88
	C517.2,285.4,523.88,292.08,532.08,292.08z"/>
<path class="st7" d="M510.36,302.16c3.77,0,6.84-3.02,6.84-6.72s-3.07-6.72-6.84-6.72c-3.77,0-6.84,3.02-6.84,6.72
	S506.6,302.16,510.36,302.16z"/>
<path class="st0" d="M520.76,228.24c-0.12,4.56,0.2,13.92,0.48,18.68c0.28,4.76,0.52,4.92,1.6,5c1.08,0.08,3,0.08,4.04-0.2
	c1.04-0.28,1.2-0.84,0.84-3.6c-0.36-2.76-1.24-7.72-2.2-11.64c-0.96-3.92-2-6.8-2.6-8.68c-0.6-1.88-0.76-2.76-1.12-3.32
	C521.44,223.92,520.88,223.68,520.76,228.24z"/>
<path class="st0" d="M463.92,199.4c-0.32,0.44-0.4,1.32,0.08,3c0.48,1.68,1.52,4.16,3.36,7c1.84,2.84,4.48,6.04,6.76,8.48
	c2.28,2.44,4.2,4.12,5.8,5.28c1.6,1.16,2.88,1.8,4,1.92c1.12,0.12,2.08-0.28,6.52-1.52c4.44-1.24,12.36-3.32,16.68-4.52
	c4.32-1.2,5.04-1.52,5.96-2.04c0.92-0.52,2.04-1.24,2.96-2.28c0.92-1.04,1.64-2.4,2.28-5c0.64-2.6,1.2-6.44,1.4-10.16
	c0.2-3.72,0.04-7.32-0.2-10.04c-0.24-2.72-0.56-4.56-1.08-5.64c-0.52-1.08-1.24-1.4-1.84-1.52c-0.6-0.12-1.08-0.04-1.56,0.48
	c-0.48,0.52-0.96,1.48-1.64,1.84c-0.68,0.36-1.56,0.12-2.44-0.04c-0.88-0.16-1.76-0.24-2.6,0.68c-0.84,0.92-1.64,2.84-2.2,3.76
	c-0.56,0.92-0.88,0.84-1.88,0.44c-1-0.4-2.68-1.12-3.88-1.48c-1.2-0.36-1.92-0.36-2.64,0s-1.44,1.08-2.2,2.12
	c-0.76,1.04-1.56,2.4-2.08,3.08c-0.52,0.68-0.76,0.68-1.6-0.04c-0.84-0.72-2.28-2.16-3.2-2.84c-0.92-0.68-1.32-0.6-1.8,0.32
	c-0.48,0.92-1.04,2.68-1.6,3.6c-0.56,0.92-1.12,1-2.12,0.52c-1-0.48-2.44-1.52-3.4-2.04c-0.96-0.52-1.44-0.52-1.84,0.16
	c-0.4,0.68-0.72,2.04-1.16,2.72c-0.44,0.68-1,0.68-2.12,0.4c-1.12-0.28-2.8-0.84-3.8-0.68c-1,0.16-1.32,1.04-1.6,1.88
	c-0.28,0.84-0.52,1.64-0.92,2.12c-0.4,0.48-0.96,0.64-1.48,0.52c-0.52-0.12-1-0.52-1.52-0.72
	C464.8,198.96,464.24,198.96,463.92,199.4z"/>
<path class="st0" d="M490.84,227.24c4.76-1.72,14.6-4.68,19.6-6.12c5-1.44,5.16-1.36,5.24-1.08c0.08,0.28,0.08,0.76-4.6,2.4
	c-4.68,1.64-14.04,4.44-18.88,5.88c-4.84,1.44-5.16,1.52-5.48,1.32C486.4,229.44,486.08,228.96,490.84,227.24z"/>
<path class="st0" d="M496.84,235.64c3.64-1.48,11.16-3.96,14.96-5.08c3.8-1.12,3.88-0.88,3.92-0.48c0.04,0.4,0.04,0.96-3.56,2.32
	c-3.6,1.36-10.8,3.52-14.48,4.6c-3.68,1.08-3.84,1.08-4.04,0.84C493.44,237.6,493.2,237.12,496.84,235.64z"/>
<path class="st0" d="M499.08,242.2c3.4-1.24,10.04-3.4,13.44-4.36c3.4-0.96,3.56-0.72,3.8,0.32c0.24,1.04,0.56,2.88,0.84,4.8
	c0.28,1.92,0.52,3.92,0.28,6c-0.24,2.08-0.96,4.24-2.04,5.68c-1.08,1.44-2.52,2.16-4.48,2.4c-1.96,0.24-4.44,0-6.48-0.84
	c-2.04-0.84-3.64-2.28-4.96-4.12c-1.32-1.84-2.36-4.08-3-5.48c-0.64-1.4-0.88-1.96-0.92-2.4
	C495.52,243.76,495.68,243.44,499.08,242.2z"/>
<path class="st5" d="M489.47,229.13c1.68,2.53,3.35,5.07,5.03,7.6"/>
<path class="st5" d="M494.86,227.53c1.03,2.56,2.07,5.12,2.58,6.39c0.52,1.28,0.52,1.28,0.52,1.28"/>
<path class="st5" d="M499.35,226.17c0.93,2.51,1.85,5.01,2.78,7.52"/>
<path class="st5" d="M503.98,224.75c0.74,2.52,1.48,5.05,2.22,7.57"/>
<path class="st5" d="M508.7,223.24c0.56,2.58,1.11,5.17,1.67,7.75"/>
<path class="st5" d="M513.59,221.5c0.26,2.79,0.52,5.59,0.77,8.38"/>
<path class="st0" d="M445.32,199.92c2.6-0.08,7.48-1.6,12.6-3.44c5.12-1.84,10.48-4,15.48-6c5-2,9.64-3.84,16.4-6.44
	c6.76-2.6,15.64-5.96,20.2-7.88c4.56-1.92,4.8-2.4,4.04-4.76c-0.76-2.36-2.52-6.6-3.6-8.68c-1.08-2.08-1.48-2-2.08-2
	c-0.6,0-1.4-0.08-2.48-1.52c-1.08-1.44-2.44-4.24-3.24-5.64c-0.8-1.4-1.04-1.4-4.2,1.68c-3.16,3.08-9.24,9.24-12.24,12.48
	c-3,3.24-2.92,3.56-2.72,4.52c0.2,0.96,0.52,2.56,0.48,3.8c-0.04,1.24-0.44,2.12-1,2.76c-0.56,0.64-1.28,1.04-2.2,1.2
	c-0.92,0.16-2.04,0.08-5.36-2.48c-3.32-2.56-8.84-7.6-11.76-10.12c-2.92-2.52-3.24-2.52-4.16-1.76c-0.92,0.76-2.44,2.28-3.2,3.24
	c-0.76,0.96-0.76,1.36,1.04,3.08c1.8,1.72,5.4,4.76,7.64,6.8c2.24,2.04,3.12,3.08,3.68,3.8c0.56,0.72,0.8,1.12,0.84,1.68
	c0.04,0.56-0.12,1.28-0.8,1.96c-0.68,0.68-1.88,1.32-2.8,1.6c-0.92,0.28-1.56,0.2-3.88-1.8c-2.32-2-6.32-5.92-8.56-7.96
	c-2.24-2.04-2.72-2.2-3.4-1.76c-0.68,0.44-1.56,1.48-2,2.44c-0.44,0.96-0.44,1.84-1,2.84c-0.56,1-1.68,2.12-2.6,3.08
	c-0.92,0.96-1.64,1.76-1.64,3.12c0,1.36,0.72,3.28,0.84,4.44c0.12,1.16-0.36,1.56-0.8,1.92c-0.44,0.36-0.84,0.68-0.96,1.2
	c-0.12,0.52,0.04,1.24,0.28,2.28C442.4,198.64,442.72,200,445.32,199.92z"/>
<path class="st0" d="M467.56,161.47c2.56,2,7.76,5.68,10.6,7.52c2.84,1.84,3.32,1.84,4.2,1c0.88-0.84,2.16-2.52,3.88-4.64
	c1.72-2.12,3.88-4.68,6.32-7.28c2.44-2.6,5.16-5.24,6.48-6.68c1.32-1.44,1.24-1.68,0.68-2.44c-0.56-0.76-1.6-2.04-2.44-2.52
	c-0.84-0.48-1.48-0.16-3.76,0.92c-2.28,1.08-6.2,2.92-9.92,4.48c-3.72,1.56-7.24,2.84-9.92,3.64c-2.68,0.8-4.52,1.12-5.68,1.32
	c-1.16,0.2-1.64,0.28-1.88,0.44c-0.24,0.16-0.24,0.4-0.36,0.68c-0.12,0.28-0.36,0.6-0.52,0.92
	C465.08,159.15,465,159.47,467.56,161.47z"/>
<path class="st0" d="M466.24,151.6c3.28-0.8,9.36-3.12,12.8-4.24c3.44-1.12,4.24-1.04,4.76-0.72c0.52,0.32,0.76,0.88,0.84,1.48
	c0.08,0.6,0,1.24-0.2,1.64c-0.2,0.4-0.52,0.56,1.64-0.36c2.16-0.92,6.8-2.92,9-4.2c2.2-1.28,1.96-1.84,1.16-3.36
	c-0.8-1.52-2.16-4-3.12-6.16c-0.96-2.16-1.52-4-1.96-5.68c-0.44-1.68-0.76-3.2-1.48-5.44s-1.84-5.2-2.88-6.92
	c-1.04-1.72-2-2.2-2.64-2.68c-0.64-0.48-0.96-0.96-1.16-2.2c-0.2-1.24-0.28-3.24-0.48-4.56c-0.2-1.32-0.52-1.96-1.52-2.24
	c-1-0.28-2.68-0.2-5.92,2.52c-3.24,2.72-8.04,8.08-11,10.92c-2.96,2.84-4.08,3.16-5.12,3.32c-1.04,0.16-2,0.16-2.84,1
	c-0.84,0.84-1.56,2.52-1.76,4.16c-0.2,1.64,0.12,3.24,0.44,4.76c0.32,1.52,0.64,2.96,1.16,4.24c0.52,1.28,1.24,2.4,4.24,1.68
	c3-0.72,8.28-3.28,11.4-4.76c3.12-1.48,4.08-1.88,4.92-2.04c0.84-0.16,1.56-0.08,2.16,0.2c0.6,0.28,1.08,0.76,1.28,1.32
	c0.2,0.56,0.12,1.2-0.24,1.8s-1,1.16-4,2.92c-3,1.76-8.36,4.72-11.24,6.36c-2.88,1.64-3.28,1.96-3.4,2.44
	c-0.12,0.48,0.04,1.12,0.24,1.84c0.2,0.72,0.44,1.52,0.8,2.28C462.48,151.68,462.96,152.4,466.24,151.6z"/>
<path class="st0" d="M448.4,96.84c1.6,0.76,4.96,2.84,8.24,4.6c3.28,1.76,6.48,3.2,9,4.16c2.52,0.96,4.36,1.44,4.72,2.12
	c0.36,0.68-0.76,1.56-2.12,2.84c-1.36,1.28-2.96,2.96-4.04,4c-1.08,1.04-1.64,1.44-3.12,1.72c-1.48,0.28-3.88,0.44-5.16,0.12
	c-1.28-0.32-1.44-1.12-1.76-2.76c-0.32-1.64-0.8-4.12-1.44-6.28c-0.64-2.16-1.44-4-2.4-5.64c-0.96-1.64-2.08-3.08-2.72-4.08
	C446.96,96.64,446.8,96.08,448.4,96.84z"/>
<path class="st0" d="M345.48,74.24c-0.84,0.72-2.04,2.24-3,4.04c-0.96,1.8-1.68,3.88-1.92,5.32c-0.24,1.44,0,2.24,1.88,3.4
	c1.88,1.16,5.4,2.68,9,4.44c3.6,1.76,7.28,3.76,10.24,5.36c2.96,1.6,5.2,2.8,7.12,4.16c1.92,1.36,3.52,2.88,4.56,4.84
	c1.04,1.96,1.52,4.36,1.92,7.92c0.4,3.56,0.72,8.28,1.6,12.12c0.88,3.84,2.32,6.8,4.04,9.4c1.72,2.6,3.72,4.84,6.28,6.92
	c2.56,2.08,5.68,4,9.32,5.72c3.64,1.72,7.8,3.24,11.8,4.2c4,0.96,7.84,1.36,12.12,1.12c4.28-0.24,9-1.12,12.76-2.6
	c3.76-1.48,6.56-3.56,9.2-6.28c2.64-2.72,5.12-6.08,6.72-9.56c1.6-3.48,2.32-7.08,2.44-11.24c0.12-4.16-0.36-8.88-1.96-13.52
	c-1.6-4.64-4.32-9.2-7.32-12.92c-3-3.72-6.28-6.6-9.68-8.8c-3.4-2.2-6.92-3.72-10.48-5c-3.56-1.28-7.16-2.32-11-2.52
	c-3.84-0.2-7.92,0.44-11.44,1.76c-3.52,1.32-6.48,3.32-8.8,4.8c-2.32,1.48-4,2.44-5.88,2.96c-1.88,0.52-3.96,0.6-6.08,0.08
	c-2.12-0.52-4.28-1.64-7.48-3.44c-3.2-1.8-7.44-4.28-11.36-6.48c-3.92-2.2-7.52-4.12-9.6-5.2c-2.08-1.08-2.64-1.32-3.16-1.48
	C346.8,73.6,346.32,73.52,345.48,74.24z"/>
<path class="st0" d="M342.92,94.48c-1,1.28-2.04,4.16-3.48,6.72c-1.44,2.56-3.28,4.8-5.48,6.68c-2.2,1.88-4.76,3.4-6.68,4.24
	c-1.92,0.84-3.2,1-4,1.4c-0.8,0.4-1.12,1.04-0.16,2.04c0.96,1,3.2,2.36,6.64,4.16c3.44,1.8,8.08,4.04,12.6,5.92
	c4.52,1.88,8.92,3.4,13.08,4.44c4.16,1.04,8.08,1.6,10.6,1.76c2.52,0.16,3.64-0.08,4.44-0.56c0.8-0.48,1.28-1.2,1.16-2.68
	c-0.12-1.48-0.84-3.72-1.36-6.36c-0.52-2.64-0.84-5.68-0.92-7.8c-0.08-2.12,0.08-3.32-0.24-4.4c-0.32-1.08-1.12-2.04-2.72-3.04
	c-1.6-1-4-2.04-6.56-3.56c-2.56-1.52-5.28-3.52-7.64-5.2c-2.36-1.68-4.36-3.04-5.84-3.88C344.88,93.52,343.92,93.2,342.92,94.48z"/>
<path class="st5" d="M320.55,109.32c10.05,0,18.24-8.19,18.24-18.24c0-10.05-8.19-18.24-18.24-18.24
	c-10.05,0-18.24,8.19-18.24,18.24C302.31,101.13,310.5,109.32,320.55,109.32z"/>
<linearGradient id="SVGID_1_" gradientUnits="userSpaceOnUse" x1="307.3515" y1="83.8829" x2="307.1555" y2="84.2225">
	<stop  offset="0" style="stop-color:#000000"/>
	<stop  offset="1" style="stop-color:#000002"/>
</linearGradient>
<path class="st8" d="M305.76,87.84c0.66,0,1.2-0.54,1.2-1.2c0-0.66-0.54-1.2-1.2-1.2c-0.66,0-1.2,0.54-1.2,1.2
	C304.56,87.3,305.1,87.84,305.76,87.84z"/>
<linearGradient id="SVGID_00000005248308337679369780000011734001385749273226_" gradientUnits="userSpaceOnUse" x1="308.4882" y1="85.7953" x2="308.2922" y2="86.1348">
	<stop  offset="0" style="stop-color:#000000"/>
	<stop  offset="1" style="stop-color:#000002"/>
</linearGradient>
<path style="fill-rule:evenodd;clip-rule:evenodd;fill:url(#SVGID_00000005248308337679369780000011734001385749273226_);stroke:#000002;stroke-width:0.5669;stroke-miterlimit:22.9256;" d="
	M305.41,92.32c0.66,0,1.2-0.54,1.2-1.2c0-0.66-0.54-1.2-1.2-1.2c-0.66,0-1.2,0.54-1.2,1.2C304.21,91.78,304.75,92.32,305.41,92.32z"
	/>
<linearGradient id="SVGID_00000168099014403297103850000010807823374044907422_" gradientUnits="userSpaceOnUse" x1="310.5262" y1="88.0767" x2="310.3302" y2="88.4162">
	<stop  offset="0" style="stop-color:#000000"/>
	<stop  offset="1" style="stop-color:#000002"/>
</linearGradient>
<path style="fill-rule:evenodd;clip-rule:evenodd;fill:url(#SVGID_00000168099014403297103850000010807823374044907422_);stroke:#000002;stroke-width:0.5669;stroke-miterlimit:22.9256;" d="
	M306.15,96.86c0.66,0,1.2-0.54,1.2-1.2c0-0.66-0.54-1.2-1.2-1.2c-0.66,0-1.2,0.54-1.2,1.2C304.95,96.32,305.49,96.86,306.15,96.86z"
	/>
<linearGradient id="SVGID_00000023268237926014396420000003046032070310943914_" gradientUnits="userSpaceOnUse" x1="311.7256" y1="87.4703" x2="311.5296" y2="87.8098">
	<stop  offset="0" style="stop-color:#000000"/>
	<stop  offset="1" style="stop-color:#000002"/>
</linearGradient>
<path style="fill-rule:evenodd;clip-rule:evenodd;fill:url(#SVGID_00000023268237926014396420000003046032070310943914_);stroke:#000002;stroke-width:0.5669;stroke-miterlimit:22.9256;" d="
	M308.88,93.6c0.66,0,1.2-0.54,1.2-1.2c0-0.66-0.54-1.2-1.2-1.2c-0.66,0-1.2,0.54-1.2,1.2C307.68,93.06,308.22,93.6,308.88,93.6z"/>
<linearGradient id="SVGID_00000076569928306416380180000011500096679395107726_" gradientUnits="userSpaceOnUse" x1="310.1791" y1="85.4995" x2="309.9831" y2="85.839">
	<stop  offset="0" style="stop-color:#000000"/>
	<stop  offset="1" style="stop-color:#000002"/>
</linearGradient>
<path style="fill-rule:evenodd;clip-rule:evenodd;fill:url(#SVGID_00000076569928306416380180000011500096679395107726_);stroke:#000002;stroke-width:0.5669;stroke-miterlimit:22.9256;" d="
	M308.61,89.42c0.66,0,1.2-0.54,1.2-1.2c0-0.66-0.54-1.2-1.2-1.2c-0.66,0-1.2,0.54-1.2,1.2C307.41,88.88,307.95,89.42,308.61,89.42z"
	/>
<linearGradient id="SVGID_00000139271652675368618520000010614089369881438097_" gradientUnits="userSpaceOnUse" x1="313.1376" y1="90.2711" x2="312.9417" y2="90.6106">
	<stop  offset="0" style="stop-color:#000000"/>
	<stop  offset="1" style="stop-color:#000002"/>
</linearGradient>
<path style="fill-rule:evenodd;clip-rule:evenodd;fill:url(#SVGID_00000139271652675368618520000010614089369881438097_);stroke:#000002;stroke-width:0.5669;stroke-miterlimit:22.9256;" d="
	M307.95,100.46c0.66,0,1.2-0.54,1.2-1.2c0-0.66-0.54-1.2-1.2-1.2c-0.66,0-1.2,0.54-1.2,1.2
	C306.75,99.92,307.29,100.46,307.95,100.46z"/>
<linearGradient id="SVGID_00000141414746170843930710000006089385134740466862_" gradientUnits="userSpaceOnUse" x1="313.7701" y1="89.3937" x2="313.5741" y2="89.7332">
	<stop  offset="0" style="stop-color:#000000"/>
	<stop  offset="1" style="stop-color:#000002"/>
</linearGradient>
<path style="fill-rule:evenodd;clip-rule:evenodd;fill:url(#SVGID_00000141414746170843930710000006089385134740466862_);stroke:#000002;stroke-width:0.5669;stroke-miterlimit:22.9256;" d="
	M310.05,97.04c0.66,0,1.2-0.54,1.2-1.2c0-0.66-0.54-1.2-1.2-1.2c-0.66,0-1.2,0.54-1.2,1.2C308.85,96.5,309.39,97.04,310.05,97.04z"
	/>
<linearGradient id="SVGID_00000082366820522429502730000016511487974807717042_" gradientUnits="userSpaceOnUse" x1="316.4879" y1="92.6263" x2="316.292" y2="92.9658">
	<stop  offset="0" style="stop-color:#000000"/>
	<stop  offset="1" style="stop-color:#000002"/>
</linearGradient>
<path style="fill-rule:evenodd;clip-rule:evenodd;fill:url(#SVGID_00000082366820522429502730000016511487974807717042_);stroke:#000002;stroke-width:0.5669;stroke-miterlimit:22.9256;" d="
	M310.8,103.68c0.66,0,1.2-0.54,1.2-1.2c0-0.66-0.54-1.2-1.2-1.2s-1.2,0.54-1.2,1.2C309.6,103.14,310.14,103.68,310.8,103.68z"/>
<linearGradient id="SVGID_00000043417445671643103360000001968942582875423625_" gradientUnits="userSpaceOnUse" x1="316.6441" y1="91.4262" x2="316.4481" y2="91.7657">
	<stop  offset="0" style="stop-color:#000000"/>
	<stop  offset="1" style="stop-color:#000002"/>
</linearGradient>
<path style="fill-rule:evenodd;clip-rule:evenodd;fill:url(#SVGID_00000043417445671643103360000001968942582875423625_);stroke:#000002;stroke-width:0.5669;stroke-miterlimit:22.9256;" d="
	M312.48,99.84c0.66,0,1.2-0.54,1.2-1.2c0-0.66-0.54-1.2-1.2-1.2c-0.66,0-1.2,0.54-1.2,1.2C311.28,99.3,311.82,99.84,312.48,99.84z"
	/>
<linearGradient id="SVGID_00000032615367154340576480000015714076568247225272_" gradientUnits="userSpaceOnUse" x1="319.7222" y1="94.5885" x2="319.5262" y2="94.928">
	<stop  offset="0" style="stop-color:#000000"/>
	<stop  offset="1" style="stop-color:#000002"/>
</linearGradient>
<path style="fill-rule:evenodd;clip-rule:evenodd;fill:url(#SVGID_00000032615367154340576480000015714076568247225272_);stroke:#000002;stroke-width:0.5669;stroke-miterlimit:22.9256;" d="
	M313.92,105.84c0.66,0,1.2-0.54,1.2-1.2c0-0.66-0.54-1.2-1.2-1.2c-0.66,0-1.2,0.54-1.2,1.2
	C312.72,105.3,313.26,105.84,313.92,105.84z"/>
<path class="st0" d="M318.09,107.42c0.66,0,1.2-0.54,1.2-1.2c0-0.66-0.54-1.2-1.2-1.2c-0.66,0-1.2,0.54-1.2,1.2
	C316.89,106.88,317.43,107.42,318.09,107.42z"/>
<path class="st0" d="M322.35,107.54c0.66,0,1.2-0.54,1.2-1.2c0-0.66-0.54-1.2-1.2-1.2c-0.66,0-1.2,0.54-1.2,1.2
	C321.15,107,321.69,107.54,322.35,107.54z"/>
<linearGradient id="SVGID_00000047757396102890599500000000216536578327261861_" gradientUnits="userSpaceOnUse" x1="319.9123" y1="93.5677" x2="319.7162" y2="93.9072">
	<stop  offset="0" style="stop-color:#000000"/>
	<stop  offset="1" style="stop-color:#000002"/>
</linearGradient>
<path style="fill-rule:evenodd;clip-rule:evenodd;fill:url(#SVGID_00000047757396102890599500000000216536578327261861_);stroke:#000002;stroke-width:0.5669;stroke-miterlimit:22.9256;" d="
	M315.45,102.5c0.66,0,1.2-0.54,1.2-1.2c0-0.66-0.54-1.2-1.2-1.2c-0.66,0-1.2,0.54-1.2,1.2C314.25,101.96,314.79,102.5,315.45,102.5z
	"/>
<path class="st0" d="M319.47,104.12c0.66,0,1.2-0.54,1.2-1.2c0-0.66-0.54-1.2-1.2-1.2c-0.66,0-1.2,0.54-1.2,1.2
	C318.27,103.59,318.81,104.12,319.47,104.12z"/>
<path class="st19" d="M307.92,84.24c0.66,0,1.2-0.54,1.2-1.2c0-0.66-0.54-1.2-1.2-1.2s-1.2,0.54-1.2,1.2
	C306.72,83.7,307.26,84.24,307.92,84.24z"/>
<path class="st20" d="M325.89,106.34c0.66,0,1.2-0.54,1.2-1.2c0-0.66-0.54-1.2-1.2-1.2c-0.66,0-1.2,0.54-1.2,1.2
	C324.69,105.8,325.23,106.34,325.89,106.34z"/>
<path class="st0" d="M281.8,78.16c-3.64,1.44-10.36,4.96-17.36,9.24c-7,4.28-14.28,9.32-20.48,13.92c-6.2,4.6-11.32,8.76-15.8,12.2
	c-4.48,3.44-8.32,6.16-11.88,8.52c-3.56,2.36-6.84,4.36-9.48,5.88c-2.64,1.52-4.64,2.56-6.08,3.48c-1.44,0.92-2.32,1.72-2.8,2.52
	c-0.48,0.8-0.56,1.6-0.52,2.68c0.04,1.08,0.2,2.44,0.32,3.12c0.12,0.68,0.2,0.68,0.76,0.52c0.56-0.16,1.6-0.48,2.12-1
	c0.52-0.52,0.52-1.24,0.64-2.04c0.12-0.8,0.36-1.68,1.24-2.6c0.88-0.92,2.4-1.88,4.32-2.96c1.92-1.08,4.24-2.28,6.52-3.12
	c2.28-0.84,4.52-1.32,6.48-1.48c1.96-0.16,3.64,0,4.76,0.56c1.12,0.56,1.68,1.52,1.92,2.76c0.24,1.24,0.16,2.76-0.16,4.04
	c-0.32,1.28-0.88,2.32-2.4,3.48c-1.52,1.16-4,2.44-6.04,3.36c-2.04,0.92-3.64,1.48-5.28,2c-1.64,0.52-3.32,1-4.64,1.16
	c-1.32,0.16-2.28,0-3.12-0.48c-0.84-0.48-1.56-1.28-2-1.84c-0.44-0.56-0.6-0.88-1.2-0.76c-0.6,0.12-1.64,0.68-1.84,1.48
	c-0.2,0.8,0.44,1.84,1.24,2.72c0.8,0.88,1.76,1.6,3.32,1.8c1.56,0.2,3.72-0.12,6.84-0.88c3.12-0.76,7.2-1.96,11.64-3.12
	c4.44-1.16,9.24-2.28,14.32-3.16c5.08-0.88,10.44-1.52,15.84-2.44c5.4-0.92,10.84-2.12,16.64-3.68c5.8-1.56,11.96-3.48,17.2-5.12
	c5.24-1.64,9.56-3,12.36-4.04c2.8-1.04,4.08-1.76,4.84-2.4c0.76-0.64,1-1.2,1-2c0-0.8-0.24-1.84-0.8-2.2
	c-0.56-0.36-1.44-0.04-3.64,0.84c-2.2,0.88-5.72,2.32-10.2,3.88c-4.48,1.56-9.92,3.24-14.8,4.64c-4.88,1.4-9.2,2.52-12.6,3.08
	c-3.4,0.56-5.88,0.56-7.96,0.56c-2.08,0-3.76,0-4.96-0.28c-1.2-0.28-1.92-0.84-2.4-1.56c-0.48-0.72-0.72-1.6-0.68-2.6
	c0.04-1,0.36-2.12,1.52-3.24c1.16-1.12,3.16-2.24,6.92-4.04c3.76-1.8,9.28-4.28,17.04-7.6c7.76-3.32,17.76-7.48,22.8-9.76
	c5.04-2.28,5.12-2.68,5.04-3.44c-0.08-0.76-0.32-1.88-0.6-2.52c-0.28-0.64-0.6-0.8-3.52,0.44c-2.92,1.24-8.44,3.88-14.44,6.6
	c-6,2.72-12.48,5.52-17.4,7.76c-4.92,2.24-8.28,3.92-11.04,5c-2.76,1.08-4.92,1.56-6.72,1.56s-3.24-0.48-4.16-1.24
	c-0.92-0.76-1.32-1.8-1.4-2.84c-0.08-1.04,0.16-2.08,0.92-3.32c0.76-1.24,2.04-2.68,4.88-4.96c2.84-2.28,7.24-5.4,11.4-8.16
	c4.16-2.76,8.08-5.16,11.84-7.36c3.76-2.2,7.36-4.2,10.08-5.72c2.72-1.52,4.56-2.56,5.68-3.2c1.12-0.64,1.52-0.88,1.52-1.28
	c0-0.4-0.4-0.96-0.88-1.56C286,77.36,285.44,76.72,281.8,78.16z"/>
<path class="st0" d="M296.84,103.8c-4.36,1.64-12.84,5.08-20.44,8.36c-7.6,3.28-14.32,6.4-18.48,8.4c-4.16,2-5.76,2.88-6.72,3.76
	c-0.96,0.88-1.28,1.76-1.32,2.56c-0.04,0.8,0.2,1.52,0.88,1.96c0.68,0.44,1.8,0.6,4.2,0.44c2.4-0.16,6.08-0.64,10.16-1.48
	c4.08-0.84,8.56-2.04,14.28-3.84c5.72-1.8,12.68-4.2,16.8-5.64c4.12-1.44,5.4-1.92,6.08-2.28c0.68-0.36,0.76-0.6,0.56-2.84
	c-0.2-2.24-0.68-6.48-1.04-8.68C301.44,102.32,301.2,102.16,296.84,103.8z"/>
<path class="st0" d="M285.44,83.64c-3.28,1.72-9.6,5.24-15.08,8.48c-5.48,3.24-10.12,6.2-13.92,8.8c-3.8,2.6-6.76,4.84-8.76,6.56
	c-2,1.72-3.04,2.92-3.48,3.92c-0.44,1-0.28,1.8-0.04,2.52c0.24,0.72,0.56,1.36,1.48,1.56c0.92,0.2,2.44-0.04,5.92-1.32
	c3.48-1.28,8.92-3.6,14.88-6.24c5.96-2.64,12.44-5.6,17.12-7.72c4.68-2.12,7.56-3.4,9.52-4.28c1.96-0.88,3-1.36,3.72-1.72
	s1.12-0.6-0.2-2.6c-1.32-2-4.36-5.76-6-7.68C288.96,82,288.72,81.92,285.44,83.64z"/>
<path class="st0" d="M193.6,133.4c-1.28,0.36-3.84,1.88-6.44,3.84c-2.6,1.96-5.24,4.36-7.08,6.2c-1.84,1.84-2.88,3.12-4.28,4.2
	s-3.16,1.96-4.84,2.6c-1.68,0.64-3.28,1.04-4.12,1.72c-0.84,0.68-0.92,1.64-0.72,2.4c0.2,0.76,0.68,1.32,1.6,1.6
	c0.92,0.28,2.28,0.28,3.76,0.12c1.48-0.16,3.08-0.48,4.28-0.64c1.2-0.16,2-0.16,2.36,0.16c0.36,0.32,0.28,0.96-0.16,1.48
	c-0.44,0.52-1.24,0.92-2.16,1.28c-0.92,0.36-1.96,0.68-2.88,1c-0.92,0.32-1.72,0.64-2.72,0.88c-1,0.24-2.2,0.4-3,0.56
	c-0.8,0.16-1.2,0.32-1.44,0.8c-0.24,0.48-0.32,1.28-0.24,2.04c0.08,0.76,0.32,1.48,0.76,2c0.44,0.52,1.08,0.84,1.52,1.24
	c0.44,0.4,0.68,0.88,0.56,1.28c-0.12,0.4-0.6,0.72-1.12,0.88c-0.52,0.16-1.08,0.16-1.28,0.96c-0.2,0.8-0.04,2.4,0.28,3.56
	c0.32,1.16,0.8,1.88,1.72,2.48c0.92,0.6,2.28,1.08,3.84,1.2c1.56,0.12,3.32-0.12,5-0.6c1.68-0.48,3.28-1.2,4.64-1.96
	c1.36-0.76,2.48-1.56,3.32-1.96c0.84-0.4,1.4-0.4,1.8-0.08c0.4,0.32,0.64,0.96,0.44,1.68c-0.2,0.72-0.84,1.52-1.96,2.4
	c-1.12,0.88-2.72,1.84-4,2.52c-1.28,0.68-2.24,1.08-3.48,1.24c-1.24,0.16-2.76,0.08-3.68,0.32c-0.92,0.24-1.24,0.8-1.2,1.52
	c0.04,0.72,0.44,1.6,1.24,2.44c0.8,0.84,2,1.64,3.32,2.04c1.32,0.4,2.76,0.4,4.16,0.12c1.4-0.28,2.76-0.84,4.6-2.04
	c1.84-1.2,4.16-3.04,6.12-4.84c1.96-1.8,3.56-3.56,5.4-5.16c1.84-1.6,3.92-3.04,5.8-3.88c1.88-0.84,3.56-1.08,4.76-1.12
	c1.2-0.04,1.92,0.12,2.4,1.28c0.48,1.16,0.72,3.32,0.68,5.68c-0.04,2.36-0.36,4.92-0.44,7.16c-0.08,2.24,0.08,4.16,0.56,5.52
	c0.48,1.36,1.28,2.16,1.92,2.36c0.64,0.2,1.12-0.2,1.72-1.64c0.6-1.44,1.32-3.92,2-6.84c0.68-2.92,1.32-6.28,1.92-9.24
	c0.6-2.96,1.16-5.52,2-8.48c0.84-2.96,1.96-6.32,2.84-9c0.88-2.68,1.52-4.68,2.44-6.36c0.92-1.68,2.12-3.04,2.92-3.96
	c0.8-0.92,1.2-1.4,1-1.64c-0.2-0.24-1-0.24-4.08,0.64c-3.08,0.88-8.44,2.64-12.48,3.76c-4.04,1.12-6.76,1.6-9.16,1.28
	c-2.4-0.32-4.48-1.44-6.04-2.76c-1.56-1.32-2.6-2.84-3.16-4.16c-0.56-1.32-0.64-2.44-0.6-3.88c0.04-1.44,0.2-3.2,0.28-4.48
	C194.88,133.84,194.88,133.04,193.6,133.4z"/>
<circle class="st3" cx="520.56" cy="100.08" r="4.8"/>
<circle class="st3" cx="537.36" cy="100.8" r="4.8"/>
<circle class="st3" cx="525.6" cy="114.96" r="4.8"/>
<path class="st4" d="M567.4,88.2c0.76,1.88,3.48,5.8,5.28,9.4c1.8,3.6,2.68,6.88,3.12,10.52c0.44,3.64,0.44,7.64,0.04,11.64
	c-0.4,4-1.2,8-2.52,11.32c-1.32,3.32-3.16,5.96-5.12,8.52c-1.96,2.56-4.04,5.04-6.52,7.08c-2.48,2.04-5.36,3.64-8.6,4.88
	s-6.84,2.12-10.32,2.76c-3.48,0.64-6.84,1.04-9.8,1.04c-2.96,0-5.52-0.4-7.28-0.72c-1.76-0.32-2.72-0.56-3.36-0.52
	c-0.64,0.04-0.96,0.36-0.96,0.96c0,0.6,0.32,1.48,1.96,2.52c1.64,1.04,4.6,2.24,8.08,2.84c3.48,0.6,7.48,0.6,11.48,0.16
	c4-0.44,8-1.32,11.84-2.76c3.84-1.44,7.52-3.44,10.64-5.8c3.12-2.36,5.68-5.08,7.92-8c2.24-2.92,4.16-6.04,5.56-9.04
	c1.4-3,2.28-5.88,2.92-9.12c0.64-3.24,1.04-6.84,1.12-10.16c0.08-3.32-0.16-6.36-1-9.36c-0.84-3-2.28-5.96-3.92-8.72
	c-1.64-2.76-3.48-5.32-5-7.12c-1.52-1.8-2.72-2.84-3.92-3.44C567.84,86.48,566.64,86.32,567.4,88.2z"/>
<line class="st21" x1="342.3" y1="438.29" x2="420.56" y2="431.72"/>
<line class="st22" x1="342.3" y1="438.29" x2="420.56" y2="431.72"/>
<line class="st22" x1="342.3" y1="435.96" x2="420.56" y2="429.39"/>
<line class="st22" x1="342.3" y1="433.53" x2="420.56" y2="426.96"/>
<line class="st22" x1="342.3" y1="431.13" x2="418.8" y2="424.71"/>
<line class="st22" x1="342.3" y1="428.73" x2="416.49" y2="422.5"/>
<line class="st22" x1="342.3" y1="426.33" x2="414.59" y2="420.26"/>
<line class="st22" x1="344.5" y1="423.74" x2="412.32" y2="418.05"/>
<line class="st22" x1="347.89" y1="421.06" x2="409.56" y2="415.88"/>
<line class="st22" x1="350.22" y1="418.46" x2="407.04" y2="413.69"/>
<line class="st22" x1="354.49" y1="415.7" x2="402.96" y2="411.64"/>
<line class="st22" x1="359.78" y1="412.86" x2="397.67" y2="409.68"/>
<line class="st22" x1="342.3" y1="440.64" x2="420.56" y2="434.07"/>
<line class="st22" x1="342.3" y1="443.01" x2="420.56" y2="436.44"/>
<line class="st22" x1="342.3" y1="445.44" x2="420.56" y2="438.87"/>
<line class="st22" x1="343.87" y1="447.71" x2="420.56" y2="441.27"/>
<line class="st22" x1="342.3" y1="450.24" x2="420.56" y2="443.67"/>
<line class="st21" x1="346.4" y1="452.3" x2="419.04" y2="446.2"/>
<line class="st22" x1="348.02" y1="454.56" x2="417.11" y2="448.76"/>
<line class="st22" x1="351.54" y1="456.66" x2="415.25" y2="451.32"/>
<line class="st22" x1="354.77" y1="458.79" x2="413.74" y2="453.85"/>
<line class="st22" x1="358.46" y1="460.85" x2="409.47" y2="456.57"/>
<line class="st22" x1="362.8" y1="462.89" x2="406.55" y2="459.22"/>
<line class="st22" x1="369.51" y1="464.76" x2="400.33" y2="462.17"/>
<line class="st22" x1="384" y1="466.75" x2="379.06" y2="407.88"/>
<line class="st22" x1="381.64" y1="466.75" x2="376.71" y2="407.88"/>
<line class="st22" x1="379.24" y1="466.75" x2="374.36" y2="408.57"/>
<line class="st22" x1="376.88" y1="466.75" x2="372.01" y2="408.72"/>
<line class="st22" x1="374.41" y1="465.91" x2="369.64" y2="409.07"/>
<line class="st22" x1="371.95" y1="465.66" x2="367.29" y2="410.05"/>
<line class="st22" x1="369.58" y1="465.56" x2="364.99" y2="410.88"/>
<line class="st22" x1="367.08" y1="464.76" x2="362.64" y2="411.84"/>
<line class="st22" x1="364.65" y1="464.43" x2="360.34" y2="413.04"/>
<line class="st22" x1="362.12" y1="462.89" x2="358.05" y2="414.33"/>
<line class="st22" x1="359.65" y1="462.02" x2="355.74" y2="415.44"/>
<line class="st22" x1="357.2" y1="461.43" x2="353.38" y2="415.92"/>
<line class="st22" x1="354.6" y1="458.61" x2="351.14" y2="417.36"/>
<line class="st22" x1="351.98" y1="456.42" x2="348.9" y2="419.73"/>
<line class="st22" x1="349.48" y1="455.28" x2="346.7" y2="422.16"/>
<line class="st22" x1="346.9" y1="453.12" x2="344.5" y2="424.56"/>
<line class="st22" x1="386.26" y1="465.6" x2="381.36" y2="407.16"/>
<line class="st22" x1="388.66" y1="465.6" x2="383.78" y2="407.44"/>
<line class="st22" x1="391.06" y1="465.6" x2="386.24" y2="408.15"/>
<line class="st22" x1="393.46" y1="465.6" x2="388.6" y2="407.62"/>
<line class="st22" x1="395.71" y1="464.16" x2="391.02" y2="408.31"/>
<line class="st22" x1="398.06" y1="463.2" x2="393.46" y2="408.31"/>
<line class="st22" x1="400.33" y1="462.07" x2="395.97" y2="410.02"/>
<line class="st22" x1="402.72" y1="461.52" x2="398.4" y2="410.03"/>
<line class="st22" x1="404.93" y1="459.3" x2="400.88" y2="411.03"/>
<line class="st22" x1="407.29" y1="458.81" x2="403.34" y2="411.71"/>
<line class="st22" x1="409.5" y1="456.96" x2="405.8" y2="412.87"/>
<line class="st22" x1="411.8" y1="455.28" x2="408.48" y2="415.75"/>
<line class="st22" x1="413.95" y1="452.76" x2="410.94" y2="416.91"/>
<line class="st22" x1="416.17" y1="450.15" x2="413.57" y2="419.21"/>
<line class="st22" x1="418.21" y1="446.27" x2="416.01" y2="420.14"/>
<line class="st22" x1="268.81" y1="371.88" x2="303.56" y2="324.45"/>
<line class="st22" x1="271.25" y1="371.88" x2="305.06" y2="325.73"/>
<line class="st22" x1="272.46" y1="373.51" x2="306.45" y2="327.12"/>
<line class="st22" x1="274.8" y1="373.59" x2="307.74" y2="328.63"/>
<line class="st22" x1="276.48" y1="374.57" x2="308.93" y2="330.28"/>
<line class="st22" x1="278.67" y1="374.79" x2="309.91" y2="332.15"/>
<line class="st22" x1="281" y1="374.96" x2="310.66" y2="334.46"/>
<line class="st22" x1="283.39" y1="374.97" x2="311.77" y2="336.22"/>
<line class="st22" x1="285.8" y1="374.88" x2="311.77" y2="339.42"/>
<line class="st22" x1="288.7" y1="374.27" x2="311.4" y2="343.29"/>
<line class="st22" x1="291.97" y1="373.09" x2="310.72" y2="347.49"/>
<line class="st22" x1="266.98" y1="371.09" x2="301.68" y2="323.72"/>
<line class="st22" x1="265.59" y1="369.71" x2="300.21" y2="322.44"/>
<line class="st22" x1="263.52" y1="365.98" x2="295.44" y2="322.41"/>
<line class="st22" x1="264.7" y1="367.65" x2="297.84" y2="322.41"/>
<line class="st22" x1="262.33" y1="364.4" x2="294.05" y2="321.11"/>
<line class="st22" x1="261.74" y1="361.86" x2="291.59" y2="321.11"/>
<line class="st22" x1="261.08" y1="359.48" x2="288.9" y2="321.51"/>
<line class="st22" x1="260.23" y1="357.37" x2="285.67" y2="322.64"/>
<line class="st22" x1="260.53" y1="353.68" x2="281.95" y2="324.45"/>
<line class="st22" x1="260.79" y1="350.05" x2="279.55" y2="324.45"/>
<line class="st22" x1="266.86" y1="337.03" x2="302.66" y2="363.25"/>
<line class="st22" x1="265.71" y1="338.58" x2="302.64" y2="365.64"/>
<line class="st22" x1="263.51" y1="339.36" x2="300.49" y2="366.46"/>
<line class="st22" x1="263.66" y1="341.88" x2="299.15" y2="367.87"/>
<line class="st22" x1="262.76" y1="343.62" x2="297.73" y2="369.23"/>
<line class="st22" x1="262.06" y1="345.5" x2="296.13" y2="370.46"/>
<line class="st22" x1="260.88" y1="347.04" x2="294.55" y2="371.7"/>
<line class="st22" x1="261.36" y1="349.79" x2="293.22" y2="373.13"/>
<line class="st22" x1="260.68" y1="351.69" x2="290.61" y2="373.61"/>
<line class="st22" x1="261.13" y1="354.42" x2="288.22" y2="374.27"/>
<line class="st22" x1="261.14" y1="356.82" x2="285.54" y2="374.7"/>
<line class="st22" x1="260.56" y1="358.8" x2="282.63" y2="374.97"/>
<line class="st22" x1="262.48" y1="362.61" x2="279.26" y2="374.9"/>
<line class="st22" x1="266.86" y1="334.68" x2="304.04" y2="361.92"/>
<line class="st22" x1="269.16" y1="333.97" x2="304.87" y2="360.12"/>
<line class="st22" x1="270.52" y1="332.56" x2="306.24" y2="358.73"/>
<line class="st22" x1="271.89" y1="331.22" x2="306.33" y2="356.45"/>
<line class="st22" x1="274.08" y1="330.37" x2="308.01" y2="355.23"/>
<line class="st22" x1="275.42" y1="328.95" x2="308.95" y2="353.51"/>
<line class="st22" x1="275.69" y1="326.75" x2="309.56" y2="351.56"/>
<line class="st22" x1="277.37" y1="325.58" x2="310.14" y2="349.59"/>
<line class="st22" x1="280.19" y1="325.25" x2="310.55" y2="347.49"/>
<line class="st22" x1="281.66" y1="323.92" x2="310.27" y2="344.88"/>
<line class="st22" x1="283.7" y1="323.01" x2="311.38" y2="343.29"/>
<line class="st22" x1="285.36" y1="321.83" x2="311.51" y2="340.99"/>
<line class="st22" x1="288.44" y1="321.69" x2="311.04" y2="338.25"/>
<line class="st22" x1="291.06" y1="321.21" x2="311.56" y2="336.22"/>
<line class="st22" x1="294.2" y1="321.11" x2="309.61" y2="332.4"/>
<polyline class="st5" points="458.91,138.98 457.95,139.7 460.11,145.7 461.55,145.7 "/>
<polyline class="st5" points="463.2,150.86 462.24,151.58 464.4,157.58 465.84,157.58 "/>
<polyline class="st5" points="465.01,159.23 463.91,158.77 459.8,163.65 460.53,164.89 "/>
<polyline class="st5" points="455.68,170.61 454.61,170.07 450.18,174.65 450.81,175.94 "/>
</svg>
