<svg xmlns="http://www.w3.org/2000/svg" xmlns:xlink="http://www.w3.org/1999/xlink" version="1.1" id="Layer_1" x="0px" y="0px" style="enable-background:new 0 0 800 600;" xml:space="preserve" viewBox="350.42 197.32 189.97 212.31">
<style type="text/css">
	.st0{fill:#FFFFFF;}
</style>
<g>
	<g>
		<path class="st0" d="M378.02,409.63h19.66l4.15-10.41c-5.45-3.07-10.61-6.61-15.42-10.59L378.02,409.63z"/>
		<path class="st0" d="M452.55,389.44c-13.84,0-26.9-3.46-38.42-9.63c-1.24-0.65-2.49-1.36-3.7-2.09l1.61-4.06h0.01l0.39-0.98    l1.62-4.06L421.1,351l1.61-4.01l12.18-30.51h-19.66l-6.33,15.85v0.01l-1.86,4.66c-1.01-1.4-1.94-2.86-2.8-4.36    c-3.61-6.18-6.12-13.11-7.28-20.49h15.46h4.54h19.66h4.54h22.79l-7.49-18.76h-7.8h-4.54l1.73-4.33l6.71-16.8l6.71,16.8l1.73,4.33    l7.49,18.76l1.72,4.33l12.16,30.44l1.64,4.1c-1.17,0.82-2.39,1.59-3.62,2.29c-8.35,4.92-17.92,7.63-27.84,7.63    c-10.12,0-19.63-2.77-27.85-7.62l-6.96,17.46c10.4,5.69,22.24,8.92,34.81,8.92c12.33,0,24.26-3.18,34.81-8.95    c1.26-0.66,2.47-1.39,3.68-2.14c5.4-3.36,10.39-7.43,14.82-12.12c1.08-1.13,2.13-2.29,3.13-3.51c3.2-3.81,6.05-7.98,8.5-12.46    l-15.83-9.22c-0.25,0.46-0.52,0.92-0.78,1.37c-0.87,1.5-1.8,2.96-2.8,4.34l-1.9-4.75l-6.31-15.8l-1.73-4.33h4.54h16.89v-18.76    H485.2h-4.54l-1.73-4.33l-11.76-29.44h-29.22l-11.76,29.44l-1.73,4.33h-4.54h-22.96c4.35-27.62,27.63-48.78,55.6-48.78    c20.3,0,39.12,11.34,49.11,29.63l15.83-9.22c-13.2-24.16-38.08-39.17-64.94-39.17c-41.09,0-74.53,34.51-74.53,76.93    c0,19.17,6.82,36.73,18.09,50.21c1.02,1.21,2.06,2.38,3.13,3.51l-1.72,4.33l-0.43,1.07l-1.71,4.29c-1.12-1.05-2.19-2.15-3.23-3.28    c-14.58-15.59-23.56-36.79-23.56-60.13c0-47.79,37.66-86.67,83.95-86.67c29.47,0,57.14,16.28,72.22,42.46l15.62-9.6    c-18.33-31.84-51.99-51.63-87.84-51.63c-56.31,0-102.13,47.3-102.13,105.43c0,31.28,13.27,59.42,34.29,78.75    c1.09,1.01,2.21,1.99,3.36,2.96c4.78,4.03,9.93,7.62,15.38,10.71c1.23,0.71,2.47,1.39,3.73,2.04    c13.67,7.03,29.08,10.98,45.37,10.98c15.94,0,31.44-3.91,45.35-11.04l-6.95-17.39C479.24,386,466.09,389.44,452.55,389.44z"/>
		<path class="st0" d="M540.39,356.57l-15.62-9.58c-3.36,5.82-7.34,11.16-11.81,15.92c-1.05,1.13-2.14,2.21-3.24,3.26l-1.71-4.29    l-0.42-1.04c-4.52,4.58-9.53,8.54-14.95,11.83l0.39,0.95l1.61,4.04l6.98,17.46l1.61,4.03l4.18,10.46h19.67l-8.39-21.01l-1.66-4.16    c1.15-0.95,2.26-1.93,3.36-2.96C528.18,374.4,534.96,366.01,540.39,356.57z"/>
	</g>
</g>
</svg>