<svg xmlns="http://www.w3.org/2000/svg" xmlns:xlink="http://www.w3.org/1999/xlink" version="1.1" id="Layer_1" x="0px" y="0px" style="enable-background:new 0 0 800 600;" xml:space="preserve" viewBox="285.92 197.34 228.16 205.34">
<g>
	<g>
		<path d="M351.8,344.43h14.06l2.97-7.21c-3.9-2.13-7.59-4.58-11.03-7.34L351.8,344.43z"/>
		<path d="M405.11,330.44c-9.9,0-19.24-2.4-27.48-6.67c-0.89-0.45-1.78-0.94-2.65-1.45l1.15-2.81h0.01l0.28-0.68l1.16-2.81    l5.03-12.21l1.15-2.78l8.71-21.14h-14.06l-4.53,10.98v0.01l-1.33,3.23c-0.72-0.97-1.39-1.98-2-3.02    c-2.58-4.28-4.38-9.08-5.21-14.2h11.06h3.25h14.06h3.25h16.3l-5.36-13h-5.58h-3.25l1.24-3l4.8-11.64l4.8,11.64l1.24,3l5.36,13    l1.23,3l8.7,21.09l1.17,2.84c-0.84,0.57-1.71,1.1-2.59,1.59c-5.97,3.41-12.82,5.29-19.91,5.29c-7.24,0-14.04-1.92-19.92-5.28    l-4.98,12.1c7.44,3.94,15.91,6.18,24.9,6.18c8.82,0,17.35-2.2,24.9-6.2c0.9-0.46,1.77-0.96,2.63-1.48    c3.86-2.33,7.43-5.15,10.6-8.4c0.77-0.78,1.52-1.59,2.24-2.43c2.29-2.64,4.33-5.53,6.08-8.63l-11.32-6.39    c-0.18,0.32-0.37,0.64-0.56,0.95c-0.62,1.04-1.29,2.05-2,3.01l-1.36-3.29l-4.51-10.95l-1.24-3h3.25h12.08v-13h-17.44h-3.25    l-1.24-3l-8.41-20.4h-20.9l-8.41,20.4l-1.24,3h-3.25h-16.42c3.11-19.14,19.76-33.8,39.77-33.8c14.52,0,27.98,7.86,35.13,20.53    l11.32-6.39c-9.44-16.74-27.24-27.14-46.45-27.14c-29.39,0-53.31,23.91-53.31,53.3c0,13.28,4.88,25.45,12.94,34.79    c0.73,0.84,1.47,1.65,2.24,2.43l-1.23,3l-0.31,0.74l-1.22,2.97c-0.8-0.73-1.57-1.49-2.31-2.27    c-10.43-10.8-16.85-25.49-16.85-41.66c0-33.11,26.94-60.05,60.05-60.05c21.08,0,40.87,11.28,51.66,29.42l11.17-6.65    c-13.11-22.06-37.19-35.77-62.83-35.77c-40.28,0-73.05,32.77-73.05,73.05c0,21.67,9.49,41.17,24.53,54.56    c0.78,0.7,1.58,1.38,2.4,2.05c3.42,2.79,7.1,5.28,11,7.42c0.88,0.49,1.77,0.96,2.67,1.41c9.78,4.87,20.8,7.61,32.45,7.61    c11.4,0,22.49-2.71,32.44-7.65l-4.97-12.05C424.2,328.06,414.79,330.44,405.11,330.44z"/>
		<path d="M467.94,307.67l-11.17-6.64c-2.4,4.03-5.25,7.73-8.45,11.03c-0.75,0.78-1.53,1.53-2.32,2.26l-1.22-2.97l-0.3-0.72    c-3.23,3.17-6.82,5.92-10.69,8.2l0.28,0.66l1.15,2.8l4.99,12.1l1.15,2.79l2.99,7.25h14.07l-6-14.56l-1.19-2.88    c0.82-0.66,1.62-1.34,2.4-2.05C459.2,320.02,464.05,314.21,467.94,307.67z"/>
	</g>
	<g>
		<path d="M310.67,372.79l-3.51,4.27c-1.83-2.1-4.46-3.47-6.94-3.47c-4.58,0-8.12,3.55-8.12,8.2s3.55,8.24,8.12,8.24    c2.4,0,5.04-1.22,6.94-3.13l3.55,3.85c-2.82,2.9-6.9,4.77-10.79,4.77c-7.97,0-14-5.91-14-13.66c0-7.71,6.14-13.5,14.23-13.5    C304,368.37,308.04,370.09,310.67,372.79z"/>
		<path d="M333.91,385c0,6.26-4.42,10.49-10.99,10.49c-6.6,0-11.02-4.23-11.02-10.49c0-6.29,4.42-10.45,11.02-10.45    C329.48,374.55,333.91,378.71,333.91,385z M317.81,385.08c0,3.36,2.06,5.65,5.11,5.65c3.01,0,5.11-2.29,5.11-5.65    c0-3.36-2.1-5.65-5.11-5.65C319.87,379.43,317.81,381.72,317.81,385.08z"/>
		<path d="M372.36,382.37v12.89h-5.84v-11.18c0-2.63-1.53-4.2-3.97-4.2c-2.82,0.04-4.54,2.25-4.54,5.23v10.15h-5.84v-11.18    c0-2.63-1.53-4.2-3.93-4.2c-2.86,0.04-4.58,2.25-4.58,5.23v10.15h-5.87v-20.52h5.87v3.55c1.45-2.52,3.85-3.74,6.94-3.78    c3.47,0,5.95,1.75,6.94,4.73c1.33-3.17,3.93-4.69,7.4-4.73C369.5,374.51,372.36,377.56,372.36,382.37z"/>
		<path d="M399.63,385.12c0,6.22-3.78,10.38-9.54,10.38c-2.86,0-5.11-1.14-6.6-3.2v10.38h-5.88v-27.92h5.88v3.01    c1.45-2.06,3.7-3.2,6.48-3.2C395.74,374.55,399.63,378.78,399.63,385.12z M393.68,384.93c0-3.28-2.06-5.65-5.07-5.65    s-5.11,2.33-5.11,5.65c0,3.4,2.1,5.68,5.11,5.68S393.68,388.28,393.68,384.93z"/>
		<path d="M422.41,386.79h-14.73c0.69,2.59,2.67,4.12,5.3,4.12c1.95,0,3.78-0.76,5.19-2.17l3.09,3.13    c-2.06,2.29-5.07,3.62-8.77,3.62c-6.56,0-10.72-4.2-10.72-10.41c0-6.33,4.31-10.53,10.57-10.53    C419.54,374.55,422.9,379.32,422.41,386.79z M416.91,383.32c-0.08-2.71-1.83-4.46-4.54-4.46c-2.59,0-4.35,1.75-4.81,4.46H416.91z"/>
		<path d="M439,394.12c-1.53,0.88-3.43,1.41-5.34,1.41c-3.66,0-6.45-2.1-6.45-6.33v-9.5h-2.86v-4.04h2.86v-5.65h5.84v5.65h5.57v4.08    h-5.57v8.47c0,1.72,0.72,2.4,1.98,2.37c0.76,0,1.68-0.27,2.75-0.76L439,394.12z"/>
		<path d="M461.28,386.79h-14.73c0.69,2.59,2.67,4.12,5.3,4.12c1.95,0,3.78-0.76,5.19-2.17l3.09,3.13    c-2.06,2.29-5.07,3.62-8.77,3.62c-6.56,0-10.72-4.2-10.72-10.41c0-6.33,4.31-10.53,10.57-10.53    C458.42,374.55,461.77,379.32,461.28,386.79z M455.78,383.32c-0.08-2.71-1.83-4.46-4.54-4.46c-2.59,0-4.35,1.75-4.81,4.46H455.78z    "/>
		<path d="M469.64,390.08l-2.1,5.19h-6.22l11.6-26.7h6.22l11.41,26.7h-6.45l-2.1-5.19H469.64z M475.86,374.85l-4.23,10.38h8.43    L475.86,374.85z"/>
		<path d="M499.36,373.56v5.8h12.89v5h-12.89v5.91h14.72v5h-20.75v-26.7h20.33v5H499.36z"/>
	</g>
</g>
</svg>