<svg width="18" height="20" viewBox="0 0 18 20" fill="none" xmlns="http://www.w3.org/2000/svg">
<path d="M1.5 16.1572H16.6579" stroke="#725095" stroke-width="2" stroke-linecap="round" stroke-linejoin="round"/>
<path d="M2.44727 9.52611C2.44727 5.86359 5.41633 2.89453 9.07884 2.89453V2.89453C12.7414 2.89453 15.7104 5.86359 15.7104 9.52611V16.1577H2.44727V9.52611Z" stroke="#725095" stroke-width="2" stroke-linecap="round" stroke-linejoin="round"/>
<path d="M7.43755 16.1572V15.1572C7.08058 15.1572 6.75068 15.3475 6.57194 15.6565L7.43755 16.1572ZM10.7201 16.1572L11.5857 15.6565C11.407 15.3475 11.0771 15.1572 10.7201 15.1572V16.1572ZM8.18408 17.1046C8.18408 16.9399 8.22763 16.7885 8.30316 16.6579L6.57194 15.6565C6.32506 16.0833 6.18408 16.579 6.18408 17.1046H8.18408ZM9.07882 17.9993C8.58467 17.9993 8.18408 17.5987 8.18408 17.1046H6.18408C6.18408 18.7033 7.4801 19.9993 9.07882 19.9993V17.9993ZM9.97356 17.1046C9.97356 17.5987 9.57297 17.9993 9.07882 17.9993V19.9993C10.6775 19.9993 11.9736 18.7033 11.9736 17.1046H9.97356ZM9.85447 16.6579C9.93001 16.7885 9.97356 16.9399 9.97356 17.1046H11.9736C11.9736 16.579 11.8326 16.0833 11.5857 15.6565L9.85447 16.6579ZM10.7201 15.1572H7.43755V17.1572H10.7201V15.1572Z" fill="#725095"/>
<circle cx="13" cy="3" r="3" fill="#F4694C"/>
</svg>
