<svg width="65" height="46" viewBox="0 0 65 46" fill="none" xmlns="http://www.w3.org/2000/svg">
<rect x="0.245143" y="0.251003" width="64.2275" height="45.1929" rx="1.716" fill="white" stroke="#D1D9E0" stroke-width="0.490286"/>
<path fill-rule="evenodd" clip-rule="evenodd" d="M20.4628 30.1351H16.5422L13.6022 18.6108C13.4626 18.0807 13.1663 17.612 12.7305 17.3911C11.6428 16.836 10.4442 16.3943 9.13672 16.1715V15.7278H15.4526C16.3242 15.7278 16.978 16.3943 17.087 17.1683L18.6124 25.4812L22.5311 15.7278H26.3428L20.4628 30.1351ZM28.5221 30.1351H24.8194L27.8684 15.7278H31.5711L28.5221 30.1351ZM36.3615 19.719C36.4705 18.9431 37.1242 18.4994 37.887 18.4994C39.0855 18.388 40.3911 18.6108 41.4807 19.164L42.1345 16.062C41.0449 15.6183 39.8463 15.3955 38.7586 15.3955C35.1649 15.3955 32.5498 17.3911 32.5498 20.1608C32.5498 22.2678 34.4022 23.3742 35.7097 24.0407C37.1242 24.7052 37.669 25.1489 37.5601 25.8135C37.5601 26.8103 36.4705 27.254 35.3828 27.254C34.0753 27.254 32.7678 26.9217 31.5711 26.3666L30.9174 29.4705C32.2249 30.0237 33.6394 30.2465 34.947 30.2465C38.9766 30.356 41.4807 28.3623 41.4807 25.3698C41.4807 21.6013 36.3615 21.3805 36.3615 19.719V19.719ZM54.4392 30.1351L51.4992 15.7278H48.3412C47.6875 15.7278 47.0337 16.1715 46.8158 16.836L41.3716 30.1351H45.1833L45.9441 28.03H50.6275L51.0633 30.1351H54.4392ZM48.886 19.6075L49.9736 25.0373H46.9247L48.886 19.6075Z" fill="#172B85"/>
</svg>
