<svg width="65" height="46" viewBox="0 0 65 46" fill="none" xmlns="http://www.w3.org/2000/svg">
<rect x="0.398464" y="0.251003" width="64.2275" height="45.1063" rx="1.716" fill="white" stroke="#D1D9E0" stroke-width="0.490286"/>
<path fill-rule="evenodd" clip-rule="evenodd" d="M48.7505 31.9035C44.3488 35.152 37.9678 36.8792 32.4724 36.8792C24.7709 36.8792 17.8358 34.0322 12.5882 29.2938C12.1762 28.9216 12.5432 28.4134 13.0388 28.702C18.7004 31.9965 25.7025 33.981 32.9345 33.981C37.813 33.981 43.1757 32.9689 48.1106 30.8757C48.854 30.5589 49.4782 31.365 48.7505 31.9035ZM50.5813 29.8124C51.1448 30.5338 49.955 33.5042 49.4238 34.831C49.2628 35.2325 49.6079 35.3946 49.9717 35.0903C52.3326 33.1153 52.9432 28.9759 52.4601 28.3779C51.9802 27.7851 47.8524 27.2748 45.3326 29.0439C44.9447 29.3158 45.0116 29.6921 45.4414 29.6399C46.8602 29.4705 50.0188 29.091 50.5813 29.8124Z" fill="#FF9900"/>
<path fill-rule="evenodd" clip-rule="evenodd" d="M44.2089 24.4937L48.7905 12.8327C48.8867 12.5964 48.9358 12.4301 48.9358 12.3329C48.9358 12.1667 48.8386 12.083 48.6441 12.083H47.4783C47.2556 12.083 47.104 12.1186 47.0193 12.1876C46.9357 12.2576 46.8531 12.4103 46.7694 12.6466L43.958 20.7255L41.043 12.6466C40.9593 12.4103 40.8767 12.2576 40.7931 12.1876C40.7095 12.1186 40.5568 12.083 40.3341 12.083H39.0847C38.8902 12.083 38.793 12.1667 38.793 12.3329C38.793 12.4301 38.8411 12.5964 38.9383 12.8327L42.9574 22.7445L42.5622 23.8067C42.3259 24.4738 42.0624 24.9317 41.7707 25.1816C41.479 25.4315 41.0691 25.5559 40.5422 25.5559C40.3059 25.5559 40.1187 25.5413 39.9807 25.5141C39.8417 25.4869 39.7371 25.4723 39.6681 25.4723C39.46 25.4723 39.3555 25.604 39.3555 25.8675V26.4091C39.3555 26.6036 39.39 26.7458 39.46 26.8357C39.529 26.9256 39.6399 26.9925 39.7936 27.0333C40.1396 27.1295 40.5359 27.1797 40.9803 27.1797C41.7717 27.1797 42.4137 26.9716 42.9061 26.5544C43.4007 26.1393 43.8346 25.4514 44.2089 24.4937Z" fill="#232F3E"/>
<path fill-rule="evenodd" clip-rule="evenodd" d="M27.1058 14.9488C26.904 14.2754 26.6165 13.7025 26.2411 13.2309C25.8668 12.7594 25.4089 12.3976 24.8673 12.1477C24.3267 11.8979 23.7224 11.7734 23.0554 11.7734C22.4312 11.7734 21.8195 11.8905 21.2236 12.1268C20.6266 12.3631 20.064 12.7102 19.536 13.1682L19.4325 12.5011C19.3907 12.2241 19.2307 12.085 18.9526 12.085H18.0367C17.7597 12.085 17.6206 12.2241 17.6206 12.5011V26.5157C17.6206 26.7938 17.7597 26.9318 18.0367 26.9318H19.2653C19.5434 26.9318 19.6814 26.7927 19.6814 26.5157V21.6434C20.5837 22.4621 21.6596 22.8719 22.909 22.8719C23.5886 22.8719 24.2065 22.736 24.7617 22.4662C25.3169 22.1954 25.7884 21.817 26.1774 21.3308C26.5663 20.8456 26.8685 20.256 27.0828 19.5607C27.2982 18.8664 27.4059 18.0885 27.4059 17.2281C27.408 16.3822 27.3066 15.6221 27.1058 14.9488ZM22.4312 21.2053C21.486 21.2053 20.5701 20.8728 19.6824 20.2058V14.3967C20.5565 13.7579 21.487 13.439 22.473 13.439C24.3612 13.439 25.3054 14.7376 25.3054 17.3326C25.3043 19.9151 24.3466 21.2053 22.4312 21.2053Z" fill="#232F3E"/>
<path fill-rule="evenodd" clip-rule="evenodd" d="M36.496 12.5906C35.8707 12.0501 34.8994 11.7793 33.581 11.7793C32.9286 11.7793 32.2761 11.8389 31.6237 11.956C30.9703 12.0741 30.4224 12.2299 29.978 12.4244C29.8118 12.4945 29.6999 12.5666 29.6445 12.6429C29.5891 12.7192 29.5609 12.8552 29.5609 13.0486V13.61C29.5609 13.8599 29.6508 13.9854 29.8317 13.9854C29.8871 13.9854 29.9467 13.9749 30.0094 13.954C30.0721 13.9331 30.1244 13.9164 30.1652 13.9018C31.2348 13.5829 32.2542 13.4229 33.2265 13.4229C34.0588 13.4229 34.6422 13.5755 34.9757 13.8819C35.3093 14.1872 35.4755 14.7141 35.4755 15.4638V16.8377C34.5042 16.6014 33.6291 16.4843 32.8512 16.4843C31.63 16.4843 30.6587 16.7864 29.9362 17.3897C29.2148 17.993 28.853 18.8022 28.853 19.8154C28.853 20.7605 29.1447 21.5123 29.7282 22.0748C30.3105 22.6373 31.102 22.9175 32.1015 22.9175C32.6985 22.9175 33.2987 22.7994 33.903 22.5641C34.5073 22.3289 35.0583 21.9943 35.5581 21.5646L35.6627 22.2515C35.7045 22.515 35.8571 22.6467 36.1217 22.6467H37.0167C37.2937 22.6467 37.4338 22.5077 37.4338 22.2306V15.1104C37.4328 13.9718 37.1202 13.1322 36.496 12.5906ZM35.4755 20.2963C35.0176 20.6434 34.5387 20.9069 34.0389 21.0878C33.5392 21.2687 33.0603 21.3586 32.6024 21.3586C32.0608 21.3586 31.6446 21.2164 31.3529 20.932C31.0612 20.6476 30.9159 20.242 30.9159 19.714C30.9159 18.5063 31.7001 17.902 33.2684 17.902C33.6291 17.902 34.0003 17.9271 34.3819 17.9752C34.7635 18.0243 35.1284 18.0902 35.4755 18.1728V20.2963Z" fill="#232F3E"/>
</svg>
