<svg width="17" height="17" viewBox="0 0 17 17" fill="none" xmlns="http://www.w3.org/2000/svg">
<g clip-path="url(#clip0_375_520)">
<path d="M15.2021 0.666504H1.63122C1.00746 0.666504 0.5 1.17396 0.5 1.79772V15.8598C0.5 16.2127 0.787098 16.4998 1.14001 16.4998H15.2021C15.8259 16.4998 16.3333 15.9924 16.3333 15.3686V1.79772C16.3333 1.17396 15.8259 0.666504 15.2021 0.666504ZM5.28443 2.59407C6.63195 2.59407 7.72826 3.69038 7.72826 5.0379C7.72826 6.38541 6.63195 7.48173 5.28443 7.48173C3.93692 7.48173 2.8406 6.38541 2.8406 5.0379C2.8406 3.69038 3.93692 2.59407 5.28443 2.59407ZM14.4484 14.201C14.3578 14.3663 14.1842 14.469 13.9958 14.469H2.83757C2.64906 14.469 2.47554 14.3663 2.38492 14.201C2.29425 14.0357 2.30086 13.8342 2.40216 13.6753L5.05568 9.51097C5.15047 9.3622 5.31465 9.27212 5.49109 9.27212C5.66753 9.27212 5.83171 9.3622 5.92651 9.51097L7.20105 11.5112L9.69121 7.60323C9.786 7.45443 9.95019 7.36439 10.1266 7.36439C10.303 7.36439 10.4672 7.45447 10.562 7.60323L14.4312 13.6753C14.5325 13.8342 14.5391 14.0358 14.4484 14.201Z" fill="#725095"/>
</g>
<defs>
<clipPath id="clip0_375_520">
<rect width="15.8333" height="15.8333" fill="white" transform="translate(0.5 0.666504)"/>
</clipPath>
</defs>
</svg>
